{
.appVersion = "1141";
customParameters = (
{
name = glyphOrder;
value = (
space,
exclam,
quotedbl,
numbersign,
dollar,
percent,
ampersand,
quotesingle,
parenleft,
parenright,
asterisk,
plus,
comma,
hyphen,
period,
slash,
zero,
one,
two,
three,
four,
five,
six,
seven,
eight,
nine,
colon,
semicolon,
less,
equal,
greater,
question,
at,
A,
B,
C,
D,
E,
F,
G,
H,
I,
J,
K,
L,
M,
N,
O,
P,
Q,
R,
S,
T,
U,
V,
W,
X,
Y,
Z,
bracketleft,
backslash,
bracketright,
asciicircum,
underscore,
grave,
a,
b,
c,
d,
e,
f,
g,
h,
i,
j,
k,
l,
m,
n,
o,
p,
q,
r,
s,
t,
u,
v,
w,
x,
y,
z,
braceleft,
bar,
braceright,
asciitilde,
exclamdown,
cent,
sterling,
currency,
yen,
brokenbar,
section,
dieresis,
copyright,
ordfeminine,
guillemotleft,
logicalnot,
registered,
macron,
degree,
plusminus,
twosuperior,
threesuperior,
acute,
paragraph,
periodcentered,
cedilla,
onesuperior,
ordmasculine,
guillemotright,
onequarter,
onehalf,
threequarters,
questiondown,
Agrave,
Aacute,
Acircumflex,
Atilde,
Adieresis,
Aring,
AE,
Ccedilla,
Egrave,
Eacute,
Ecircumflex,
Edieresis,
Igrave,
Iacute,
Icircumflex,
Idieresis,
Eth,
Ntilde,
Ograve,
Oacute,
Ocircumflex,
Otilde,
Odieresis,
multiply,
Oslash,
OE,
Ugrave,
Uacute,
Ucircumflex,
Udieresis,
Yacute,
Thorn,
germandbls,
agrave,
aacute,
acircumflex,
atilde,
adieresis,
aring,
ae,
ccedilla,
egrave,
eacute,
ecircumflex,
edieresis,
igrave,
iacute,
icircumflex,
idieresis,
eth,
ntilde,
ograve,
oacute,
ocircumflex,
otilde,
odieresis,
divide,
oslash,
oe,
ugrave,
uacute,
ucircumflex,
udieresis,
yacute,
thorn,
ydieresis,
circumflex,
caron,
breve,
dotaccent,
ring,
ogonek,
tilde,
hungarumlaut,
quoteleft,
quoteright,
minus,
nbspace,
Amacron,
Abreve,
Aogonek,
Aringacute,
Adblgrave,
Ainvertedbreve,
Adotbelow,
Ahookabove,
Acircumflexacute,
Acircumflexgrave,
Acircumflexhookabove,
Acircumflextilde,
Acircumflexdotbelow,
Abreveacute,
Abrevegrave,
Abrevehookabove,
Abrevetilde,
Abrevedotbelow,
Cacute,
Ccircumflex,
Cdotaccent,
Ccaron,
Dcaron,
Emacron,
Ebreve,
Edotaccent,
Eogonek,
Ecaron,
Edblgrave,

glyphs = (
{
glyphname = exclam;
layers = (
{
layerId = "1BFE03A3-C162-48A6-B30A-9589691C03B8";
paths = (
{
closed = 1;
nodes = (
"-21.365 340.31 OFFCURVE",
"134.143 486.143 OFFCURVE",
"268.492 486.143 QCURVE SMOOTH",
"406.873 486.143 OFFCURVE",
"544.19 339.825 OFFCURVE",
"537.611 237.087 QCURVE SMOOTH",
"531.032 134.317 OFFCURVE",
"376.04 -11.032 OFFCURVE",
"240.175 -11.032 QCURVE SMOOTH",
"102.31 -11.032 OFFCURVE",
"-34.008 135.802 OFFCURVE",
"-27.429 238.056 QCURVE SMOOTH"
);
},
{
closed = 1;
nodes = (
"212.206 1456 LINE",
"735.357 1456 LINE",
"547.167 534.722 LINE",
"60.881 534.722 LINE"
);
}
);
width = 674;
}
);
unicode = 0021;
},
{
glyphname = quotedbl;
layers = (
{
layerId = "1BFE03A3-C162-48A6-B30A-9589691C03B8";
paths = (
{
closed = 1;
nodes = (
"152.746 1236.54 LINE",
"195.611 1456 LINE",
"627.183 1456 LINE",
"584.317 1236.54 LINE",
"495 835.849 LINE",
"96.944 835.849 LINE"
);
},
{
closed = 1;
nodes = (
"640.413 1236.54 LINE",
"683.278 1456 LINE",
"1114.881 1456 LINE",
"1072.016 1236.54 LINE",
"982.183 835.849 LINE",
"584.611 835.849 LINE"
);
}
);
width = 1051;
}
);
leftKerningGroup = minute;
rightKerningGroup = minute;
unicode = 0022;
},
{
glyphname = numbersign;
layers = (
{
layerId = "1BFE03A3-C162-48A6-B30A-9589691C03B8";
paths = (
{
closed = 1;
nodes = (
"488.857 1472.611 LINE",
"875.881 1472.611 LINE",
"336.246 -16.611 LINE",
"-52.262 -16.611 LINE"
);
},
{
closed = 1;
nodes = (
"991.325 1472.611 LINE",
"1379.349 1472.611 LINE",
"838.714 -16.611 LINE",
"451.206 -16.611 LINE"
);
},
{
closed = 1;
nodes = (
"1.643 617.73 LINE",
"1267.206 617.73 LINE",
"1234.492 331.659 LINE",
"-31.587 331.659 LINE"
);
},
{
closed = 1;
nodes = (
"135.603 1123.857 LINE",
"1402.198 1123.857 LINE",
"1369.968 837.786 LINE",
"103.373 837.786 LINE"
);
}
);
width = 1349;
}
);
unicode = 0023;
},
{
glyphname = dollar;
layers = (
{
layerId = "1BFE03A3-C162-48A6-B30A-9589691C03B8";
paths = (
{
closed = 1;
nodes = (
"-16.881 473.349 LINE",
"422.04 473.349 LINE",
"418.071 439.317 LINE SMOOTH",
"409.714 372.31 OFFCURVE",
"470.754 306.913 OFFCURVE",
"540.548 306.913 QCURVE SMOOTH",
"608.952 306.913 OFFCURVE",
"692.024 352.341 OFFCURVE",
"701.444 399.444 QCURVE SMOOTH",
"709.865 443.548 OFFCURVE",
"670.452 506.952 OFFCURVE",
"499.103 558.016 QCURVE SMOOTH",
"266.722 630.794 OFFCURVE",
"86.048 865.048 OFFCURVE",
"116.468 1065.556 QCURVE SMOOTH",
"146.857 1266.841 OFFCURVE",
"484.81 1462.865 OFFCURVE",
"741.127 1462.865 QCURVE SMOOTH",
"1000.476 1462.865 OFFCURVE",
"1271.984 1276.937 OFFCURVE",
"1246.429 1072.897 QCURVE SMOOTH",
"1239.976 1010.325 LINE",
"803.794 1010.325 LINE",
"806.214 1029.619 LINE SMOOTH",
"813.476 1084.984 OFFCURVE",
"765.27 1130.182 OFFCURVE",
"694.421 1130.182 QCURVE SMOOTH",
"618.929 1130.182 OFFCURVE",
"573.357 1106.016 OFFCURVE",
"565.516 1068.008 QCURVE SMOOTH",
"557.675 1029.032 OFFCURVE",
"601.73 980.857 OFFCURVE",
"798.563 922.984 QCURVE SMOOTH",
"997.563 862.754 OFFCURVE",
"1187.722 632.69 OFFCURVE",
"1156.333 418.984 QCURVE SMOOTH",
"1126.365 213.738 OFFCURVE",
"772.183 -9.349 OFFCURVE",
"508.802 -9.349 QCURVE SMOOTH",
"254.071 -9.349 OFFCURVE",
"-44.857 182.516 OFFCURVE",
"-23.302 396.198 QCURVE SMOOTH"
);
},
{
closed = 1;
nodes = (
"468 759 LINE",
"822 759 LINE",
"709.619 89.317 LINE",
"713.071 79.317 LINE",
"672.008 -151 LINE",
"283.373 -151 LINE"
);
},
{
closed = 1;
nodes = (
"563.532 1363.746 LINE",
"559.563 1373.746 LINE",
"595.984 1606 LINE",
"984.619 1606 LINE",
"821 759 LINE",
"456 759 LINE"
);
}
);
width = 1240;
}
);
unicode = 0024;
},
{
glyphname = ampersand;
layers = (
{
layerId = "1BFE03A3-C162-48A6-B30A-9589691C03B8";
paths = (
{
closed = 1;
nodes = (
"-12.81 525.421 OFFCURVE",
"211.302 730.421 OFFCURVE",
"416.532 832.484 QCURVE SMOOTH",
"586.159 916.421 LINE SMOOTH",
"697.984 971.421 OFFCURVE",
"799.254 1092.944 OFFCURVE",
"810.127 1145.794 QCURVE SMOOTH",
"819.095 1189.151 OFFCURVE",
"792.786 1240.048 OFFCURVE",
"753.183 1240.048 QCURVE SMOOTH",
"715.516 1240.048 OFFCURVE",
"672.238 1198.889 OFFCURVE",
"665.27 1154.563 QCURVE SMOOTH",
"655.397 1091.357 OFFCURVE",
"746.016 937.349 OFFCURVE",
"824.579 826.452 QCURVE SMOOTH",
"1389 0 LINE",
"880.19 0 LINE",
"384.468 710.913 LINE SMOOTH",
"292.746 837.23 OFFCURVE",
"207.857 1042.587 OFFCURVE",
"227.762 1159.238 QCURVE SMOOTH",
"251.794 1308.778 OFFCURVE",
"541.794 1486 OFFCURVE",
"809.405 1486 QCURVE SMOOTH",
"1062.175 1486 OFFCURVE",
"1271.405 1312.063 OFFCURVE",
"1248.405 1152.071 QCURVE SMOOTH",
"1227.405 1014.302 OFFCURVE",
"1010.302 805.508 OFFCURVE",
"842.905 722.698 QCURVE SMOOTH",
"720.556 658.206 LINE SMOOTH",
"531.984 570.341 OFFCURVE",
"433.611 473.357 OFFCURVE",
"421.222 403.476 QCURVE SMOOTH",
"411.317 345.564 OFFCURVE",
"469.119 286.651 OFFCURVE",
"549.698 286.651 QCURVE SMOOTH",
"706.54 286.651 OFFCURVE",
"1000.857 482.103 OFFCURVE",
"1078.079 745.056 QCURVE",
"1505.198 745.056 LINE",
"1450.778 436.048 OFFCURVE",
"826.817 -20 OFFCURVE",
"477.952 -20 QCURVE SMOOTH",
"177.254 -20 OFFCURVE",
"-68.905 193.873 OFFCURVE",
"-39.357 371.452 QCURVE SMOOTH"
);
}
);
width = 1507;
}
);
unicode = 0026;
},
{
glyphname = quotesingle;
layers = (
{
layerId = "1BFE03A3-C162-48A6-B30A-9589691C03B8";
paths = (
{
closed = 1;
nodes = (
"157.905 1236.54 LINE",
"190.452 1456 LINE",
"627.278 1456 LINE",
"581.833 1236.056 LINE",
"495.579 835.849 LINE",
"97.524 835.849 LINE"
);
}
);
width = 541;
}
);
leftKerningGroup = minute;
rightKerningGroup = minute;
unicode = 0027;
},
{
glyphname = parenleft;
layers = (
{
layerId = "1BFE03A3-C162-48A6-B30A-9589691C03B8";
paths = (
{
closed = 1;
nodes = (
"284.23 -380.19 OFFCURVE",
"-35.111 88.23 OFFCURVE",
"34.762 514 QCURVE SMOOTH",
"36.762 525 LINE SMOOTH",
"107.698 951.254 OFFCURVE",
"593.556 1420.19 OFFCURVE",
"911.524 1476 QCURVE",
"875.683 1189.413 LINE",
"753.5 1145.635 OFFCURVE",
"605.484 885.873 OFFCURVE",
"545.063 532 QCURVE SMOOTH",
"541.063 508 LINE SMOOTH",
"481.19 154.127 OFFCURVE",
"511.825 -105.635 OFFCURVE",
"611.365 -149.413 QCURVE",
"574.524 -436 LINE"
);
}
);
width = 796;
}
);
rightKerningGroup = parens;
unicode = 0028;
},
{
glyphname = parenright;
layers = (
{
layerId = "1BFE03A3-C162-48A6-B30A-9589691C03B8";
paths = (
{
closed = 1;
nodes = (
"-127.722 -149.413 LINE",
"-6.571 -105.635 OFFCURVE",
"142.508 154.127 OFFCURVE",
"201.865 508 QCURVE SMOOTH",
"205.865 532 LINE SMOOTH",
"266.286 885.873 OFFCURVE",
"235.103 1145.635 OFFCURVE",
"136.079 1189.413 QCURVE",
"172.437 1476 LINE",
"461.698 1420.19 OFFCURVE",
"782.587 951.254 OFFCURVE",
"712.683 525.484 QCURVE SMOOTH",
"710.683 513.452 LINE SMOOTH",
"640.294 87.198 OFFCURVE",
"152.889 -380.19 OFFCURVE",
"-164.563 -436 QCURVE"
);
}
);
width = 796;
}
);
leftKerningGroup = parens;
unicode = 0029;
},
{
glyphname = asterisk;
layers = (
{
layerId = "1BFE03A3-C162-48A6-B30A-9589691C03B8";
paths = (
{
closed = 1;
nodes = (
"192.81 1332.484 LINE",
"368.206 1229.778 LINE",
"372.405 1476 LINE",
"740.087 1476 LINE",
"667.595 1229.778 LINE",
"891.198 1333 LINE",
"958.833 991.095 LINE",
"729.492 944.548 LINE",
"863.222 755.159 LINE",
"550.96 548.373 LINE",
"471.81 767.5 LINE",
"330.619 548.373 LINE",
"65.063 755.159 LINE",
"250.317 944.548 LINE",
"33.397 990.095 LINE"
);
}
);
width = 898;
}
);
unicode = 002A;
},
{
glyphname = plus;
layers = (
{
layerId = "1BFE03A3-C162-48A6-B30A-9589691C03B8";
paths = (
{
closed = 1;
nodes = (
"59.405 899.262 LINE",
"922.27 899.262 LINE",
"878.746 479.69 LINE",
"15.881 479.69 LINE"
);
},
{
closed = 1;
nodes = (
"343.643 1171.27 LINE",
"761.698 1171.27 LINE",
"595.54 207.683 LINE",
"176.968 207.683 LINE"
);
}
);
width = 934;
}
);
unicode = 002B;
},
{
glyphname = comma;
layers = (
{
layerId = "1BFE03A3-C162-48A6-B30A-9589691C03B8";
paths = (
{
closed = 1;
nodes = (
"-101.206 -86.452 OFFCURVE",
"-39.5 39 OFFCURVE",
"-25.921 105.675 QCURVE SMOOTH",
"41.532 496 LINE",
"528.262 496 LINE",
"461.325 109.675 LINE SMOOTH",
"446.294 21.937 OFFCURVE",
"337.984 -150.381 OFFCURVE",
"272.667 -190.222 QCURVE",
"-166.778 -142.421 LINE"
);
}
);
width = 609;
}
);
leftKerningGroup = comma;
rightKerningGroup = comma;
unicode = 002C;
},
{
glyphname = hyphen;
layers = (
{
layerId = "1BFE03A3-C162-48A6-B30A-9589691C03B8";
paths = (
{
closed = 1;
nodes = (
"85.73 864 LINE",
"838.635 864 LINE",
"782.46 387.452 LINE",
"30.071 387.452 LINE"
);
}
);
width = 879;
}
);
leftKerningGroup = emdash;
rightKerningGroup = emdash;
unicode = 002D;
},
{
glyphname = period;
layers = (
{
layerId = "1BFE03A3-C162-48A6-B30A-9589691C03B8";
paths = (
{
closed = 1;
nodes = (
"-44.913 367.508 OFFCURVE",
"114.921 520.698 OFFCURVE",
"256.659 521.183 QCURVE SMOOTH",
"397.397 521.667 OFFCURVE",
"537.071 368.476 OFFCURVE",
"529.524 254.349 QCURVE SMOOTH",
"522.429 140.222 OFFCURVE",
"362.111 -13.452 OFFCURVE",
"220.857 -13.937 QCURVE SMOOTH",
"80.119 -14.421 OFFCURVE",
"-59.556 142.254 OFFCURVE",
"-52.492 254.381 QCURVE SMOOTH"
);
}
);
width = 659;
}
);
leftKerningGroup = comma;
rightKerningGroup = comma;
unicode = 002E;
},
{
glyphname = slash;
layers = (
{
layerId = "1BFE03A3-C162-48A6-B30A-9589691C03B8";
paths = (
{
closed = 1;
nodes = (
"667.556 1456 LINE",
"1151.897 1456 LINE",
"296.389 -87.238 LINE",
"-186.952 -87.238 LINE"
);
}
);
width = 1024;
}
);
unicode = 002F;
},
{
glyphname = zero;
layers = (
{
layerId = "1BFE03A3-C162-48A6-B30A-9589691C03B8";
paths = (
{
closed = 1;
nodes = (
"47.683 842.341 LINE",
"104.389 1169.159 OFFCURVE",
"525.619 1476.516 OFFCURVE",
"856.825 1477.032 QCURVE SMOOTH",
"1187.032 1478.063 OFFCURVE",
"1495.857 1182.254 OFFCURVE",
"1438.698 845.952 QCURVE",
"1399.873 623.556 LINE",
"1343.135 286.294 OFFCURVE",
"892.937 -22.579 OFFCURVE",
"589.214 -23.095 QCURVE SMOOTH",
"254.524 -24.127 OFFCURVE",
"-46.849 292.389 OFFCURVE",
"9.373 621.492 QCURVE"
);
},
{
closed = 1;
nodes = (
"508.476 450.96 OFFCURVE",
"562.643 356.936 OFFCURVE",
"647.056 357.452 QCURVE SMOOTH",
"730.952 357.452 OFFCURVE",
"831.937 451.992 OFFCURVE",
"852.992 558.302 QCURVE",
"913.73 903.333 LINE",
"933.786 1003 OFFCURVE",
"875.492 1081.611 OFFCURVE",
"793.659 1081.095 QCURVE SMOOTH",
"711.794 1081.095 OFFCURVE",
"609.81 1002.484 OFFCURVE",
"589.754 902.817 QCURVE",
"529.016 558.302 LINE"
);
}
);
width = 1451;
}
);
unicode = 0030;
},
{
glyphname = one;
layers = (
{
layerId = "1BFE03A3-C162-48A6-B30A-9589691C03B8";
paths = (
{
closed = 1;
nodes = (
"654.095 954.778 LINE",
"199.246 797.849 LINE",
"256.936 1271.365 LINE",
"810.278 1451.643 LINE",
"1323.444 1451.643 LINE",
"1064.318 0 LINE",
"483.064 0 LINE"
);
}
);
width = 1451;
}
);
unicode = 0031;
},
{
glyphname = two;
layers = (
{
layerId = "1BFE03A3-C162-48A6-B30A-9589691C03B8";
paths = (
{
closed = 1;
nodes = (
"-7.476 347.889 LINE",
"720.889 832.056 LINE SMOOTH",
"773.746 864.857 OFFCURVE",
"853.397 932.365 OFFCURVE",
"863.46 991.262 QCURVE SMOOTH",
"872.492 1043.516 OFFCURVE",
"827.802 1080.381 OFFCURVE",
"786.492 1080.381 QCURVE SMOOTH",
"736.413 1080.381 OFFCURVE",
"667.119 1035.198 OFFCURVE",
"653.286 974.413 QCURVE SMOOTH",
"640.635 880.683 LINE",
"113.246 880.683 LINE",
"123.992 960.889 LINE SMOOTH",
"151.516 1193.437 OFFCURVE",
"550.246 1478.063 OFFCURVE",
"860.984 1478.063 QCURVE SMOOTH",
"1165.627 1478.063 OFFCURVE",
"1430.627 1223.302 OFFCURVE",
"1402.175 1029.246 QCURVE SMOOTH",
"1374.27 842.056 OFFCURVE",
"1185.881 626.571 OFFCURVE",
"1068.214 557.31 QCURVE SMOOTH",
"773.802 391.564 LINE",
"1299.532 391.564 LINE",
"1248.746 0 LINE",
"-52.778 0 LINE"
);
}
);
width = 1451;
}
);
unicode = 0032;
},
{
glyphname = three;
layers = (
{
layerId = "1BFE03A3-C162-48A6-B30A-9589691C03B8";
paths = (
{
closed = 1;
nodes = (
"26.302 571 LINE",
"544.952 571 LINE",
"527.881 438.333 LINE SMOOTH",
"523.913 391.635 OFFCURVE",
"587.849 356.936 OFFCURVE",
"647.468 356.936 QCURVE SMOOTH",
"703.992 356.936 OFFCURVE",
"791.952 394.056 OFFCURVE",
"806.373 479.349 QCURVE SMOOTH",
"820.762 563.389 OFFCURVE",
"761.175 602.381 OFFCURVE",
"692.524 602.381 QCURVE SMOOTH",
"517.706 602.381 LINE",
"557.778 887.619 LINE",
"712.31 887.619 LINE SMOOTH",
"806.31 887.619 OFFCURVE",
"892.563 935.421 OFFCURVE",
"903.563 999 QCURVE SMOOTH",
"913.532 1057.357 OFFCURVE",
"861.008 1088.833 OFFCURVE",
"800.937 1088.833 QCURVE SMOOTH",
"734.643 1088.833 OFFCURVE",
"658 1042.651 OFFCURVE",
"651.063 988.619 QCURVE SMOOTH",
"640.222 921.19 LINE",
"140.635 921.19 LINE",
"149.54 997.484 LINE SMOOTH",
"176.317 1231 OFFCURVE",
"549.437 1478.063 OFFCURVE",
"865.817 1478.063 QCURVE SMOOTH",
"1187.611 1478.063 OFFCURVE",
"1461.865 1257.571 OFFCURVE",
"1438.119 1078.571 QCURVE SMOOTH",
"1422.762 957.96 OFFCURVE",
"1261.198 804.286 OFFCURVE",
"1134.444 768.452 QCURVE",
"1133.929 764.452 LINE",
"1239.135 741.548 OFFCURVE",
"1374.698 581.635 OFFCURVE",
"1351.921 424.111 QCURVE SMOOTH",
"1324.984 232.833 OFFCURVE",
"928.198 -22.063 OFFCURVE",
"606.46 -22.063 QCURVE SMOOTH",
"297.31 -22.063 OFFCURVE",
"0.262 224.516 OFFCURVE",
"14.556 459 QCURVE SMOOTH"
);
}
);
width = 1451;
}
);
unicode = 0033;
},
{
glyphname = four;
layers = (
{
layerId = "1BFE03A3-C162-48A6-B30A-9589691C03B8";
paths = (
{
closed = 1;
nodes = (
"644.119 341 LINE",
"688.722 355 LINE",
"775.778 825.349 LINE",
"766.262 826.897 LINE",
"524.46 628.929 LINE",
"950.762 629.444 LINE",
"982.087 658.294 LINE",
"1385.802 658.294 LINE",
"1333.595 214.873 LINE",
"-10.683 214.873 LINE",
"42.786 675.889 LINE",
"927.437 1456 LINE",
"1387.5 1456 LINE",
"1130.5 0 LINE",
"584.119 0 LINE"
);
}
);
width = 1451;
}
);
unicode = 0034;
},
{
glyphname = five;
layers = (
{
layerId = "1BFE03A3-C162-48A6-B30A-9589691C03B8";
paths = (
{
closed = 1;
nodes = (
"21.881 564.492 LINE",
"539.921 564.492 LINE",
"525.302 461.659 LINE SMOOTH",
"520.333 405.024 OFFCURVE",
"595.651 357.968 OFFCURVE",
"661.817 357.968 QCURVE SMOOTH",
"725.405 357.968 OFFCURVE",
"800.952 417.476 OFFCURVE",
"817.437 508.802 QCURVE SMOOTH",
"838.246 625.595 OFFCURVE",
"786.27 678.968 OFFCURVE",
"723.778 678.968 QCURVE SMOOTH",
"669.508 678.968 OFFCURVE",
"596.183 636.294 OFFCURVE",
"565.484 593.357 QCURVE",
"91.183 664.444 LINE",
"311.468 1456 LINE",
"1422.262 1456 LINE",
"1370.476 1035.111 LINE",
"647.27 1035.111 LINE",
"619.5 932.452 LINE",
"687.944 963.968 OFFCURVE",
"836.587 998.992 OFFCURVE",
"944.302 998.992 QCURVE SMOOTH",
"1172.516 998.992 OFFCURVE",
"1407.738 760.071 OFFCURVE",
"1362.381 522.254 QCURVE SMOOTH",
"1316.087 265.341 OFFCURVE",
"943.278 -22.063 OFFCURVE",
"602.294 -22.063 QCURVE SMOOTH",
"278.603 -22.063 OFFCURVE",
"-19.579 240.579 OFFCURVE",
"8.619 468.286 QCURVE SMOOTH"
);
}
);
width = 1451;
}
);
unicode = 0035;
},
{
glyphname = six;
layers = (
{
layerId = "1BFE03A3-C162-48A6-B30A-9589691C03B8";
paths = (
{
closed = 1;
nodes = (
"48.238 644 LINE SMOOTH",
"116.69 1024.619 OFFCURVE",
"724.786 1476 OFFCURVE",
"1294.452 1476 QCURVE SMOOTH",
"1384.492 1476 LINE",
"1334.222 1056 LINE",
"1290.81 1056 LINE SMOOTH",
"972.198 1056 OFFCURVE",
"626.008 890.595 OFFCURVE",
"562.04 548 QCURVE SMOOTH",
"545.937 459.254 LINE SMOOTH",
"535.198 403.627 OFFCURVE",
"586.079 356.968 OFFCURVE",
"660.659 356.968 QCURVE SMOOTH",
"737.849 356.968 OFFCURVE",
"826.198 416.27 OFFCURVE",
"848.492 540.063 QCURVE SMOOTH",
"865.913 636.556 OFFCURVE",
"814.389 680.317 OFFCURVE",
"743.548 680.317 QCURVE SMOOTH",
"662.841 680.317 OFFCURVE",
"568.722 621.27 OFFCURVE",
"558.175 527.937 QCURVE",
"489.635 527.937 LINE",
"526.214 763.27 OFFCURVE",
"804.048 950.937 OFFCURVE",
"994.929 950.937 QCURVE SMOOTH",
"1213.151 950.937 OFFCURVE",
"1419.27 733.254 OFFCURVE",
"1377.818 494.413 QCURVE SMOOTH",
"1336.881 255.571 OFFCURVE",
"909.262 -21.548 OFFCURVE",
"608.143 -21.548 QCURVE SMOOTH",
"301.214 -21.548 OFFCURVE",
"-20.151 266.246 OFFCURVE",
"37.429 582.532 QCURVE SMOOTH"
);
}
);
width = 1451;
}
);
unicode = 0036;
},
{
glyphname = seven;
layers = (
{
layerId = "1BFE03A3-C162-48A6-B30A-9589691C03B8";
paths = (
{
closed = 1;
nodes = (
"807.524 999.032 LINE",
"102.659 999.032 LINE",
"156.317 1456 LINE",
"1463.151 1456 LINE",
"1413.198 997.476 LINE",
"721.206 0 LINE",
"69.238 0 LINE"
);
}
);
width = 1451;
}
);
unicode = 0037;
},
{
glyphname = eight;
layers = (
{
layerId = "1BFE03A3-C162-48A6-B30A-9589691C03B8";
paths = (
{
closed = 1;
nodes = (
"22.524 567.254 OFFCURVE",
"241.103 738.516 OFFCURVE",
"346.508 763.968 QCURVE",
"346.992 767.968 LINE",
"257.817 807.905 OFFCURVE",
"144.516 978.143 OFFCURVE",
"172.746 1120.786 QCURVE SMOOTH",
"204.913 1282.881 OFFCURVE",
"563.73 1477.548 OFFCURVE",
"868.302 1477.548 QCURVE SMOOTH",
"1171.071 1477.548 OFFCURVE",
"1452.222 1259.19 OFFCURVE",
"1425.897 1087.413 QCURVE SMOOTH",
"1407.381 959.619 OFFCURVE",
"1255.024 804.198 OFFCURVE",
"1143.135 765.548 QCURVE",
"1142.651 761.548 LINE",
"1239.024 731.738 OFFCURVE",
"1370.381 560.278 OFFCURVE",
"1339.056 393.278 QCURVE SMOOTH",
"1306.119 212.127 OFFCURVE",
"921.778 -21.548 OFFCURVE",
"602.238 -21.548 QCURVE SMOOTH",
"276.056 -21.548 OFFCURVE",
"-22.579 223.262 OFFCURVE",
"2.683 416.841 QCURVE SMOOTH"
);
},
{
closed = 1;
nodes = (
"529.492 400.246 OFFCURVE",
"587.69 348.905 OFFCURVE",
"650.857 348.905 QCURVE SMOOTH",
"714.024 348.905 OFFCURVE",
"800.825 395.603 OFFCURVE",
"814.667 484.579 QCURVE SMOOTH",
"827.992 572.429 OFFCURVE",
"774.984 612.548 OFFCURVE",
"706.659 612.548 QCURVE SMOOTH",
"642.976 612.548 OFFCURVE",
"558.722 573.46 OFFCURVE",
"544.365 487.159 QCURVE SMOOTH"
);
},
{
closed = 1;
nodes = (
"648.738 916.254 OFFCURVE",
"692.976 881.135 OFFCURVE",
"755.659 881.135 QCURVE SMOOTH",
"817.857 881.135 OFFCURVE",
"896.468 915.738 OFFCURVE",
"907.373 988.516 QCURVE SMOOTH",
"919.246 1066.587 OFFCURVE",
"861.595 1098.095 OFFCURVE",
"808.167 1098.095 QCURVE SMOOTH",
"748.579 1098.095 OFFCURVE",
"671 1063.492 OFFCURVE",
"659.643 988.516 QCURVE SMOOTH"
);
}
);
width = 1451;
}
);
unicode = 0038;
},
{
glyphname = nine;
layers = (
{
layerId = "1BFE03A3-C162-48A6-B30A-9589691C03B8";
paths = (
{
closed = 1;
nodes = (
"118.921 1188.452 OFFCURVE",
"550.897 1476 OFFCURVE",
"856.857 1476 QCURVE SMOOTH",
"1165.238 1476 OFFCURVE",
"1488.056 1188.206 OFFCURVE",
"1430.476 871.921 QCURVE SMOOTH",
"1419.667 810.452 LINE SMOOTH",
"1351.214 429.833 OFFCURVE",
"734.889 -21.548 OFFCURVE",
"165.222 -21.548 QCURVE SMOOTH",
"75.183 -21.548 LINE",
"125.937 398.452 LINE",
"169.349 398.452 LINE SMOOTH",
"487.96 398.452 OFFCURVE",
"840.794 562.31 OFFCURVE",
"897.508 906.452 QCURVE SMOOTH",
"912.127 990.357 LINE SMOOTH",
"920.286 1044.952 OFFCURVE",
"861.762 1092.643 OFFCURVE",
"795.468 1092.643 QCURVE SMOOTH",
"723.5 1092.643 OFFCURVE",
"638.119 1051.333 OFFCURVE",
"616.278 928.833 QCURVE SMOOTH",
"598.857 831.31 OFFCURVE",
"652.96 774.135 OFFCURVE",
"718.675 774.135 QCURVE SMOOTH",
"794.706 774.135 OFFCURVE",
"884.214 826.476 OFFCURVE",
"902.5 926.516 QCURVE",
"961.238 926.516 LINE",
"925.175 691.183 OFFCURVE",
"637.024 503.516 OFFCURVE",
"466.778 503.516 QCURVE SMOOTH",
"248.556 503.516 OFFCURVE",
"39.627 707.159 OFFCURVE",
"80.048 952.706 QCURVE SMOOTH"
);
}
);
width = 1451;
}
);
unicode = 0039;
},
{
glyphname = colon;
layers = (
{
layerId = "1BFE03A3-C162-48A6-B30A-9589691C03B8";
paths = (
{
closed = 1;
nodes = (
"-28.024 311.238 OFFCURVE",
"103.095 440.683 OFFCURVE",
"221.119 440.683 QCURVE SMOOTH",
"339.627 440.683 OFFCURVE",
"466.198 311.238 OFFCURVE",
"465.198 214.405 QCURVE SMOOTH",
"465.198 114.54 OFFCURVE",
"333.595 -14.421 OFFCURVE",
"215.571 -14.421 QCURVE SMOOTH",
"97.579 -14.421 OFFCURVE",
"-29.024 119.056 OFFCURVE",
"-28.024 215.373 QCURVE SMOOTH"
);
},
{
closed = 1;
nodes = (
"94.556 864.46 OFFCURVE",
"232.095 994.905 OFFCURVE",
"350.119 994.905 QCURVE SMOOTH",
"465.27 994.905 OFFCURVE",
"587.778 864.46 OFFCURVE",
"585.714 768.111 QCURVE SMOOTH",
"582.651 668.246 OFFCURVE",
"449.468 538.802 OFFCURVE",
"330.444 538.802 QCURVE SMOOTH",
"212.937 538.802 OFFCURVE",
"88.429 672.762 OFFCURVE",
"91.492 769.627 QCURVE SMOOTH"
);
}
);
width = 619;
}
);
leftKerningGroup = colon;
rightKerningGroup = colon;
unicode = 003A;
},
{
glyphname = semicolon;
layers = (
{
layerId = "1BFE03A3-C162-48A6-B30A-9589691C03B8";
paths = (
{
closed = 1;
nodes = (
"-89.81 -98.579 OFFCURVE",
"-30.556 20.254 OFFCURVE",
"-16.524 86.929 QCURVE SMOOTH",
"52.698 418.683 LINE",
"486.667 418.683 LINE",
"415.929 90.444 LINE SMOOTH",
"397.865 6.675 OFFCURVE",
"314.714 -153.381 OFFCURVE",
"269.357 -192.833 QCURVE",
"-134.357 -147.548 LINE"
);
},
{
closed = 1;
nodes = (
"84.982 864.46 OFFCURVE",
"217.666 994.905 OFFCURVE",
"336.689 994.905 QCURVE SMOOTH",
"454.713 994.905 OFFCURVE",
"578.204 864.46 OFFCURVE",
"576.005 768.111 QCURVE SMOOTH",
"572.877 668.246 OFFCURVE",
"439.692 538.802 OFFCURVE",
"320.668 538.802 QCURVE SMOOTH",
"203.16 538.802 OFFCURVE",
"78.565 672.762 OFFCURVE",
"81.746 769.627 QCURVE SMOOTH"
);
}
);
width = 614;
}
);
leftKerningGroup = colon;
rightKerningGroup = colon;
unicode = 003B;
},
{
glyphname = less;
layers = (
{
layerId = "1BFE03A3-C162-48A6-B30A-9589691C03B8";
paths = (
{
closed = 1;
nodes = (
"18.175 476.278 LINE",
"64.476 871.722 LINE",
"821.921 1267.032 LINE",
"771.944 829.23 LINE",
"401.167 670.611 LINE",
"697.952 515.214 LINE",
"647.913 87.095 LINE"
);
}
);
width = 770;
}
);
unicode = 003C;
},
{
glyphname = equal;
layers = (
{
layerId = "1BFE03A3-C162-48A6-B30A-9589691C03B8";
paths = (
{
closed = 1;
nodes = (
"25.825 649.19 LINE",
"862.548 649.19 LINE",
"832.548 233.746 LINE",
"-4.175 233.746 LINE"
);
},
{
closed = 1;
nodes = (
"95.825 1142.405 LINE",
"932.548 1142.405 LINE",
"902.548 726.96 LINE",
"65.825 726.96 LINE"
);
}
);
width = 924;
}
);
unicode = 003D;
},
{
glyphname = greater;
layers = (
{
layerId = "1BFE03A3-C162-48A6-B30A-9589691C03B8";
paths = (
{
closed = 1;
nodes = (
"48 495 LINE",
"419 653 LINE",
"122 809 LINE",
"172 1237 LINE",
"802 848 LINE",
"756 452 LINE",
"-2 57 LINE"
);
}
);
width = 770;
}
);
unicode = 003E;
},
{
glyphname = question;
layers = (
{
layerId = "1BFE03A3-C162-48A6-B30A-9589691C03B8";
paths = (
{
closed = 1;
nodes = (
"212.302 322.881 OFFCURVE",
"361 462.905 OFFCURVE",
"493.119 462.905 QCURVE SMOOTH",
"625.786 462.905 OFFCURVE",
"760.452 322.881 OFFCURVE",
"755.452 224.016 QCURVE SMOOTH",
"749.968 125.119 OFFCURVE",
"602.27 -14.905 OFFCURVE",
"470.119 -14.905 QCURVE SMOOTH",
"340 -14.905 OFFCURVE",
"202.817 126.119 OFFCURVE",
"207.817 224.016 QCURVE SMOOTH"
);
},
{
closed = 1;
nodes = (
"75.452 1071.841 LINE SMOOTH",
"104.611 1256.762 OFFCURVE",
"454.175 1480.968 OFFCURVE",
"736.976 1480.968 QCURVE SMOOTH",
"1058.127 1480.968 OFFCURVE",
"1305.738 1300.095 OFFCURVE",
"1287.381 1134.706 QCURVE SMOOTH",
"1270.508 980.222 OFFCURVE",
"1124.913 823.651 OFFCURVE",
"987.643 760.516 QCURVE SMOOTH",
"836.96 693.254 OFFCURVE",
"751.651 616.032 OFFCURVE",
"744.746 570.349 QCURVE SMOOTH",
"734.516 495.159 LINE",
"266.944 495.159 LINE",
"280.238 598.825 LINE SMOOTH",
"292.175 695.214 OFFCURVE",
"430.278 861.976 OFFCURVE",
"570.992 919.5 QCURVE SMOOTH",
"705.976 981.19 OFFCURVE",
"735.357 1009.833 OFFCURVE",
"744.651 1067.238 QCURVE SMOOTH",
"751.556 1110.278 OFFCURVE",
"728.794 1137.73 OFFCURVE",
"655.405 1137.73 QCURVE SMOOTH",
"586.238 1137.73 OFFCURVE",
"536.548 1086.318 OFFCURVE",
"528.032 1042.222 QCURVE SMOOTH",
"514.317 971.008 LINE",
"59.706 971.008 LINE"
);
}
);
width = 1221;
}
);
unicode = 003F;
},
{
glyphname = at;
layers = (
{
layerId = "1BFE03A3-C162-48A6-B30A-9589691C03B8";
paths = (
{
closed = 1;
nodes = (
"466.04 744.73 OFFCURVE",
"798.159 1076.206 OFFCURVE",
"1004.524 1076.206 QCURVE SMOOTH",
"1091.159 1076.206 OFFCURVE",
"1198.889 1016.889 OFFCURVE",
"1223.889 980.857 QCURVE",
"1481.54 980.857 LINE",
"1316.341 428.913 LINE SMOOTH",
"1301.278 375.103 OFFCURVE",
"1297.794 339.905 OFFCURVE",
"1320.921 339.389 QCURVE SMOOTH",
"1365.524 338.357 OFFCURVE",
"1457.556 443.714 OFFCURVE",
"1497.071 603.357 QCURVE SMOOTH",
"1563.468 900.96 OFFCURVE",
"1328.437 1181.738 OFFCURVE",
"1064.429 1181.738 QCURVE SMOOTH",
"778.524 1181.738 OFFCURVE",
"396.968 813.103 OFFCURVE",
"347.516 499.325 QCURVE SMOOTH",
"304.643 226.087 OFFCURVE",
"471.881 -54.976 OFFCURVE",
"682.373 -54.976 QCURVE SMOOTH",
"790.683 -54.976 OFFCURVE",
"946.373 -16.27 OFFCURVE",
"1002.27 14.857 QCURVE",
"985.889 -274.984 LINE",
"927.929 -316.016 OFFCURVE",
"774.302 -354.016 OFFCURVE",
"648.563 -354.016 QCURVE SMOOTH",
"287.929 -354.016 OFFCURVE",
"-48.524 101.968 OFFCURVE",
"21.603 534.071 QCURVE SMOOTH",
"83.984 915.341 OFFCURVE",
"647.667 1490.841 OFFCURVE",
"1084.651 1490.841 QCURVE SMOOTH",
"1467.96 1490.841 OFFCURVE",
"1861.54 1049.23 OFFCURVE",
"1800.056 684.222 QCURVE SMOOTH",
"1752.929 405.357 OFFCURVE",
"1468.897 72.135 OFFCURVE",
"1240.73 72.135 QCURVE SMOOTH",
"1104.714 72.135 OFFCURVE",
"970.405 155.325 OFFCURVE",
"943.667 238.579 QCURVE",
"892.381 157.873 OFFCURVE",
"749.333 72.651 OFFCURVE",
"666.302 72.651 QCURVE SMOOTH",
"528.135 72.651 OFFCURVE",
"389.397 264.833 OFFCURVE",
"425.365 491.389 QCURVE SMOOTH"
);
},
{
closed = 1;
nodes = (
"829.23 400.794 OFFCURVE",
"836.516 363.857 OFFCURVE",
"857.095 363.857 QCURVE SMOOTH",
"879.77 363.857 OFFCURVE",
"915.73 404.73 OFFCURVE",
"940.016 461.96 QCURVE SMOOTH",
"1056.873 798.643 LINE",
"1052.198 808.643 OFFCURVE",
"1032.913 819.063 OFFCURVE",
"1020.333 819.063 QCURVE SMOOTH",
"984.889 819.063 OFFCURVE",
"909.69 695.19 OFFCURVE",
"849.683 473.96 QCURVE SMOOTH"
);
}
);
width = 1833;
}
);
unicode = 0040;
},
{
glyphname = A;
layers = (
{
layerId = "1BFE03A3-C162-48A6-B30A-9589691C03B8";
paths = (
{
closed = 1;
nodes = (
"600.222 1455.968 LINE",
"1228.619 1455 LINE",
"1435.516 -0.968 LINE",
"862.476 0 LINE",
"792.413 647.54 LINE SMOOTH",
"790.738 679.802 OFFCURVE",
"795.81 790.325 OFFCURVE",
"794.778 800.389 QCURVE",
"788.452 800.389 LINE",
"783.389 790.841 OFFCURVE",
"755.643 682.865 OFFCURVE",
"741.968 647.54 QCURVE SMOOTH",
"448.77 0 LINE",
"-135.159 0.968 LINE"
);
},
{
closed = 1;
nodes = (
"469.587 553.54 LINE",
"1048.222 552.571 LINE",
"1093.405 194.127 LINE",
"332.262 195.095 LINE"
);
}
);
width = 1527;
}
);
leftKerningGroup = A_UC;
rightKerningGroup = A_UC;
unicode = 0041;
},
{
glyphname = B;
layers = (
{
layerId = "1BFE03A3-C162-48A6-B30A-9589691C03B8";
paths = (
{
closed = 1;
nodes = (
"200.063 1456.968 LINE",
"1004.214 1456 LINE SMOOTH",
"1213.651 1455.516 OFFCURVE",
"1396.937 1235.508 OFFCURVE",
"1375.032 1074.056 QCURVE SMOOTH",
"1355.611 930.087 OFFCURVE",
"1204.849 793.611 OFFCURVE",
"1128.921 767.484 QCURVE",
"1127.921 764.937 LINE",
"1229.651 748.579 OFFCURVE",
"1358.802 566.579 OFFCURVE",
"1334.476 401.611 QCURVE SMOOTH",
"1305.182 201.286 OFFCURVE",
"981.913 -0.484 OFFCURVE",
"753.405 0 QCURVE SMOOTH",
"-56.937 0.968 LINE"
);
},
{
closed = 1;
nodes = (
"694.603 374.968 LINE SMOOTH",
"736.619 374.968 OFFCURVE",
"779.992 411.508 OFFCURVE",
"792.413 478.905 QCURVE SMOOTH",
"804.317 544.786 OFFCURVE",
"769.556 583.968 OFFCURVE",
"732.214 583.968 QCURVE SMOOTH",
"565.095 583.968 LINE",
"527.579 373.936 LINE"
);
},
{
closed = 1;
nodes = (
"787.532 857 LINE SMOOTH",
"820.103 857 OFFCURVE",
"859.833 893.992 OFFCURVE",
"871.286 955.611 QCURVE SMOOTH",
"883.19 1023.524 OFFCURVE",
"850.429 1059.548 OFFCURVE",
"817.857 1059.548 QCURVE SMOOTH",
"649.095 1059.548 LINE",
"613.095 855.968 LINE"
);
}
);
width = 1395;
}
);
leftKerningGroup = StraightRight_UC;
unicode = 0042;
},
{
glyphname = C;
layers = (
{
layerId = "1BFE03A3-C162-48A6-B30A-9589691C03B8";
paths = (
{
closed = 1;
nodes = (
"36.349 798.056 LINE SMOOTH",
"94.444 1148.135 OFFCURVE",
"557.849 1479.063 OFFCURVE",
"902.873 1478.063 QCURVE SMOOTH",
"1238.413 1477.063 OFFCURVE",
"1545.23 1191.556 OFFCURVE",
"1518.77 914.444 QCURVE SMOOTH",
"1498.373 773.984 LINE",
"979.587 774.952 LINE",
"1004.762 937.405 LINE SMOOTH",
"1006.214 1005.96 OFFCURVE",
"932.087 1065.968 OFFCURVE",
"841 1065.968 QCURVE SMOOTH",
"740.111 1065.968 OFFCURVE",
"623.841 989.063 OFFCURVE",
"606.881 897.167 QCURVE SMOOTH",
"551.563 583.754 LINE SMOOTH",
"528.476 462.127 OFFCURVE",
"626.46 368.746 OFFCURVE",
"723.127 368.746 QCURVE SMOOTH",
"822.825 368.746 OFFCURVE",
"934.063 426.952 OFFCURVE",
"944.833 499.373 QCURVE SMOOTH",
"973.167 666.206 LINE",
"1486.762 665.238 LINE",
"1470.595 556.635 LINE SMOOTH",
"1432.913 266.548 OFFCURVE",
"999.976 -22.063 OFFCURVE",
"661.024 -21.579 QCURVE SMOOTH",
"311.333 -21.095 OFFCURVE",
"-46.079 312.143 OFFCURVE",
"13.952 669.937 QCURVE SMOOTH"
);
}
);
width = 1518;
}
);
leftKerningGroup = CG_UC;
rightKerningGroup = C_UC;
unicode = 0043;
},
{
glyphname = D;
layers = (
{
layerId = "1BFE03A3-C162-48A6-B30A-9589691C03B8";
paths = (
{
closed = 1;
nodes = (
"202.516 1456.968 LINE",
"947.333 1456 LINE SMOOTH",
"1257.579 1455.516 OFFCURVE",
"1525.071 1081.651 OFFCURVE",
"1488.841 793.508 QCURVE SMOOTH",
"1466.992 664.484 LINE SMOOTH",
"1423.889 329.365 OFFCURVE",
"1015.429 -0.484 OFFCURVE",
"709.373 0 QCURVE SMOOTH",
"-54.484 0.968 LINE"
);
},
{
closed = 1;
nodes = (
"690.968 388.254 LINE SMOOTH",
"771.675 388.254 OFFCURVE",
"871.627 458.159 OFFCURVE",
"890.071 571.5 QCURVE SMOOTH",
"944.389 881.46 LINE SMOOTH",
"959.286 974.484 OFFCURVE",
"869.071 1044.357 OFFCURVE",
"788.27 1044.357 QCURVE SMOOTH",
"664.484 1044.357 LINE",
"544.937 388.254 LINE"
);
}
);
width = 1504;
}
);
leftKerningGroup = StraightRight_UC;
rightKerningGroup = D_UC;
unicode = 0044;
},
{
glyphname = E;
layers = (
{
layerId = "1BFE03A3-C162-48A6-B30A-9589691C03B8";
paths = (
{
closed = 1;
nodes = (
"202 1456.968 LINE",
"1344.984 1455.032 LINE",
"1270.206 997.286 LINE",
"653.968 998.254 LINE",
"643.294 949.071 LINE",
"1217.349 948.103 LINE",
"1138.476 500.675 LINE",
"563.389 501.643 LINE",
"552.714 447.429 LINE",
"1183.016 446.46 LINE",
"1104.111 -0.968 LINE",
"-55 0.968 LINE"
);
}
);
width = 1295;
}
);
leftKerningGroup = StraightRight_UC;
rightKerningGroup = E_UC;
unicode = 0045;
},
{
glyphname = F;
layers = (
{
layerId = "1BFE03A3-C162-48A6-B30A-9589691C03B8";
paths = (
{
closed = 1;
nodes = (
"202 1456.484 LINE",
"1267.659 1455.516 LINE",
"1188.754 998.77 LINE",
"673.968 998.77 LINE",
"659.294 927.008 LINE",
"1145.762 927.008 LINE",
"1066.857 475.936 LINE",
"581.421 475.936 LINE",
"497.936 -0.484 LINE",
"-55 0.484 LINE"
);
}
);
width = 1149;
}
);
leftKerningGroup = StraightRight_UC;
unicode = 0046;
},
{
glyphname = G;
layers = (
{
layerId = "1BFE03A3-C162-48A6-B30A-9589691C03B8";
paths = (
{
closed = 1;
nodes = (
"34.286 792.897 LINE",
"93.286 1152.111 OFFCURVE",
"589.746 1482.389 OFFCURVE",
"937.254 1481.905 QCURVE SMOOTH",
"1269.73 1481.421 OFFCURVE",
"1544.524 1226.738 OFFCURVE",
"1540.119 972.198 QCURVE",
"1532.952 903.73 LINE",
"1009.127 904.698 LINE",
"1022.651 992.675 LINE",
"1021.524 1031.857 OFFCURVE",
"947.27 1067.167 OFFCURVE",
"876.429 1067.167 QCURVE SMOOTH",
"777.603 1067.167 OFFCURVE",
"636.444 983.524 OFFCURVE",
"611.778 891.659 QCURVE",
"552.587 557.524 LINE",
"527.921 454.436 OFFCURVE",
"609.429 360.929 OFFCURVE",
"732.214 360.929 QCURVE SMOOTH",
"809.571 360.929 OFFCURVE",
"907.429 383.889 OFFCURVE",
"942.381 411.627 QCURVE",
"955.095 494.841 LINE",
"735.127 493.81 LINE",
"791.421 852.389 LINE",
"1537.341 853.421 LINE",
"1428.532 223.929 LINE",
"1337.905 136 OFFCURVE",
"975.532 -25.389 OFFCURVE",
"666.611 -24.905 QCURVE SMOOTH",
"330.365 -24.421 OFFCURVE",
"-45.595 306.373 OFFCURVE",
"13.405 675.841 QCURVE"
);
}
);
width = 1546;
}
);
leftKerningGroup = CG_UC;
rightKerningGroup = G_UC;
unicode = 0047;
},
{
glyphname = H;
layers = (
{
layerId = "1BFE03A3-C162-48A6-B30A-9589691C03B8";
paths = (
{
closed = 1;
nodes = (
"200.063 1456 LINE",
"737.905 1456 LINE",
"657.905 1002 LINE",
"915.175 1002 LINE",
"995.175 1456 LINE",
"1532.532 1456 LINE",
"1275.532 0 LINE",
"737.69 0 LINE",
"826.69 503.484 LINE",
"569.421 503.484 LINE",
"480.421 0 LINE",
"-56.937 0 LINE"
);
}
);
width = 1476;
}
);
leftKerningGroup = StraightRight_UC;
rightKerningGroup = LeftStraight_UC;
unicode = 0048;
},
{
glyphname = I;
layers = (
{
layerId = "1BFE03A3-C162-48A6-B30A-9589691C03B8";
paths = (
{
closed = 1;
nodes = (
"201 1456 LINE",
"752.746 1456 LINE",
"495.746 0 LINE",
"-55 0 LINE"
);
}
);
width = 698;
}
);
leftKerningGroup = StraightRight_UC;
rightKerningGroup = LeftStraight_UC;
unicode = 0049;
},
{
glyphname = J;
layers = (
{
layerId = "1BFE03A3-C162-48A6-B30A-9589691C03B8";
paths = (
{
closed = 1;
nodes = (
"1.476 656.667 LINE",
"469.754 656.667 LINE",
"445.746 494.762 LINE SMOOTH",
"438.103 417.468 OFFCURVE",
"488.111 363.873 OFFCURVE",
"537.413 363.873 QCURVE SMOOTH",
"585.714 363.873 OFFCURVE",
"654.683 411.468 OFFCURVE",
"669.548 497.532 QCURVE SMOOTH",
"835.913 1456 LINE",
"1380.5 1456 LINE",
"1219.206 528.151 LINE SMOOTH",
"1169.722 241.119 OFFCURVE",
"829.77 -24 OFFCURVE",
"502.817 -24 QCURVE SMOOTH",
"210.96 -24 OFFCURVE",
"-66.429 235.127 OFFCURVE",
"-24.849 495.786 QCURVE SMOOTH"
);
}
);
width = 1310;
}
);
leftKerningGroup = J_UC;
rightKerningGroup = JU_UC;
unicode = 004A;
},
{
glyphname = K;
layers = (
{
layerId = "1BFE03A3-C162-48A6-B30A-9589691C03B8";
paths = (
{
closed = 1;
nodes = (
"200.063 1456 LINE",
"737.905 1456 LINE",
"666.944 1050.69 LINE",
"1074.643 1456 LINE",
"1676.857 1456 LINE",
"538.317 347.651 LINE",
"481.873 0 LINE",
"-56.937 0 LINE"
);
},
{
closed = 1;
nodes = (
"564.81 619.024 LINE",
"994.929 1065.389 LINE",
"1449.619 0 LINE",
"840.444 0 LINE"
);
}
);
width = 1506;
}
);
leftKerningGroup = StraightRight_UC;
rightKerningGroup = K_UC;
unicode = 004B;
},
{
glyphname = L;
layers = (
{
layerId = "1BFE03A3-C162-48A6-B30A-9589691C03B8";
paths = (
{
closed = 1;
nodes = (
"200.548 1456 LINE",
"751.389 1456 LINE",
"567.968 426.127 LINE",
"1105.182 426.127 LINE",
"1030.056 0 LINE",
"-56.937 0 LINE"
);
}
);
width = 1144;
}
);
leftKerningGroup = StraightRight_UC;
rightKerningGroup = L_UC;
unicode = 004C;
},
{
glyphname = M;
layers = (
{
layerId = "1BFE03A3-C162-48A6-B30A-9589691C03B8";
paths = (
{
closed = 1;
nodes = (
"245.571 1456 LINE",
"838.643 1456 LINE",
"1015.73 846.111 LINE SMOOTH",
"1020.405 829.532 OFFCURVE",
"1046.778 764.579 OFFCURVE",
"1049.905 753.937 QCURVE",
"1050.389 753.937 LINE",
"1055.516 764.611 OFFCURVE",
"1096.532 834.079 OFFCURVE",
"1102.659 846.111 QCURVE SMOOTH",
"1416.619 1456 LINE",
"2080.476 1456 LINE",
"1856.397 0 LINE",
"1340.071 0 LINE",
"1436.421 584.762 LINE SMOOTH",
"1438.452 597.952 OFFCURVE",
"1456.944 723.04 OFFCURVE",
"1459.944 739.556 QCURVE",
"1458.492 739.556 LINE",
"1450.365 723.556 OFFCURVE",
"1415.389 596.889 OFFCURVE",
"1409.746 586.794 QCURVE SMOOTH",
"1111.159 0 LINE",
"719.056 0 LINE",
"592.452 584.96 LINE SMOOTH",
"588.294 597.603 OFFCURVE",
"598.143 722.302 OFFCURVE",
"597.079 730.429 QCURVE",
"596.079 730.429 LINE",
"595.079 719.722 OFFCURVE",
"568.389 593.444 OFFCURVE",
"566.389 583.929 QCURVE SMOOTH",
"458.611 0 LINE",
"-59.841 0 LINE"
);
}
);
width = 2059;
}
);
leftKerningGroup = StraightRight_UC;
rightKerningGroup = LeftStraight_UC;
unicode = 004D;
},
{
glyphname = N;
layers = (
{
layerId = "1BFE03A3-C162-48A6-B30A-9589691C03B8";
paths = (
{
closed = 1;
nodes = (
"200.063 1456 LINE",
"696.087 1456 LINE",
"857.563 988.921 LINE SMOOTH",
"862.175 972.437 OFFCURVE",
"875.397 902.81 OFFCURVE",
"877.976 884.611 QCURVE",
"878.46 884.611 LINE",
"881.944 903.389 OFFCURVE",
"895.238 970.373 OFFCURVE",
"898.754 990.468 QCURVE SMOOTH",
"980.738 1456 LINE",
"1504.841 1456 LINE",
"1247.841 0 LINE",
"770.849 0 LINE",
"596.571 471.976 LINE SMOOTH",
"594.024 482.913 OFFCURVE",
"578.349 558.413 OFFCURVE",
"575.802 575.19 QCURVE",
"572.897 575.19 LINE",
"570.413 559.381 OFFCURVE",
"559.698 499.421 OFFCURVE",
"558.214 489.516 QCURVE SMOOTH",
"473.714 0 LINE",
"-56.937 0 LINE"
);
}
);
width = 1448;
}
);
leftKerningGroup = StraightRight_UC;
rightKerningGroup = LeftStraight_UC;
unicode = 004E;
},
{
glyphname = O;
layers = (
{
layerId = "1BFE03A3-C162-48A6-B30A-9589691C03B8";
paths = (
{
closed = 1;
nodes = (
"35.833 820.183 LINE SMOOTH",
"95.444 1166.714 OFFCURVE",
"576.23 1479 OFFCURVE",
"919.571 1478 QCURVE SMOOTH",
"1268.27 1477 OFFCURVE",
"1630.833 1119.865 OFFCURVE",
"1569.643 779.008 QCURVE SMOOTH",
"1548.762 661.016 LINE SMOOTH",
"1485.024 306.294 OFFCURVE",
"1004.365 -24.063 OFFCURVE",
"658.119 -23.063 QCURVE SMOOTH",
"315.23 -22.063 OFFCURVE",
"-45.175 351.595 OFFCURVE",
"14.952 702.159 QCURVE SMOOTH"
);
},
{
closed = 1;
nodes = (
"527.73 465.317 OFFCURVE",
"622.071 371.841 OFFCURVE",
"728.087 369.262 QCURVE SMOOTH",
"832.04 366.683 OFFCURVE",
"960.754 465.286 OFFCURVE",
"981.294 571.921 QCURVE SMOOTH",
"1037.095 886.27 LINE SMOOTH",
"1056.087 982.81 OFFCURVE",
"956.556 1071.063 OFFCURVE",
"851.603 1073.643 QCURVE SMOOTH",
"744.587 1076.222 OFFCURVE",
"617.357 984.357 OFFCURVE",
"601.46 887.817 QCURVE SMOOTH",
"546.175 574.5 LINE SMOOTH"
);
}
);
width = 1586;
}
);
leftKerningGroup = CG_UC;
rightKerningGroup = D_UC;
unicode = 004F;
},
{
glyphname = P;
layers = (
{
layerId = "1BFE03A3-C162-48A6-B30A-9589691C03B8";
paths = (
{
closed = 1;
nodes = (
"200.063 1456 LINE",
"962.27 1456 LINE SMOOTH",
"1240.032 1456 OFFCURVE",
"1488.405 1138.595 OFFCURVE",
"1445.659 864.556 QCURVE SMOOTH",
"1402.913 590 OFFCURVE",
"1105.794 293.524 OFFCURVE",
"840.952 293.524 QCURVE SMOOTH",
"533.294 293.524 LINE",
"481.873 0 LINE",
"-56.937 0 LINE"
);
},
{
closed = 1;
nodes = (
"770.54 675.556 LINE SMOOTH",
"835.706 675.556 OFFCURVE",
"896.325 741.278 OFFCURVE",
"915.587 863.968 QCURVE SMOOTH",
"933.365 977.079 OFFCURVE",
"887.968 1038.937 OFFCURVE",
"827.413 1038.937 QCURVE SMOOTH",
"665.357 1038.937 LINE",
"601.294 675.556 LINE"
);
}
);
width = 1458;
}
);
leftKerningGroup = StraightRight_UC;
unicode = 0050;
},
{
glyphname = Q;
layers = (
{
layerId = "1BFE03A3-C162-48A6-B30A-9589691C03B8";
paths = (
{
closed = 1;
nodes = (
"36.317 824.056 LINE SMOOTH",
"94.865 1165.111 OFFCURVE",
"573.651 1481.873 OFFCURVE",
"919.571 1481.873 QCURVE SMOOTH",
"1287.873 1481.873 OFFCURVE",
"1632.286 1130.516 OFFCURVE",
"1569.643 784.817 QCURVE SMOOTH",
"1547.31 660.048 LINE SMOOTH",
"1485.698 316.992 OFFCURVE",
"999.206 -17.127 OFFCURVE",
"658.119 -16.611 QCURVE SMOOTH",
"315.23 -16.095 OFFCURVE",
"-46.627 343.849 OFFCURVE",
"13.984 699.254 QCURVE SMOOTH"
);
},
{
closed = 1;
nodes = (
"527.73 469.19 OFFCURVE",
"622.071 373.135 OFFCURVE",
"728.087 370.556 QCURVE SMOOTH",
"832.04 367.976 OFFCURVE",
"959.238 466.064 OFFCURVE",
"981.294 575.794 QCURVE SMOOTH",
"1037.095 890.143 LINE SMOOTH",
"1055.603 986.683 OFFCURVE",
"956.556 1074.937 OFFCURVE",
"851.603 1077.516 QCURVE SMOOTH",
"744.587 1080.095 OFFCURVE",
"616.873 988.23 OFFCURVE",
"601.46 891.69 QCURVE SMOOTH",
"546.175 578.373 LINE SMOOTH"
);
},
{
closed = 1;
nodes = (
"699.778 93.04 LINE",
"1006.198 408.794 LINE",
"1403.365 98.627 LINE",
"1092.944 -218.675 LINE"
);
}
);
width = 1587;
}
);
leftKerningGroup = CG_UC;
unicode = 0051;
},
{
glyphname = R;
layers = (
{
layerId = "1BFE03A3-C162-48A6-B30A-9589691C03B8";
paths = (
{
closed = 1;
nodes = (
"200.063 1456 LINE",
"1037.5 1456 LINE SMOOTH",
"1289.786 1456 OFFCURVE",
"1504.31 1180.786 OFFCURVE",
"1462.048 927.548 QCURVE SMOOTH",
"1419.818 668.794 OFFCURVE",
"1106.611 413 OFFCURVE",
"936.429 413 QCURVE SMOOTH",
"554.389 413 LINE",
"481.389 0 LINE",
"-56.937 0 LINE"
);
},
{
closed = 1;
nodes = (
"794.627 776 LINE SMOOTH",
"852.151 776 OFFCURVE",
"912.222 823.373 OFFCURVE",
"926.548 910 QCURVE SMOOTH",
"941.389 997.365 OFFCURVE",
"900.667 1052 OFFCURVE",
"845.754 1052 QCURVE SMOOTH",
"666.905 1052 LINE",
"618.905 776 LINE"
);
},
{
closed = 1;
nodes = (
"682.016 647.635 LINE",
"1189.754 647.635 LINE",
"1395.992 0 LINE",
"836.563 0 LINE"
);
}
);
width = 1518;
}
);
leftKerningGroup = StraightRight_UC;
rightKerningGroup = R_UC;
unicode = 0052;
},
{
glyphname = S;
layers = (
{
layerId = "1BFE03A3-C162-48A6-B30A-9589691C03B8";
paths = (
{
closed = 1;
nodes = (
"-32.294 492.619 LINE",
"486.841 492.619 LINE",
"479.222 420.857 LINE SMOOTH",
"480.865 385.381 OFFCURVE",
"541.325 355.936 OFFCURVE",
"652.341 355.936 QCURVE SMOOTH",
"763.389 355.936 OFFCURVE",
"821.532 382 OFFCURVE",
"825.5 413.643 QCURVE SMOOTH",
"831.405 455.389 OFFCURVE",
"768.452 506.817 OFFCURVE",
"547.929 557.405 QCURVE SMOOTH",
"287.913 625.516 OFFCURVE",
"66.532 853.77 OFFCURVE",
"99.984 1076.079 QCURVE SMOOTH",
"131.984 1291.127 OFFCURVE",
"499.246 1479.095 OFFCURVE",
"816.048 1479.095 QCURVE SMOOTH",
"1135.429 1479.095 OFFCURVE",
"1428.151 1269.897 OFFCURVE",
"1418.333 1063.524 QCURVE SMOOTH",
"1413.103 992.778 LINE",
"925.905 992.778 LINE",
"929.167 1032.69 LINE SMOOTH",
"927.04 1055.103 OFFCURVE",
"883.992 1085.095 OFFCURVE",
"778.556 1085.095 QCURVE SMOOTH",
"686.563 1085.095 OFFCURVE",
"626.683 1071.643 OFFCURVE",
"623.167 1049.484 QCURVE SMOOTH",
"619.167 1025.357 OFFCURVE",
"668.317 996.579 OFFCURVE",
"915.802 937.317 QCURVE SMOOTH",
"1152.302 875.341 OFFCURVE",
"1374.167 646.04 OFFCURVE",
"1342.937 419.341 QCURVE SMOOTH",
"1312.19 198.127 OFFCURVE",
"946.754 -20.579 OFFCURVE",
"608.246 -21.063 QCURVE SMOOTH",
"270.286 -21.548 OFFCURVE",
"-45.571 197.294 OFFCURVE",
"-39.397 405.476 QCURVE SMOOTH"
);
}
);
width = 1420;
}
);
leftKerningGroup = S_UC;
rightKerningGroup = S_UC;
unicode = 0053;
},
{
glyphname = T;
layers = (
{
layerId = "1BFE03A3-C162-48A6-B30A-9589691C03B8";
paths = (
{
closed = 1;
nodes = (
"135.095 1456 LINE",
"1436.365 1456 LINE",
"1356.429 997.738 LINE",
"982.135 997.738 LINE",
"808.167 0 LINE",
"259.357 0 LINE",
"433.325 997.738 LINE",
"55.159 997.738 LINE"
);
}
);
width = 1322;
}
);
leftKerningGroup = T_UC;
rightKerningGroup = T_UC;
unicode = 0054;
},
{
glyphname = U;
layers = (
{
layerId = "1BFE03A3-C162-48A6-B30A-9589691C03B8";
paths = (
{
closed = 1;
nodes = (
"201.548 1456 LINE",
"737.389 1456 LINE",
"573.54 535.437 LINE SMOOTH",
"558.738 453.175 OFFCURVE",
"622.286 379.103 OFFCURVE",
"698.381 379.103 QCURVE SMOOTH",
"768.317 379.103 OFFCURVE",
"866.627 454.111 OFFCURVE",
"881.46 538.532 QCURVE SMOOTH",
"1043.825 1456 LINE",
"1568.96 1456 LINE",
"1410.952 549.698 LINE SMOOTH",
"1360.278 260.167 OFFCURVE",
"984.222 -23.516 OFFCURVE",
"662.54 -23.516 QCURVE SMOOTH",
"333.69 -23.516 OFFCURVE",
"-9.714 257.111 OFFCURVE",
"42.056 549.698 QCURVE SMOOTH"
);
}
);
width = 1502;
}
);
leftKerningGroup = U_UC;
rightKerningGroup = JU_UC;
unicode = 0055;
},
{
glyphname = V;
layers = (
{
layerId = "1BFE03A3-C162-48A6-B30A-9589691C03B8";
paths = (
{
closed = 1;
nodes = (
"624.952 1456 LINE",
"678.119 597.706 LINE SMOOTH",
"678.246 578.381 OFFCURVE",
"675.921 547.373 OFFCURVE",
"675.595 517.175 QCURVE",
"678.5 517.175 LINE",
"687.5 543.794 OFFCURVE",
"699.016 575.802 OFFCURVE",
"707.143 597.706 QCURVE SMOOTH",
"1059.27 1456 LINE",
"1593.944 1456 LINE",
"901.563 -4.643 LINE",
"270.373 -4.643 LINE",
"83.079 1456 LINE"
);
}
);
width = 1433;
}
);
unicode = 0056;
},
{
glyphname = W;
layers = (
{
layerId = "1BFE03A3-C162-48A6-B30A-9589691C03B8";
paths = (
{
closed = 1;
nodes = (
"102.913 1456 LINE",
"648.206 1456 LINE",
"673.77 676.905 LINE SMOOTH",
"673.317 663.032 OFFCURVE",
"674.96 616.421 OFFCURVE",
"674.024 604.032 QCURVE",
"674.992 604.032 LINE",
"679.476 616.421 OFFCURVE",
"699.373 661.516 OFFCURVE",
"704.437 675.905 QCURVE SMOOTH",
"1019.532 1456 LINE",
"1465.333 1456 LINE",
"1487.341 658.817 LINE SMOOTH",
"1487.889 648.238 OFFCURVE",
"1486.048 609.063 OFFCURVE",
"1486.595 603 QCURVE",
"1488.048 603 LINE",
"1490.627 609.063 OFFCURVE",
"1503.627 650.333 OFFCURVE",
"1508.206 660.881 QCURVE SMOOTH",
"1822.214 1456 LINE",
"2334.968 1456 LINE",
"1749.881 0 LINE",
"1175.508 0 LINE",
"1124.524 678.952 LINE SMOOTH",
"1124.492 687.405 OFFCURVE",
"1124.913 711.508 OFFCURVE",
"1125.365 717.992 QCURVE",
"1122.46 717.992 LINE",
"1119.881 710.476 OFFCURVE",
"1113.881 689.405 OFFCURVE",
"1109.333 678.952 QCURVE SMOOTH",
"800.69 0 LINE",
"229.897 0 LINE"
);
}
);
width = 2184;
}
);
leftKerningGroup = W_UC;
rightKerningGroup = W_UC;
unicode = 0057;
},
{
glyphname = X;
layers = (
{
layerId = "1BFE03A3-C162-48A6-B30A-9589691C03B8";
paths = (
{
closed = 1;
nodes = (
"572.563 918.889 LINE",
"663.079 918.889 LINE",
"1060.357 1456 LINE",
"1587.833 1456 LINE",
"884.952 543.437 LINE",
"795.5 543.437 LINE",
"390.294 0 LINE",
"-147.929 0 LINE"
);
},
{
closed = 1;
nodes = (
"712.952 1456 LINE",
"918.476 916.548 LINE",
"947.04 917.516 LINE",
"1325.77 -0.484 LINE",
"744.722 -0.484 LINE",
"522.952 579.579 LINE",
"494.389 580.095 LINE",
"127.063 1456 LINE"
);
}
);
width = 1439;
}
);
unicode = 0058;
},
{
glyphname = Y;
layers = (
{
layerId = "1BFE03A3-C162-48A6-B30A-9589691C03B8";
paths = (
{
closed = 1;
nodes = (
"391.484 477.952 LINE",
"86.984 1456 LINE",
"623.468 1456 LINE",
"734.294 952.754 LINE SMOOTH",
"735.389 939.397 OFFCURVE",
"740.032 917.04 OFFCURVE",
"742.127 908.492 QCURVE",
"743.095 908.492 LINE",
"748.222 917.556 OFFCURVE",
"760.865 939.881 OFFCURVE",
"766.444 952.27 QCURVE SMOOTH",
"1050.802 1456 LINE",
"1589.476 1456 LINE",
"945.651 477.952 LINE",
"861.492 0 LINE",
"307.325 0 LINE"
);
}
);
width = 1417;
}
);
leftKerningGroup = Y_UC;
rightKerningGroup = Y_UC;
unicode = 0059;
},
{
glyphname = Z;
layers = (
{
layerId = "1BFE03A3-C162-48A6-B30A-9589691C03B8";
paths = (
{
closed = 1;
nodes = (
"-64.683 322.254 LINE",
"628.73 990 LINE",
"106.492 990 LINE",
"160.119 1456 LINE",
"1427.706 1456 LINE",
"1386.246 1113.746 LINE",
"719.111 446 LINE",
"1278.468 446 LINE",
"1225.778 0 LINE",
"-104.206 0 LINE"
);
}
);
width = 1354;
}
);
leftKerningGroup = Z_UC;
rightKerningGroup = Z_UC;
unicode = 005A;
},
{
glyphname = bracketleft;
layers = (
{
layerId = "1BFE03A3-C162-48A6-B30A-9589691C03B8";
paths = (
{
closed = 1;
nodes = (
"229.397 1456 LINE",
"885.738 1456 LINE",
"822.262 1121.516 LINE",
"634.802 1121.516 LINE",
"436.627 24.484 LINE",
"632.738 24.484 LINE",
"579.579 -310 LINE",
"-81.603 -310 LINE"
);
}
);
width = 795;
}
);
rightKerningGroup = parens;
unicode = 005B;
},
{
glyphname = backslash;
layers = (
{
layerId = "1BFE03A3-C162-48A6-B30A-9589691C03B8";
paths = (
{
closed = 1;
nodes = (
"570.246 1456 LINE",
"865.175 -99.341 LINE",
"446.317 -99.341 LINE",
"149.873 1456 LINE"
);
}
);
width = 1004;
}
);
unicode = 005C;
},
{
glyphname = bracketright;
layers = (
{
layerId = "1BFE03A3-C162-48A6-B30A-9589691C03B8";
paths = (
{
closed = 1;
nodes = (
"-149.968 -310 LINE",
"-91.333 24.484 LINE",
"110.651 24.484 LINE",
"303.984 1121.516 LINE",
"112.714 1121.516 LINE",
"161.032 1456 LINE",
"822.214 1456 LINE",
"511.214 -310 LINE"
);
}
);
width = 795;
}
);
leftKerningGroup = parens;
unicode = 005D;
},
{
glyphname = asciicircum;
layers = (
{
layerId = "1BFE03A3-C162-48A6-B30A-9589691C03B8";
paths = (
{
closed = 1;
nodes = (
"472.619 1443.897 LINE",
"824.905 1443.897 LINE",
"1032.167 732.103 LINE",
"676.841 732.103 LINE",
"593.921 1068.603 LINE",
"386.96 732.103 LINE",
"5.357 732.103 LINE"
);
}
);
width = 1043;
}
);
unicode = 005E;
},
{
glyphname = underscore;
layers = (
{
layerId = "1BFE03A3-C162-48A6-B30A-9589691C03B8";
paths = (
{
closed = 1;
nodes = (
"-143 -65.802 LINE",
"745.317 -65.802 LINE",
"715.317 -400.802 LINE",
"-173 -400.802 LINE"
);
}
);
width = 888;
}
);
unicode = 005F;
},
{
glyphname = grave;
layers = (
{
layerId = "1BFE03A3-C162-48A6-B30A-9589691C03B8";
paths = (
{
closed = 1;
nodes = (
"136.183 1397.69 LINE",
"618.214 1512.682 LINE",
"762.468 1134.937 LINE",
"327.016 1018.008 LINE"
);
}
);
width = 788;
}
);
unicode = 0060;
},
{
glyphname = a;
layers = (
{
layerId = "1BFE03A3-C162-48A6-B30A-9589691C03B8";
paths = (
{
closed = 1;
nodes = (
"-50.976 419.675 OFFCURVE",
"164.69 568.262 OFFCURVE",
"409.246 566.714 QCURVE SMOOTH",
"666.794 564.135 LINE",
"677.246 623.881 LINE SMOOTH",
"679.794 639.714 OFFCURVE",
"649.484 658.611 OFFCURVE",
"600.635 658.611 QCURVE SMOOTH",
"571.389 658.611 OFFCURVE",
"539.563 637.651 OFFCURVE",
"530.278 622.302 QCURVE SMOOTH",
"522.889 583.421 LINE",
"58.587 586.421 LINE",
"63.524 613.524 LINE SMOOTH",
"91.167 770.135 OFFCURVE",
"413.175 949.095 OFFCURVE",
"693.048 949.095 QCURVE SMOOTH",
"985.556 949.095 OFFCURVE",
"1226.865 774.135 OFFCURVE",
"1191.833 577.333 QCURVE SMOOTH",
"1114.214 140.849 LINE SMOOTH",
"1106.667 98.595 OFFCURVE",
"1110.246 34.77 OFFCURVE",
"1120.921 12 QCURVE",
"1118.921 0 LINE",
"595.206 0 LINE",
"586.563 16.254 OFFCURVE",
"584.5 56.151 OFFCURVE",
"589.079 88.333 QCURVE",
"544.119 48.278 OFFCURVE",
"368.444 -13 OFFCURVE",
"229.54 -13 QCURVE SMOOTH",
"64.5 -13 OFFCURVE",
"-100.944 135.865 OFFCURVE",
"-75.976 280.19 QCURVE SMOOTH"
);
},
{
closed = 1;
nodes = (
"437.675 287.381 OFFCURVE",
"465.889 258.516 OFFCURVE",
"503.81 258.516 QCURVE SMOOTH",
"549.532 258.516 OFFCURVE",
"618.921 287.667 OFFCURVE",
"625.079 323.071 QCURVE",
"634.825 377 LINE",
"511.786 378.548 LINE SMOOTH",
"480.54 379.064 OFFCURVE",
"450.579 360.936 OFFCURVE",
"444.643 325.802 QCURVE SMOOTH"
);
}
);
width = 1266;
}
);
leftKerningGroup = a_LC;
rightKerningGroup = a_LC;
unicode = 0061;
},
{
glyphname = b;
layers = (
{
layerId = "1BFE03A3-C162-48A6-B30A-9589691C03B8";
paths = (
{
closed = 1;
nodes = (
"172.754 1456 LINE",
"694.635 1456 LINE",
"581.183 839.817 LINE",
"618.143 877.325 OFFCURVE",
"792.016 947.222 OFFCURVE",
"939.794 947.222 QCURVE SMOOTH",
"1125.802 947.222 OFFCURVE",
"1302.127 698.563 OFFCURVE",
"1263.19 477.532 QCURVE SMOOTH",
"1256.349 440.357 LINE SMOOTH",
"1214.929 206.841 OFFCURVE",
"930.492 -22.738 OFFCURVE",
"736.032 -22.738 QCURVE SMOOTH",
"620.667 -22.738 OFFCURVE",
"476.238 34.317 OFFCURVE",
"444.532 65.476 QCURVE",
"444.016 65.476 LINE",
"428.825 0 LINE",
"-84.246 0 LINE"
);
},
{
closed = 1;
nodes = (
"513.111 360.095 OFFCURVE",
"578.468 340.167 OFFCURVE",
"622.579 340.167 QCURVE SMOOTH",
"671.881 340.167 OFFCURVE",
"729.437 374.571 OFFCURVE",
"735.595 409.429 QCURVE",
"752.087 503.087 LINE",
"757.698 535.27 OFFCURVE",
"710.944 575.286 OFFCURVE",
"652.841 575.286 QCURVE SMOOTH",
"609.762 575.286 OFFCURVE",
"545.5 553.841 OFFCURVE",
"532.667 540.746 QCURVE",
"504.31 369.159 LINE"
);
}
);
width = 1329;
}
);
leftKerningGroup = bhk_LC;
rightKerningGroup = b_LC;
unicode = 0062;
},
{
glyphname = c;
layers = (
{
layerId = "1BFE03A3-C162-48A6-B30A-9589691C03B8";
paths = (
{
closed = 1;
nodes = (
"-18.238 488.492 LINE SMOOTH",
"21.762 713.976 OFFCURVE",
"402.944 954.738 OFFCURVE",
"704.429 954.738 QCURVE SMOOTH",
"990.984 954.738 OFFCURVE",
"1237.5 720.421 OFFCURVE",
"1222.048 521.968 QCURVE SMOOTH",
"1218.079 482.222 LINE",
"725.056 482.222 LINE",
"731.833 524.659 LINE SMOOTH",
"732.317 544.071 OFFCURVE",
"691.69 574.317 OFFCURVE",
"642.841 574.317 QCURVE SMOOTH",
"584.19 574.317 OFFCURVE",
"518.897 539.944 OFFCURVE",
"514.286 508.119 QCURVE SMOOTH",
"497.762 413.722 LINE SMOOTH",
"492.151 375.833 OFFCURVE",
"543.579 344.167 OFFCURVE",
"605.81 344.167 QCURVE SMOOTH",
"652.079 344.167 OFFCURVE",
"698.865 372.349 OFFCURVE",
"709.151 384.571 QCURVE SMOOTH",
"718.476 432.944 LINE",
"1209.921 432.944 LINE",
"1200.952 390.23 LINE SMOOTH",
"1157.794 197.905 OFFCURVE",
"822.786 -29.222 OFFCURVE",
"532.944 -29.222 QCURVE SMOOTH",
"229.786 -29.222 OFFCURVE",
"-66.595 214.317 OFFCURVE",
"-24.111 453.222 QCURVE SMOOTH"
);
}
);
width = 1266;
}
);
leftKerningGroup = alpha;
rightKerningGroup = c_LC;
unicode = 0063;
},
{
glyphname = d;
layers = (
{
layerId = "1BFE03A3-C162-48A6-B30A-9589691C03B8";
paths = (
{
closed = 1;
nodes = (
"-17.754 490.944 LINE SMOOTH",
"20.214 707.849 OFFCURVE",
"289.762 942.063 OFFCURVE",
"487.278 941.548 QCURVE SMOOTH",
"618.611 942.063 OFFCURVE",
"762.968 881.683 OFFCURVE",
"791.929 849.849 QCURVE",
"898.54 1456 LINE",
"1416.071 1456 LINE",
"1159.071 0 LINE",
"645.992 0 LINE",
"655.96 81.151 LINE",
"654.929 81.151 LINE",
"603.873 36.579 OFFCURVE",
"436.222 -22.222 OFFCURVE",
"316.667 -22.222 QCURVE SMOOTH",
"136.111 -22.222 OFFCURVE",
"-66.627 217.19 OFFCURVE",
"-25.111 451.19 QCURVE SMOOTH"
);
},
{
closed = 1;
nodes = (
"480.286 375.603 OFFCURVE",
"529.135 339.651 OFFCURVE",
"577.921 339.651 QCURVE SMOOTH",
"628.738 339.651 OFFCURVE",
"701.254 363.706 OFFCURVE",
"710.508 375.349 QCURVE",
"736.802 535.587 LINE",
"729.032 552.357 OFFCURVE",
"667.254 575.802 OFFCURVE",
"616.437 575.802 QCURVE SMOOTH",
"565.556 575.802 OFFCURVE",
"508.548 533.206 OFFCURVE",
"502.936 501.54 QCURVE SMOOTH",
"486.444 408.397 LINE SMOOTH"
);
}
);
width = 1337;
}
);
leftKerningGroup = alpha;
unicode = 0064;
},
{
glyphname = e;
layers = (
{
layerId = "1BFE03A3-C162-48A6-B30A-9589691C03B8";
paths = (
{
closed = 1;
nodes = (
"-31.746 487.976 LINE SMOOTH",
"8.254 709.651 OFFCURVE",
"395.151 953.706 OFFCURVE",
"692.659 953.706 QCURVE SMOOTH",
"1004.31 953.706 OFFCURVE",
"1269.397 691.159 OFFCURVE",
"1230.103 473.444 QCURVE SMOOTH",
"1220.071 411.548 LINE",
"247.468 411.548 LINE",
"264.921 517 LINE",
"735.357 517 LINE",
"739.746 540.944 LINE SMOOTH",
"742.778 560.714 OFFCURVE",
"694.056 592.77 OFFCURVE",
"627.921 592.77 QCURVE SMOOTH",
"561.881 592.77 OFFCURVE",
"490.683 552.714 OFFCURVE",
"484.071 515.048 QCURVE SMOOTH",
"466.936 417.143 LINE SMOOTH",
"459.294 373.897 OFFCURVE",
"522.365 329.683 OFFCURVE",
"577.54 329.683 QCURVE SMOOTH",
"654.992 329.683 OFFCURVE",
"731.222 375.222 OFFCURVE",
"746.96 404.032 QCURVE",
"1210.627 353.365 LINE",
"1128.929 162.492 OFFCURVE",
"813.349 -29.738 OFFCURVE",
"508.73 -29.738 QCURVE SMOOTH",
"215.214 -29.738 OFFCURVE",
"-79.135 225.389 OFFCURVE",
"-38.103 453.254 QCURVE SMOOTH"
);
}
);
width = 1307;
}
);
leftKerningGroup = alpha;
rightKerningGroup = e_LC;
unicode = 0065;
},
{
glyphname = f;
layers = (
{
layerId = "1BFE03A3-C162-48A6-B30A-9589691C03B8";
paths = (
{
closed = 1;
nodes = (
"172.254 1065.016 LINE SMOOTH",
"208.349 1266.556 OFFCURVE",
"515.889 1478 OFFCURVE",
"728.19 1478 QCURVE SMOOTH",
"834.802 1478 OFFCURVE",
"939.286 1463.548 OFFCURVE",
"973.151 1456 QCURVE",
"879.817 1058.937 LINE",
"863.627 1060.937 OFFCURVE",
"831.119 1064 OFFCURVE",
"805.675 1064 QCURVE SMOOTH",
"755.016 1064 OFFCURVE",
"684.524 1026.175 OFFCURVE",
"677.365 984.706 QCURVE SMOOTH",
"651.683 839 LINE",
"657.619 830 LINE",
"511.619 0 LINE",
"-15.071 0 LINE"
);
},
{
closed = 1;
nodes = (
"23.063 914 LINE",
"215.563 914 LINE",
"233.563 914 LINE",
"841.341 914 LINE",
"772.341 520 LINE",
"-45.937 520 LINE"
);
}
);
width = 806;
}
);
leftKerningGroup = f_LC;
rightKerningGroup = f_LC;
unicode = 0066;
},
{
glyphname = g;
layers = (
{
layerId = "1BFE03A3-C162-48A6-B30A-9589691C03B8";
paths = (
{
closed = 1;
nodes = (
"3.198 -23.786 LINE",
"42.548 -42.429 OFFCURVE",
"263.532 -97.159 OFFCURVE",
"382.81 -97.159 QCURVE SMOOTH",
"485.992 -97.159 OFFCURVE",
"645.087 -25.095 OFFCURVE",
"658.119 50.802 QCURVE SMOOTH",
"665.571 92.159 LINE",
"616 45.325 OFFCURVE",
"459.667 -12.571 OFFCURVE",
"331.69 -12.571 QCURVE SMOOTH",
"148.587 -12.571 OFFCURVE",
"-63.048 227.833 OFFCURVE",
"-23.048 463.056 QCURVE SMOOTH",
"-16.206 500.23 LINE SMOOTH",
"21.762 722.294 OFFCURVE",
"287.373 937.706 OFFCURVE",
"479.405 937.706 QCURVE SMOOTH",
"613.032 937.706 OFFCURVE",
"756.357 864.683 OFFCURVE",
"783.413 825.175 QCURVE",
"784.381 825.175 LINE",
"802.087 914 LINE",
"1325.778 914 LINE",
"1201.643 192.071 LINE SMOOTH",
"1141.675 -158.476 OFFCURVE",
"714.278 -451 OFFCURVE",
"431.857 -451 QCURVE SMOOTH",
"236.881 -451 OFFCURVE",
"-13.452 -406.944 OFFCURVE",
"-82.111 -383.143 QCURVE"
);
},
{
closed = 1;
nodes = (
"485.413 375.087 OFFCURVE",
"531.683 335.524 OFFCURVE",
"588.206 335.524 QCURVE SMOOTH",
"639.024 335.524 OFFCURVE",
"702.254 360.095 OFFCURVE",
"710.476 371.222 QCURVE",
"738.833 540.746 LINE",
"730.032 554.937 OFFCURVE",
"672.381 575.802 OFFCURVE",
"630.333 575.802 QCURVE SMOOTH",
"570.683 575.802 OFFCURVE",
"513.675 532.69 OFFCURVE",
"507.548 500.508 QCURVE SMOOTH",
"491.056 407.365 LINE SMOOTH"
);
}
);
width = 1349;
}
);
leftKerningGroup = alpha;
unicode = 0067;
},
{
glyphname = h;
layers = (
{
layerId = "1BFE03A3-C162-48A6-B30A-9589691C03B8";
paths = (
{
closed = 1;
nodes = (
"172.238 1456 LINE",
"697.825 1456 LINE",
"580.476 802.413 LINE",
"617.048 849.754 OFFCURVE",
"808.373 947.286 OFFCURVE",
"960.317 947.286 QCURVE SMOOTH",
"1124.262 947.286 OFFCURVE",
"1281.341 777.214 OFFCURVE",
"1254.667 620.357 QCURVE SMOOTH",
"1145.563 0 LINE",
"619.071 0 LINE",
"706.69 496.873 LINE SMOOTH",
"712.333 527.667 OFFCURVE",
"688.183 556.913 OFFCURVE",
"649.683 556.913 QCURVE SMOOTH",
"610.698 556.913 OFFCURVE",
"542.278 521.119 OFFCURVE",
"529.413 499.222 QCURVE",
"441.73 0 LINE",
"-84.246 0 LINE"
);
}
);
width = 1312;
}
);
leftKerningGroup = bhk_LC;
rightKerningGroup = hmn_LC;
unicode = 0068;
},
{
glyphname = i;
layers = (
{
layerId = "1BFE03A3-C162-48A6-B30A-9589691C03B8";
paths = (
{
closed = 1;
nodes = (
"83.302 914 LINE",
"617.889 914 LINE",
"456.889 0 LINE",
"-77.698 0 LINE"
);
},
{
closed = 1;
nodes = (
"122.492 1319.024 OFFCURVE",
"287.452 1473.151 OFFCURVE",
"426.865 1473.151 QCURVE SMOOTH",
"566.794 1472.635 OFFCURVE",
"701.238 1321.929 OFFCURVE",
"692.143 1204.833 QCURVE SMOOTH",
"681.175 1093.222 OFFCURVE",
"518.087 932.579 OFFCURVE",
"378.675 932.579 QCURVE SMOOTH",
"239.262 933.095 OFFCURVE",
"102.944 1094.254 OFFCURVE",
"114.429 1206.381 QCURVE SMOOTH"
);
}
);
width = 631;
}
);
leftKerningGroup = i_LC;
rightKerningGroup = i_LC;
unicode = 0069;
},
{
glyphname = j;
layers = (
{
layerId = "1BFE03A3-C162-48A6-B30A-9589691C03B8";
paths = (
{
closed = 1;
nodes = (
"-358.936 -38.611 LINE",
"-334.357 -44.643 OFFCURVE",
"-263.23 -51.127 OFFCURVE",
"-211.262 -51.127 QCURVE SMOOTH",
"-136.405 -51.127 OFFCURVE",
"-56.548 28.857 OFFCURVE",
"-36.841 143.095 QCURVE SMOOTH",
"99.294 914 LINE",
"631.786 914 LINE",
"480.619 53.873 LINE SMOOTH",
"437.849 -191.683 OFFCURVE",
"108.746 -440.484 OFFCURVE",
"-153.365 -440.484 QCURVE SMOOTH",
"-251.492 -440.484 OFFCURVE",
"-372 -427.032 OFFCURVE",
"-416.516 -417.968 QCURVE"
);
},
{
closed = 1;
nodes = (
"141.968 1321.929 OFFCURVE",
"304.024 1476.571 OFFCURVE",
"443.952 1476.056 QCURVE SMOOTH",
"586.27 1476.056 OFFCURVE",
"720.198 1321.929 OFFCURVE",
"708.198 1204.833 QCURVE SMOOTH",
"700.135 1093.222 OFFCURVE",
"537.563 932.063 OFFCURVE",
"395.246 932.579 QCURVE SMOOTH",
"255.833 932.579 OFFCURVE",
"122.421 1094.254 OFFCURVE",
"130.484 1205.865 QCURVE SMOOTH"
);
}
);
width = 665;
}
);
rightKerningGroup = j_LC;
unicode = 006A;
},
{
glyphname = k;
layers = (
{
layerId = "1BFE03A3-C162-48A6-B30A-9589691C03B8";
paths = (
{
closed = 1;
nodes = (
"173.786 1456 LINE",
"703.405 1456 LINE",
"566.635 689.802 LINE",
"807.833 914 LINE",
"1359.151 914 LINE",
"473.341 166.095 LINE",
"446.405 0 LINE",
"-83.214 0 LINE"
);
},
{
closed = 1;
nodes = (
"454.206 372.064 LINE",
"836.127 718.452 LINE",
"1274.984 0 LINE",
"674.071 0 LINE"
);
}
);
width = 1302;
}
);
leftKerningGroup = bhk_LC;
rightKerningGroup = k_LC;
unicode = 006B;
},
{
glyphname = l;
layers = (
{
layerId = "1BFE03A3-C162-48A6-B30A-9589691C03B8";
paths = (
{
closed = 1;
nodes = (
"176.333 1456 LINE",
"714.183 1456 LINE",
"457.183 0 LINE",
"-80.667 0 LINE"
);
}
);
width = 632;
}
);
leftKerningGroup = bhk_LC;
rightKerningGroup = l_LC;
unicode = 006C;
},
{
glyphname = m;
layers = (
{
layerId = "1BFE03A3-C162-48A6-B30A-9589691C03B8";
paths = (
{
closed = 1;
nodes = (
"73.659 914 LINE",
"593.571 914 LINE",
"571.833 789.183 LINE",
"573.897 789.183 LINE",
"617.532 851.167 OFFCURVE",
"812.056 946.254 OFFCURVE",
"946.754 946.254 QCURVE SMOOTH",
"1077.127 946.254 OFFCURVE",
"1212.397 846.881 OFFCURVE",
"1228.818 777.857 QCURVE",
"1235.206 777.857 LINE",
"1298.706 852.651 OFFCURVE",
"1475.262 947.286 OFFCURVE",
"1615.825 947.286 QCURVE SMOOTH",
"1775.548 947.286 OFFCURVE",
"1934.619 780.825 OFFCURVE",
"1909.492 623.968 QCURVE SMOOTH",
"1799.357 0 LINE",
"1272.865 0 LINE",
"1361.516 499.452 LINE SMOOTH",
"1366.643 529.214 OFFCURVE",
"1344.556 563.103 OFFCURVE",
"1303.992 563.103 QCURVE SMOOTH",
"1264.492 563.103 OFFCURVE",
"1217.738 534.016 OFFCURVE",
"1209.516 512.635 QCURVE",
"1118.738 0 LINE",
"592.246 0 LINE",
"680.381 497.389 LINE SMOOTH",
"685.508 525.087 OFFCURVE",
"664.968 563.103 OFFCURVE",
"627.5 563.103 QCURVE SMOOTH",
"595.222 563.103 OFFCURVE",
"538.667 532.468 OFFCURVE",
"528.381 506.96 QCURVE",
"438.635 0 LINE",
"-87.341 0 LINE"
);
}
);
width = 1967;
}
);
leftKerningGroup = mnpr_LC;
rightKerningGroup = hmn_LC;
unicode = 006D;
},
{
glyphname = n;
layers = (
{
layerId = "1BFE03A3-C162-48A6-B30A-9589691C03B8";
paths = (
{
closed = 1;
nodes = (
"76.754 914 LINE",
"599.762 914 LINE",
"578.54 793.214 LINE",
"580.508 793.214 LINE",
"617.563 843.492 OFFCURVE",
"809.31 947.286 OFFCURVE",
"964.611 947.286 QCURVE SMOOTH",
"1128.556 947.286 OFFCURVE",
"1279.794 777.73 OFFCURVE",
"1254.667 620.873 QCURVE SMOOTH",
"1145.048 0 LINE",
"619.071 0 LINE",
"706.69 496.873 LINE SMOOTH",
"712.333 529.214 OFFCURVE",
"689.214 556.913 OFFCURVE",
"649.683 556.913 QCURVE SMOOTH",
"612.246 556.913 OFFCURVE",
"542.762 521.119 OFFCURVE",
"529.413 499.222 QCURVE",
"441.73 0 LINE",
"-84.246 0 LINE"
);
}
);
width = 1312;
}
);
leftKerningGroup = mnpr_LC;
rightKerningGroup = hmn_LC;
unicode = 006E;
},
{
glyphname = o;
layers = (
{
layerId = "1BFE03A3-C162-48A6-B30A-9589691C03B8";
paths = (
{
closed = 1;
nodes = (
"-18.786 489.397 LINE SMOOTH",
"19.151 706.429 OFFCURVE",
"407.913 954.738 OFFCURVE",
"703.04 954.738 QCURVE SMOOTH",
"1000.651 954.738 OFFCURVE",
"1299.484 706.429 OFFCURVE",
"1261.548 489.397 QCURVE SMOOTH",
"1254.706 452.222 LINE SMOOTH",
"1213.802 222.833 OFFCURVE",
"825.556 -29.738 OFFCURVE",
"528.944 -29.738 QCURVE SMOOTH",
"233.786 -29.738 OFFCURVE",
"-66.532 222.833 OFFCURVE",
"-25.627 452.222 QCURVE SMOOTH"
);
},
{
closed = 1;
nodes = (
"492.635 406.944 LINE SMOOTH",
"486.476 373.667 OFFCURVE",
"536.905 339.778 OFFCURVE",
"593.913 339.778 QCURVE SMOOTH",
"650.952 339.778 OFFCURVE",
"711.119 374.183 OFFCURVE",
"716.762 406.976 QCURVE SMOOTH",
"734.738 509.087 LINE SMOOTH",
"741.381 545.397 OFFCURVE",
"690.984 578.19 OFFCURVE",
"634.429 578.19 QCURVE SMOOTH",
"577.421 578.19 OFFCURVE",
"517.254 544.881 OFFCURVE",
"510.611 509.087 QCURVE SMOOTH"
);
}
);
width = 1324;
}
);
leftKerningGroup = o_LC;
rightKerningGroup = o_LC;
unicode = 006F;
},
{
glyphname = p;
layers = (
{
layerId = "1BFE03A3-C162-48A6-B30A-9589691C03B8";
paths = (
{
closed = 1;
nodes = (
"77.302 914 LINE",
"588.151 914 LINE",
"576.571 840.365 LINE",
"579.024 840.849 LINE",
"617.016 875.198 OFFCURVE",
"788.627 947.738 OFFCURVE",
"922.603 947.738 QCURVE SMOOTH",
"1105.802 947.738 OFFCURVE",
"1298.063 707.492 OFFCURVE",
"1258.579 482.69 QCURVE SMOOTH",
"1251.738 445.516 LINE SMOOTH",
"1210.318 212 OFFCURVE",
"917.389 -22.738 OFFCURVE",
"737.897 -22.738 QCURVE SMOOTH",
"623.762 -22.738 OFFCURVE",
"473.278 18.119 OFFCURVE",
"438.214 36.762 QCURVE",
"363.056 -388 LINE",
"-151.698 -388 LINE"
);
},
{
closed = 1;
nodes = (
"514.627 359.064 OFFCURVE",
"573.341 339.651 OFFCURVE",
"617.452 339.651 QCURVE SMOOTH",
"667.27 339.651 OFFCURVE",
"722.246 371.992 OFFCURVE",
"729.437 408.913 QCURVE SMOOTH",
"746.444 504.119 LINE SMOOTH",
"753.087 538.365 OFFCURVE",
"698.595 575.802 OFFCURVE",
"652.357 575.286 QCURVE",
"612.373 575.802 OFFCURVE",
"543.405 552.294 OFFCURVE",
"530.056 541.262 QCURVE",
"501.183 372.254 LINE"
);
}
);
width = 1331;
}
);
leftKerningGroup = mnpr_LC;
rightKerningGroup = b_LC;
unicode = 0070;
},
{
glyphname = q;
layers = (
{
layerId = "1BFE03A3-C162-48A6-B30A-9589691C03B8";
paths = (
{
closed = 1;
nodes = (
"-13.786 502.81 LINE SMOOTH",
"24.183 717.135 OFFCURVE",
"288.056 941.032 OFFCURVE",
"477.802 941.032 QCURVE SMOOTH",
"615.421 941.032 OFFCURVE",
"773.706 870.071 OFFCURVE",
"794.476 840.365 QCURVE",
"800.77 840.365 LINE",
"816.897 914 LINE",
"1323.46 914 LINE",
"1093.944 -389.032 LINE",
"584.476 -389.032 LINE",
"663.476 66.19 LINE",
"663.476 66.19 LINE",
"611.421 31.421 OFFCURVE",
"449.897 -17.381 OFFCURVE",
"330.857 -17.381 QCURVE SMOOTH",
"133.373 -17.381 OFFCURVE",
"-62.143 235.349 OFFCURVE",
"-21.143 463.056 QCURVE SMOOTH"
);
},
{
closed = 1;
nodes = (
"485.738 376.833 OFFCURVE",
"530.976 344.492 OFFCURVE",
"582.341 344.492 QCURVE SMOOTH",
"639.349 344.492 OFFCURVE",
"705.159 369.064 OFFCURVE",
"713.897 380.19 QCURVE",
"739.222 535.587 LINE",
"730.421 549.778 OFFCURVE",
"669.675 575.802 OFFCURVE",
"619.889 575.802 QCURVE SMOOTH",
"567.976 575.802 OFFCURVE",
"509.421 534.238 OFFCURVE",
"505.357 501.54 QCURVE SMOOTH",
"489.833 411.69 LINE SMOOTH"
);
}
);
width = 1348;
}
);
leftKerningGroup = alpha;
unicode = 0071;
},
{
glyphname = r;
layers = (
{
layerId = "1BFE03A3-C162-48A6-B30A-9589691C03B8";
paths = (
{
closed = 1;
nodes = (
"76.754 914 LINE",
"593.056 914 LINE",
"566.159 761.262 LINE",
"568.643 761.262 LINE",
"612.405 829.214 OFFCURVE",
"771.008 934.643 OFFCURVE",
"859.984 934.643 QCURVE SMOOTH",
"917.032 934.643 OFFCURVE",
"983.079 917.452 OFFCURVE",
"999.849 908.81 QCURVE",
"928.849 506.262 LINE",
"909.532 519.937 OFFCURVE",
"838.516 536.159 OFFCURVE",
"789.048 536.159 QCURVE SMOOTH",
"711.429 536.159 OFFCURVE",
"561.468 454.246 OFFCURVE",
"513.706 385.81 QCURVE",
"446.571 0 LINE",
"-84.246 0 LINE"
);
}
);
width = 969;
}
);
leftKerningGroup = mnpr_LC;
rightKerningGroup = r_LC;
unicode = 0072;
},
{
glyphname = s;
layers = (
{
layerId = "1BFE03A3-C162-48A6-B30A-9589691C03B8";
paths = (
{
closed = 1;
nodes = (
"366.579 309.413 LINE",
"363.127 289.667 LINE SMOOTH",
"358.032 260.127 OFFCURVE",
"434 243.389 OFFCURVE",
"500.746 243.389 QCURVE SMOOTH",
"585.579 243.389 OFFCURVE",
"640.849 261.159 OFFCURVE",
"643.365 276.802 QCURVE SMOOTH",
"647.365 297.286 OFFCURVE",
"596.659 314.064 OFFCURVE",
"380.706 342.619 QCURVE SMOOTH",
"130.032 372.754 OFFCURVE",
"-20.548 524.492 OFFCURVE",
"2.032 654.357 QCURVE SMOOTH",
"28.063 801.095 OFFCURVE",
"367.262 953.19 OFFCURVE",
"636.587 953.19 QCURVE SMOOTH",
"923.492 953.19 OFFCURVE",
"1161.802 779.81 OFFCURVE",
"1142.286 658.397 QCURVE SMOOTH",
"1134.929 613 LINE",
"702.246 613 LINE",
"703.698 626.841 LINE SMOOTH",
"704.667 642.516 OFFCURVE",
"646.722 656.127 OFFCURVE",
"561.889 656.127 QCURVE SMOOTH",
"472.413 656.127 OFFCURVE",
"441.81 648.095 OFFCURVE",
"439.294 637.032 QCURVE SMOOTH",
"436.81 623.548 OFFCURVE",
"481.064 608.611 OFFCURVE",
"715.69 583.992 QCURVE SMOOTH",
"987.563 555.921 OFFCURVE",
"1154.151 407.246 OFFCURVE",
"1135.278 274.214 QCURVE SMOOTH",
"1115.405 136.635 OFFCURVE",
"792.833 -29.254 OFFCURVE",
"480.135 -29.254 QCURVE SMOOTH",
"170.341 -29.254 OFFCURVE",
"-97.746 149.349 OFFCURVE",
"-74.81 288.286 QCURVE SMOOTH",
"-70.778 313.54 LINE"
);
}
);
width = 1232;
}
);
leftKerningGroup = s_LC;
rightKerningGroup = s_LC;
unicode = 0073;
},
{
glyphname = t;
layers = (
{
layerId = "1BFE03A3-C162-48A6-B30A-9589691C03B8";
paths = (
{
closed = 1;
nodes = (
"25.421 914 LINE",
"881.278 914 LINE",
"812.246 522.905 LINE",
"-43.611 522.905 LINE"
);
},
{
closed = 1;
nodes = (
"148.984 872 LINE",
"170.984 883 LINE",
"213.27 1123.587 LINE",
"712.341 1123.587 LINE",
"600.889 493.905 LINE SMOOTH",
"589.73 430.016 OFFCURVE",
"631.04 367.579 OFFCURVE",
"680.571 367.579 QCURVE SMOOTH",
"727.976 367.579 OFFCURVE",
"774.865 375.706 OFFCURVE",
"798.151 382.317 QCURVE",
"746.984 27.611 LINE",
"682.127 8.937 OFFCURVE",
"515.437 -16.611 OFFCURVE",
"413.262 -16.611 QCURVE SMOOTH",
"220.31 -16.611 OFFCURVE",
"25.659 171.952 OFFCURVE",
"56.302 347.746 QCURVE SMOOTH"
);
}
);
width = 879;
}
);
leftKerningGroup = t_LC;
rightKerningGroup = t_LC;
unicode = 0074;
},
{
glyphname = u;
layers = (
{
layerId = "1BFE03A3-C162-48A6-B30A-9589691C03B8";
paths = (
{
closed = 1;
nodes = (
"65.889 914 LINE",
"590.833 914 LINE",
"500.119 400.619 LINE SMOOTH",
"495.508 374.468 OFFCURVE",
"517.048 340.579 OFFCURVE",
"556.579 340.579 QCURVE SMOOTH",
"596.595 340.579 OFFCURVE",
"664.048 378.436 OFFCURVE",
"677.913 400.333 QCURVE",
"768.69 914 LINE",
"1293.119 914 LINE",
"1132.119 0 LINE",
"609.627 0 LINE",
"632.397 118.722 LINE",
"629.913 118.722 LINE",
"603.659 79.794 OFFCURVE",
"401.111 -33.286 OFFCURVE",
"245.294 -33.286 QCURVE SMOOTH",
"81.865 -33.286 OFFCURVE",
"-71.921 130.595 OFFCURVE",
"-44.762 285.905 QCURVE SMOOTH"
);
}
);
width = 1306;
}
);
leftKerningGroup = u_LC;
rightKerningGroup = u_LC;
unicode = 0075;
},
{
glyphname = v;
layers = (
{
layerId = "1BFE03A3-C162-48A6-B30A-9589691C03B8";
paths = (
{
closed = 1;
nodes = (
"486.976 914 LINE",
"575.77 538.754 LINE SMOOTH",
"577.833 523.397 OFFCURVE",
"578.413 506.23 OFFCURVE",
"578.476 494.905 QCURVE",
"579.992 494.905 LINE",
"583.508 505.746 OFFCURVE",
"589.96 523.397 OFFCURVE",
"596.992 537.302 QCURVE SMOOTH",
"820.992 914 LINE",
"1279.063 914 LINE",
"753.5 0 LINE",
"214.397 0 LINE",
"2.77 914 LINE"
);
}
);
width = 1240;
}
);
leftKerningGroup = gamma;
rightKerningGroup = gamma;
unicode = 0076;
},
{
glyphname = w;
layers = (
{
layerId = "1BFE03A3-C162-48A6-B30A-9589691C03B8";
paths = (
{
closed = 1;
nodes = (
"472.675 914 LINE",
"531.635 486.294 LINE SMOOTH",
"532.183 474.905 OFFCURVE",
"533.698 453.96 OFFCURVE",
"534.73 450.381 QCURVE",
"536.794 450.381 LINE",
"538.857 453.96 OFFCURVE",
"546.698 474.905 OFFCURVE",
"550.73 486.294 QCURVE SMOOTH",
"749.024 914 LINE",
"1176.056 914 LINE",
"1223.333 486.294 LINE SMOOTH",
"1223.397 474.905 OFFCURVE",
"1224.429 453.96 OFFCURVE",
"1225.46 450.381 QCURVE",
"1227.524 450.381 LINE",
"1229.587 453.96 OFFCURVE",
"1237.913 474.905 OFFCURVE",
"1242.429 486.294 QCURVE SMOOTH",
"1443.952 914 LINE",
"1900.151 914 LINE",
"1444.698 0 LINE",
"924.056 0 LINE",
"864.325 386.397 LINE SMOOTH",
"863.778 393.881 OFFCURVE",
"862.714 408.69 OFFCURVE",
"862.167 412.206 QCURVE",
"862.167 412.206 LINE",
"860.135 408.69 OFFCURVE",
"854.135 393.881 OFFCURVE",
"851.103 386.397 QCURVE SMOOTH",
"670.508 0 LINE",
"138.063 0 LINE",
"6.159 914 LINE"
);
}
);
width = 1866;
}
);
leftKerningGroup = w_LC;
rightKerningGroup = w_LC;
unicode = 0077;
},
{
glyphname = x;
layers = (
{
layerId = "1BFE03A3-C162-48A6-B30A-9589691C03B8";
paths = (
{
closed = 1;
nodes = (
"412.944 571.714 LINE",
"504.468 571.714 LINE",
"816.921 914 LINE",
"1352.937 914 LINE",
"791.294 342.825 LINE",
"691 341.794 LINE",
"360.333 0 LINE",
"-178.103 0 LINE"
);
},
{
closed = 1;
nodes = (
"595.587 914 LINE",
"806.151 567.405 LINE",
"841.603 567.405 LINE",
"1201.254 0 LINE",
"609.365 0 LINE",
"399.81 342.397 LINE",
"367.936 342.397 LINE",
"12.897 914 LINE"
);
}
);
width = 1288;
}
);
unicode = 0078;
},
{
glyphname = y;
layers = (
{
layerId = "1BFE03A3-C162-48A6-B30A-9589691C03B8";
paths = (
{
closed = 1;
nodes = (
"-228.817 -46.778 LINE",
"-177.667 -61.389 OFFCURVE",
"-83.611 -77.873 OFFCURVE",
"-25.706 -77.873 QCURVE SMOOTH",
"71.603 -77.873 OFFCURVE",
"181.317 -27.452 OFFCURVE",
"207.984 6.738 QCURVE",
"210.5 13.579 LINE",
"-11.905 914 LINE",
"485.325 914 LINE",
"567.865 574.944 LINE SMOOTH",
"572.508 550.976 OFFCURVE",
"578.762 507.778 OFFCURVE",
"579.341 494.905 QCURVE",
"582.405 494.905 LINE",
"586.952 507.294 OFFCURVE",
"610.175 551.524 OFFCURVE",
"622.786 574.976 QCURVE SMOOTH",
"821.857 919.159 LINE",
"1309.786 914 LINE",
"811.77 84.381 LINE SMOOTH",
"635.865 -207.325 OFFCURVE",
"274.222 -438.905 OFFCURVE",
"40.968 -438.905 QCURVE SMOOTH",
"-108.087 -438.905 OFFCURVE",
"-282.532 -412 OFFCURVE",
"-341.167 -392.452 QCURVE"
);
}
);
width = 1239;
}
);
leftKerningGroup = gamma;
rightKerningGroup = gamma;
unicode = 0079;
},
{
glyphname = z;
layers = (
{
layerId = "1BFE03A3-C162-48A6-B30A-9589691C03B8";
paths = (
{
closed = 1;
nodes = (
"-58.556 285 LINE",
"345.468 550.952 LINE",
"7.603 550.952 LINE",
"71.444 914 LINE",
"1123.381 914 LINE",
"1069.381 609 LINE",
"666.841 343.048 LINE",
"1051.024 343.048 LINE",
"990.698 0 LINE",
"-108.556 0 LINE"
);
}
);
width = 1154;
}
);
leftKerningGroup = z_LC;
rightKerningGroup = z_LC;
unicode = 007A;
},
{
glyphname = braceleft;
layers = (
{
layerId = "1BFE03A3-C162-48A6-B30A-9589691C03B8";
paths = (
{
closed = 1;
nodes = (
"184.198 -333.286 OFFCURVE",
"2.349 -91.127 OFFCURVE",
"81.571 105.905 QCURVE SMOOTH",
"161.056 292.714 LINE SMOOTH",
"189.349 358.238 OFFCURVE",
"107.357 393.889 OFFCURVE",
"13.23 393.889 QCURVE",
"63.571 754.111 LINE",
"158.183 754.111 OFFCURVE",
"255.437 789.762 OFFCURVE",
"254.341 855.286 QCURVE SMOOTH",
"244.183 1042.095 LINE SMOOTH",
"228.214 1231.579 OFFCURVE",
"500.841 1474.254 OFFCURVE",
"958.532 1460 QCURVE",
"910.833 1128.516 LINE",
"773.143 1128.516 OFFCURVE",
"661.563 1058.952 OFFCURVE",
"663.69 984.683 QCURVE SMOOTH",
"676.397 814 LINE SMOOTH",
"682.976 730 OFFCURVE",
"591.659 604.516 OFFCURVE",
"491.984 574 QCURVE",
"581.627 543.484 OFFCURVE",
"628.46 418 OFFCURVE",
"591.397 334 QCURVE SMOOTH",
"513.976 163.317 LINE SMOOTH",
"481.23 89.048 OFFCURVE",
"557.024 19.484 OFFCURVE",
"715.349 19.484 QCURVE",
"667.167 -312 LINE"
);
}
);
width = 856;
}
);
rightKerningGroup = parens;
unicode = 007B;
},
{
glyphname = bar;
layers = (
{
layerId = "1BFE03A3-C162-48A6-B30A-9589691C03B8";
paths = (
{
closed = 1;
nodes = (
"216.095 1456 LINE",
"715.524 1456 LINE",
"378.746 -416 LINE",
"-121.167 -416 LINE"
);
}
);
width = 664;
}
);
unicode = 007C;
},
{
glyphname = braceright;
layers = (
{
layerId = "1BFE03A3-C162-48A6-B30A-9589691C03B8";
paths = (
{
closed = 1;
nodes = (
"-92.111 17.968 LINE",
"55.929 17.968 OFFCURVE",
"166.96 87.532 OFFCURVE",
"164.349 161.317 QCURVE SMOOTH",
"152.643 332.484 LINE SMOOTH",
"144.579 416.484 OFFCURVE",
"236.381 541.968 OFFCURVE",
"336.54 572.484 QCURVE",
"246.413 603 OFFCURVE",
"199.063 728.484 OFFCURVE",
"236.643 812.484 QCURVE SMOOTH",
"314.579 983.167 LINE SMOOTH",
"347.294 1057.437 OFFCURVE",
"272.048 1127 OFFCURVE",
"113.69 1127 QCURVE",
"161.873 1458.484 LINE",
"644.325 1480.802 OFFCURVE",
"827.69 1237.127 OFFCURVE",
"746.437 1040.579 QCURVE SMOOTH",
"667.468 853.77 LINE SMOOTH",
"639.175 788.246 OFFCURVE",
"721.198 752.595 OFFCURVE",
"815.81 752.595 QCURVE",
"764.984 391.373 LINE",
"670.857 391.373 OFFCURVE",
"573.087 355.722 OFFCURVE",
"573.698 291.198 QCURVE SMOOTH",
"583.341 103.905 LINE SMOOTH",
"600.857 -85.095 OFFCURVE",
"326.683 -326.738 OFFCURVE",
"-140.294 -313.516 QCURVE"
);
}
);
width = 856;
}
);
leftKerningGroup = parens;
unicode = 007D;
},
{
glyphname = asciitilde;
layers = (
{
layerId = "1BFE03A3-C162-48A6-B30A-9589691C03B8";
paths = (
{
closed = 1;
nodes = (
"92.905 804.508 LINE",
"145.643 871.278 OFFCURVE",
"273.436 932.532 OFFCURVE",
"346.976 931.563 QCURVE SMOOTH",
"402.389 931.079 OFFCURVE",
"528.468 898.984 OFFCURVE",
"599.071 867.921 QCURVE SMOOTH",
"673.19 835.31 OFFCURVE",
"786.627 799.762 OFFCURVE",
"835.492 799.278 QCURVE SMOOTH",
"890.421 798.794 OFFCURVE",
"1000.54 852.016 OFFCURVE",
"1062.825 913.238 QCURVE",
"962.635 373.302 LINE",
"925.992 338.175 OFFCURVE",
"819.873 290.468 OFFCURVE",
"744.817 291.436 QCURVE SMOOTH",
"689.405 291.921 OFFCURVE",
"546.746 325.5 OFFCURVE",
"457.5 361.079 QCURVE SMOOTH",
"387.929 387.659 OFFCURVE",
"278.492 415.206 OFFCURVE",
"234.627 415.69 QCURVE SMOOTH",
"150.54 416.175 OFFCURVE",
"42.905 351.889 OFFCURVE",
"-0.222 310.246 QCURVE"
);
}
);
width = 972;
}
);
unicode = 007E;
},
{
glyphname = exclamdown;
layers = (
{
layerId = "1BFE03A3-C162-48A6-B30A-9589691C03B8";
paths = (
{
closed = 1;
nodes = (
"518 960 OFFCURVE",
"432 872 OFFCURVE",
"351 872 QCURVE SMOOTH",
"271 872 OFFCURVE",
"186 960 OFFCURVE",
"186 1022 QCURVE SMOOTH",
"186 1084 OFFCURVE",
"272 1172 OFFCURVE",
"352 1172 QCURVE SMOOTH",
"432 1172 OFFCURVE",
"518 1084 OFFCURVE",
"518 1022 QCURVE SMOOTH"
);
},
{
closed = 1;
nodes = (
"491 -306 LINE",
"214 -306 LINE",
"234 724 LINE",
"470 724 LINE"
);
}
);
width = 704;
}
);
unicode = 00A1;
},
{
glyphname = cent;
layers = (
{
layerId = "1BFE03A3-C162-48A6-B30A-9589691C03B8";
paths = (
{
closed = 1;
nodes = (
"726 336 OFFCURVE",
"896 425 OFFCURVE",
"910 443 QCURVE",
"1155 443 LINE",
"1139 345 OFFCURVE",
"818 130 OFFCURVE",
"647 130 QCURVE SMOOTH",
"340 130 OFFCURVE",
"74 487 OFFCURVE",
"74 667 QCURVE SMOOTH",
"74 714 LINE SMOOTH",
"74 890 OFFCURVE",
"340 1252 OFFCURVE",
"647 1252 QCURVE SMOOTH",
"850 1252 OFFCURVE",
"1143 1011 OFFCURVE",
"1157 857 QCURVE",
"914 857 LINE",
"900 908 OFFCURVE",
"749 1047 OFFCURVE",
"645 1047 QCURVE SMOOTH",
"439 1047 OFFCURVE",
"336 774 OFFCURVE",
"336 714 QCURVE SMOOTH",
"336 667 LINE SMOOTH",
"336 584 OFFCURVE",
"438 336 OFFCURVE",
"647 336 QCURVE SMOOTH"
);
},
{
closed = 1;
nodes = (
"549 287 LINE",
"559 301 LINE",
"559 708 LINE",
"729 708 LINE",
"729 300 LINE",
"739 290 LINE",
"739 0 LINE",
"549 0 LINE"
);
},
{
closed = 1;
nodes = (
"559 1182 LINE",
"549 1192 LINE",
"549 1402 LINE",
"739 1402 LINE",
"739 1192 LINE",
"729 1179 LINE",
"729 708 LINE",
"559 708 LINE"
);
}
);
width = 1214;
}
);
unicode = 00A2;
},
{
glyphname = sterling;
layers = (
{
layerId = "1BFE03A3-C162-48A6-B30A-9589691C03B8";
paths = (
{
closed = 1;
nodes = (
"36 0 LINE",
"36 222 LINE",
"101 222 LINE SMOOTH",
"207 222 OFFCURVE",
"280 324 OFFCURVE",
"264 467 QCURVE SMOOTH",
"200 1039 LINE SMOOTH",
"181 1206 OFFCURVE",
"429 1476 OFFCURVE",
"667 1476 QCURVE SMOOTH",
"884 1476 OFFCURVE",
"1135 1257 OFFCURVE",
"1135 1103 QCURVE SMOOTH",
"1135 1087 LINE",
"861 1087 LINE",
"861 1103 LINE SMOOTH",
"847 1201 OFFCURVE",
"744 1240 OFFCURVE",
"669 1240 QCURVE SMOOTH",
"586 1240 OFFCURVE",
"455 1168 OFFCURVE",
"468 1039 QCURVE SMOOTH",
"527 458 LINE SMOOTH",
"538 356 OFFCURVE",
"488 262 OFFCURVE",
"417 228 QCURVE",
"1185 228 LINE",
"1185 0 LINE"
);
},
{
closed = 1;
nodes = (
"55 575 LINE",
"55 787 LINE",
"948 787 LINE",
"948 575 LINE"
);
}
);
width = 1157;
}
);
unicode = 00A3;
},
{
glyphname = currency;
layers = (
{
guideLines = (
{
position = "{0, 901}";
},
{
position = "{0, 555}";
}
);
layerId = "1BFE03A3-C162-48A6-B30A-9589691C03B8";
paths = (
{
closed = 1;
nodes = (
"218 544 OFFCURVE",
"432 319 OFFCURVE",
"575 319 QCURVE SMOOTH",
"717 319 OFFCURVE",
"931 544 OFFCURVE",
"931 708 QCURVE SMOOTH",
"931 868 OFFCURVE",
"717 1094 OFFCURVE",
"575 1094 QCURVE SMOOTH",
"432 1094 OFFCURVE",
"218 868 OFFCURVE",
"218 708 QCURVE"
);
},
{
closed = 1;
nodes = (
"-42 979 OFFCURVE",
"328 1346 OFFCURVE",
"574 1346 QCURVE SMOOTH",
"820 1346 OFFCURVE",
"1191 979 OFFCURVE",
"1191 715 QCURVE SMOOTH",
"1191 452 OFFCURVE",
"820 91 OFFCURVE",
"574 91 QCURVE SMOOTH",
"328 91 OFFCURVE",
"-42 457 OFFCURVE",
"-42 715 QCURVE"
);
},
{
closed = 1;
nodes = (
"991 1012 LINE",
"829 1181 LINE",
"1071 1429 LINE",
"1234 1260 LINE"
);
},
{
closed = 1;
nodes = (
"51 21 LINE",
"-110 189 LINE",
"132 436 LINE",
"293 269 LINE"
);
},
{
closed = 1;
nodes = (
"862 278 LINE",
"1026 446 LINE",
"1268 198 LINE",
"1105 29 LINE"
);
},
{
closed = 1;
nodes = (
"-88 1277 LINE",
"73 1446 LINE",
"316 1198 LINE",
"155 1029 LINE"
);
}
);
width = 1158;
}
);
unicode = 00A4;
userData = {
com.typemytype.robofont.guideline.magnetic.917FhrihjR = 5;
com.typemytype.robofont.guideline.magnetic.bRYxxRaQQf = 5;
};
},
{
glyphname = yen;
layers = (
{
layerId = "1BFE03A3-C162-48A6-B30A-9589691C03B8";
paths = (
{
closed = 1;
nodes = (
"59 500 LINE",
"1005 500 LINE",
"1005 279 LINE",
"59 279 LINE"
);
},
{
closed = 1;
nodes = (
"59 852 LINE",
"425 852 LINE",
"478 730 LINE",
"587 730 LINE",
"635 852 LINE",
"1005 852 LINE",
"1005 641 LINE",
"59 641 LINE"
);
},
{
closed = 1;
nodes = (
"399 548 LINE",
"-56 1456 LINE",
"243 1456 LINE",
"466 910 LINE SMOOTH",
"479 880 OFFCURVE",
"513 777 OFFCURVE",
"520 740 QCURVE",
"540 740 LINE",
"549 796 OFFCURVE",
"581 880 OFFCURVE",
"594 910 QCURVE SMOOTH",
"822 1456 LINE",
"1112 1456 LINE",
"657 548 LINE",
"657 0 LINE",
"399 0 LINE"
);
}
);
width = 1056;
}
);
unicode = 00A5;
},
{
glyphname = brokenbar;
layers = (
{
guideLines = (
{
position = "{0, 901}";
},
{
position = "{0, 555}";
}
);
layerId = "1BFE03A3-C162-48A6-B30A-9589691C03B8";
paths = (
{
closed = 1;
nodes = (
"205 -416 LINE",
"205 359 LINE",
"459 359 LINE",
"459 -416 LINE"
);
},
{
closed = 1;
nodes = (
"459 761 LINE",
"205 761 LINE",
"205 1536 LINE",
"459 1536 LINE"
);
}
);
width = 664;
}
);
unicode = 00A6;
userData = {
com.typemytype.robofont.guideline.magnetic.Z0RZpP7MTi = 5;
com.typemytype.robofont.guideline.magnetic.jmguX8NWKI = 5;
};
},
{
glyphname = section;
layers = (
{
guideLines = (
{
position = "{0, 1658}";
},
{
position = "{0, 578}";
}
);
layerId = "1BFE03A3-C162-48A6-B30A-9589691C03B8";
paths = (
{
closed = 1;
nodes = (
"669 266 LINE",
"772 265 OFFCURVE",
"926 380 OFFCURVE",
"926 453 QCURVE",
"926 530 OFFCURVE",
"784 633 OFFCURVE",
"618 694 QCURVE SMOOTH",
"428 751 OFFCURVE",
"163 879 OFFCURVE",
"163 1100 QCURVE SMOOTH",
"163 1306 OFFCURVE",
"411 1489 OFFCURVE",
"632 1491 QCURVE SMOOTH",
"842 1493 OFFCURVE",
"1074 1281 OFFCURVE",
"1072 1070 QCURVE",
"852 1070 LINE",
"854 1140 OFFCURVE",
"738 1273 OFFCURVE",
"632 1273 QCURVE SMOOTH",
"498 1273 OFFCURVE",
"386 1204 OFFCURVE",
"386 1119 QCURVE SMOOTH",
"386 1042 OFFCURVE",
"514 990 OFFCURVE",
"716 926 QCURVE SMOOTH",
"888 873 OFFCURVE",
"1178 683 OFFCURVE",
"1178 480 QCURVE SMOOTH",
"1178 294 OFFCURVE",
"862 115 OFFCURVE",
"669 119 QCURVE"
);
},
{
closed = 1;
nodes = (
"550 706 LINE",
"446 706 OFFCURVE",
"336 616 OFFCURVE",
"336 551 QCURVE SMOOTH",
"336 511 OFFCURVE",
"467 423 OFFCURVE",
"647 352 QCURVE SMOOTH",
"803 289 OFFCURVE",
"1091 114 OFFCURVE",
"1091 -88 QCURVE SMOOTH",
"1091 -291 OFFCURVE",
"809 -509 OFFCURVE",
"612 -509 QCURVE SMOOTH",
"416 -509 OFFCURVE",
"112 -298 OFFCURVE",
"112 -39 QCURVE",
"330 -37 LINE",
"330 -195 OFFCURVE",
"549 -297 OFFCURVE",
"612 -297 QCURVE SMOOTH",
"696 -297 OFFCURVE",
"873 -224 OFFCURVE",
"873 -131 QCURVE SMOOTH",
"873 -46 OFFCURVE",
"721 73 OFFCURVE",
"513 140 QCURVE SMOOTH",
"339 195 OFFCURVE",
"81 414 OFFCURVE",
"81 574 QCURVE SMOOTH",
"81 743 OFFCURVE",
"388 902 OFFCURVE",
"552 902 QCURVE"
);
}
);
width = 1270;
}
);
unicode = 00A7;
userData = {
com.typemytype.robofont.guideline.magnetic.9Hxjf2sdFw = 5;
com.typemytype.robofont.guideline.magnetic.QzZ5gIiCyn = 5;
};
},
{
glyphname = dieresis;
layers = (
{
layerId = "1BFE03A3-C162-48A6-B30A-9589691C03B8";
paths = (
{
closed = 1;
nodes = (
"49.349 1249.794 OFFCURVE",
"159.246 1369.627 OFFCURVE",
"264.111 1369.627 QCURVE SMOOTH",
"369.492 1369.627 OFFCURVE",
"479.389 1249.794 OFFCURVE",
"479.389 1163.056 QCURVE SMOOTH",
"479.389 1081.318 OFFCURVE",
"369.492 964 OFFCURVE",
"264.111 964 QCURVE SMOOTH",
"159.246 964 OFFCURVE",
"49.349 1081.318 OFFCURVE",
"49.349 1163.056 QCURVE SMOOTH"
);
},
{
closed = 1;
nodes = (
"544.127 1247.794 OFFCURVE",
"651.992 1367.627 OFFCURVE",
"758.889 1367.627 QCURVE SMOOTH",
"861.238 1367.627 OFFCURVE",
"973.651 1247.794 OFFCURVE",
"973.651 1161.056 QCURVE SMOOTH",
"973.651 1079.318 OFFCURVE",
"861.238 962 OFFCURVE",
"758.889 962 QCURVE SMOOTH",
"651.992 962 OFFCURVE",
"544.127 1079.318 OFFCURVE",
"544.127 1161.056 QCURVE SMOOTH"
);
}
);
width = 1024;
}
);
unicode = 00A8;
},
{
glyphname = copyright;
layers = (
{
guideLines = (
{
position = "{0, 901}";
},
{
position = "{0, 555}";
}
);
layerId = "1BFE03A3-C162-48A6-B30A-9589691C03B8";
paths = (
{
closed = 1;
nodes = (
"1240 549 LINE",
"1240 354 OFFCURVE",
"953 205 OFFCURVE",
"796 205 QCURVE SMOOTH",
"633 205 OFFCURVE",
"399 419 OFFCURVE",
"399 655 QCURVE SMOOTH",
"399 701 LINE SMOOTH",
"399 938 OFFCURVE",
"635 1170 OFFCURVE",
"830 1170 QCURVE SMOOTH",
"1029 1170 OFFCURVE",
"1244 977 OFFCURVE",
"1244 825 QCURVE",
"989 825 LINE",
"989 883 OFFCURVE",
"908 939 OFFCURVE",
"826 939 QCURVE SMOOTH",
"746 939 OFFCURVE",
"675 850 OFFCURVE",
"675 789 QCURVE SMOOTH",
"675 569 LINE SMOOTH",
"675 492 OFFCURVE",
"767 422 OFFCURVE",
"846 422 QCURVE SMOOTH",
"925 422 OFFCURVE",
"983 486 OFFCURVE",
"983 549 QCURVE"
);
},
{
closed = 1;
nodes = (
"206 420 OFFCURVE",
"587 35 OFFCURVE",
"828 35 QCURVE SMOOTH",
"1068 35 OFFCURVE",
"1449 420 OFFCURVE",
"1449 687 QCURVE SMOOTH",
"1449 958 OFFCURVE",
"1068 1335 OFFCURVE",
"828 1335 QCURVE SMOOTH",
"587 1335 OFFCURVE",
"206 958 OFFCURVE",
"206 687 QCURVE SMOOTH"
);
},
{
closed = 1;
nodes = (
"18 1039 OFFCURVE",
"501 1539 OFFCURVE",
"827 1539 QCURVE SMOOTH",
"1152 1539 OFFCURVE",
"1636 1039 OFFCURVE",
"1636 687 QCURVE SMOOTH",
"1636 337 OFFCURVE",
"1152 -167 OFFCURVE",
"827 -167 QCURVE SMOOTH",
"501 -167 OFFCURVE",
"18 337 OFFCURVE",
"18 687 QCURVE SMOOTH"
);
}
);
width = 1654;
}
);
leftKerningGroup = copyright;
rightKerningGroup = copyright;
unicode = 00A9;
userData = {
com.typemytype.robofont.guideline.magnetic.0Pjz0qKr8z = 5;
com.typemytype.robofont.guideline.magnetic.sJo8BlDiJ7 = 5;
};
},
{
glyphname = ordfeminine;
layers = (
{
guideLines = (
{
position = "{0, 1681}";
},
{
position = "{0, 909}";
}
);
layerId = "1BFE03A3-C162-48A6-B30A-9589691C03B8";
paths = (
{
closed = 1;
nodes = (
"584 821 OFFCURVE",
"604 736 OFFCURVE",
"627 706 QCURVE",
"804 706 LINE",
"790 749 OFFCURVE",
"778 838 OFFCURVE",
"778 887 QCURVE SMOOTH",
"778 1201 LINE SMOOTH",
"778 1342 OFFCURVE",
"602 1477 OFFCURVE",
"464 1477 QCURVE SMOOTH",
"337 1477 OFFCURVE",
"152 1356 OFFCURVE",
"148 1261 QCURVE SMOOTH",
"148 1234 LINE",
"350 1234 LINE",
"350 1247 LINE SMOOTH",
"350 1273 OFFCURVE",
"409 1312 OFFCURVE",
"466 1312 QCURVE SMOOTH",
"522 1312 OFFCURVE",
"584 1264 OFFCURVE",
"584 1202 QCURVE SMOOTH",
"584 862 LINE"
);
},
{
closed = 1;
nodes = (
"477 1149 LINE SMOOTH",
"291 1149 OFFCURVE",
"124 1027 OFFCURVE",
"124 918 QCURVE SMOOTH",
"124 823 OFFCURVE",
"258 692 OFFCURVE",
"387 692 QCURVE SMOOTH",
"488 692 OFFCURVE",
"619 788 OFFCURVE",
"641 837 QCURVE",
"618 982 LINE",
"618 944 OFFCURVE",
"490 855 OFFCURVE",
"426 855 QCURVE SMOOTH",
"374 855 OFFCURVE",
"328 900 OFFCURVE",
"328 922 QCURVE SMOOTH",
"328 952 OFFCURVE",
"399 1028 OFFCURVE",
"478 1029 QCURVE SMOOTH",
"635 1029 LINE",
"635 1149 LINE"
);
}
);
width = 916;
}
);
unicode = 00AA;
userData = {
com.typemytype.robofont.guideline.magnetic.3CJlALCfkl = 5;
com.typemytype.robofont.guideline.magnetic.Zdl6NZVQAy = 5;
};
},
{
glyphname = guillemotleft;
layers = (
{
guideLines = (
{
position = "{0, 901}";
},
{
position = "{0, 555}";
}
);
layerId = "1BFE03A3-C162-48A6-B30A-9589691C03B8";
paths = (
{
closed = 1;
nodes = (
"108 609 LINE",
"438 983 LINE",
"654 983 LINE",
"385 568 LINE",
"654 153 LINE",
"438 153 LINE",
"108 528 LINE"
);
},
{
closed = 1;
nodes = (
"567 609 LINE",
"896 983 LINE",
"1113 983 LINE",
"844 568 LINE",
"1113 153 LINE",
"896 153 LINE",
"567 528 LINE"
);
}
);
width = 1158;
}
);
leftKerningGroup = guillemotleft;
rightKerningGroup = guillemotleft;
unicode = 00AB;
userData = {
com.typemytype.robofont.guideline.magnetic.MVJpdoVRVd = 5;
com.typemytype.robofont.guideline.magnetic.ZftBQarVKw = 5;
};
},
{
glyphname = logicalnot;
layers = (
{
layerId = "1BFE03A3-C162-48A6-B30A-9589691C03B8";
paths = (
{
closed = 1;
nodes = (
"1051 376 LINE",
"790 376 LINE",
"790 630 LINE",
"58 630 LINE",
"58 861 LINE",
"1051 861 LINE"
);
}
);
width = 1024;
}
);
unicode = 00AC;
},
{
glyphname = registered;
layers = (
{
layerId = "1BFE03A3-C162-48A6-B30A-9589691C03B8";
paths = (
{
closed = 1;
nodes = (
"18 1039 OFFCURVE",
"501 1539 OFFCURVE",
"827 1539 QCURVE SMOOTH",
"1152 1539 OFFCURVE",
"1636 1039 OFFCURVE",
"1636 687 QCURVE SMOOTH",
"1636 337 OFFCURVE",
"1152 -157 OFFCURVE",
"827 -157 QCURVE SMOOTH",
"501 -157 OFFCURVE",
"18 337 OFFCURVE",
"18 687 QCURVE SMOOTH"
);
},
{
closed = 1;
nodes = (
"206 428 OFFCURVE",
"587 44 OFFCURVE",
"828 44 QCURVE SMOOTH",
"1068 44 OFFCURVE",
"1449 428 OFFCURVE",
"1449 687 QCURVE SMOOTH",
"1449 953 OFFCURVE",
"1068 1337 OFFCURVE",
"828 1337 QCURVE SMOOTH",
"587 1337 OFFCURVE",
"206 953 OFFCURVE",
"206 687 QCURVE SMOOTH"
);
},
{
closed = 1;
nodes = (
"689 575 LINE",
"689 225 LINE",
"469 225 LINE",
"469 1158 LINE",
"821 1158 LINE SMOOTH",
"998 1158 OFFCURVE",
"1227 1018 OFFCURVE",
"1227 867 QCURVE SMOOTH",
"1227 742 OFFCURVE",
"1117 626 OFFCURVE",
"1000 604 QCURVE",
"1040 581 OFFCURVE",
"1056 559 OFFCURVE",
"1074 530 QCURVE SMOOTH",
"1258 243 LINE",
"1258 225 LINE",
"1012 225 LINE",
"836 575 LINE"
);
},
{
closed = 1;
nodes = (
"689 955 LINE",
"689 760 LINE",
"847 760 LINE SMOOTH",
"892 760 OFFCURVE",
"975 789 OFFCURVE",
"975 838 QCURVE SMOOTH",
"975 915 OFFCURVE",
"945 954 OFFCURVE",
"822 955 QCURVE SMOOTH"
);
}
);
width = 1654;
}
);
leftKerningGroup = copyright;
rightKerningGroup = copyright;
unicode = 00AE;
},
{
glyphname = macron;
layers = (
{
layerId = "1BFE03A3-C162-48A6-B30A-9589691C03B8";
paths = (
{
closed = 1;
nodes = (
"878.103 1014 LINE",
"145.897 1014 LINE",
"145.897 1370.682 LINE",
"878.103 1370.682 LINE"
);
}
);
width = 1024;
}
);
unicode = 00AF;
},
{
glyphname = degree;
layers = (
{
layerId = "1BFE03A3-C162-48A6-B30A-9589691C03B8";
paths = (
{
closed = 1;
nodes = (
"112 1331 OFFCURVE",
"274.269 1497 OFFCURVE",
"386 1497 QCURVE SMOOTH",
"496.985 1497 OFFCURVE",
"656 1330.94 OFFCURVE",
"656 1217 QCURVE SMOOTH",
"656 1102.567 OFFCURVE",
"496.985 940 OFFCURVE",
"386 940 QCURVE SMOOTH",
"274.269 940 OFFCURVE",
"112 1102 OFFCURVE",
"112 1217 QCURVE"
);
},
{
closed = 1;
nodes = (
"265 1165.552 OFFCURVE",
"336.537 1098 OFFCURVE",
"386 1098 QCURVE SMOOTH",
"435.463 1098 OFFCURVE",
"503 1165.552 OFFCURVE",
"503 1217 QCURVE SMOOTH",
"503 1268.94 OFFCURVE",
"435.463 1339 OFFCURVE",
"386 1339 QCURVE SMOOTH",
"336.537 1339 OFFCURVE",
"265 1268.94 OFFCURVE",
"265 1217 QCURVE"
);
}
);
width = 765;
}
);
unicode = 00B0;
},
{
glyphname = plusminus;
layers = (
{
layerId = "1BFE03A3-C162-48A6-B30A-9589691C03B8";
paths = (
{
closed = 1;
nodes = (
"31 828 LINE",
"989 828 LINE",
"989 596 LINE",
"31 596 LINE"
);
},
{
closed = 1;
nodes = (
"384 1180 LINE",
"636 1180 LINE",
"636 288 LINE",
"384 288 LINE"
);
},
{
closed = 1;
nodes = (
"37 232 LINE",
"987 232 LINE",
"987 1 LINE",
"37 1 LINE"
);
}
);
width = 1024;
}
);
unicode = 00B1;
},
{
glyphname = twosuperior;
layers = (
{
layerId = "1BFE03A3-C162-48A6-B30A-9589691C03B8";
paths = (
{
closed = 1;
nodes = (
"85 805 LINE",
"373 1066 LINE SMOOTH",
"441 1127 OFFCURVE",
"479 1216 OFFCURVE",
"479 1249 QCURVE SMOOTH",
"479 1297 OFFCURVE",
"429 1354 OFFCURVE",
"370 1354 QCURVE SMOOTH",
"305 1354 OFFCURVE",
"234 1273 OFFCURVE",
"235 1198 QCURVE",
"67 1198 LINE",
"66 1329 OFFCURVE",
"224 1487 OFFCURVE",
"366 1487 QCURVE SMOOTH",
"500 1487 OFFCURVE",
"652 1359 OFFCURVE",
"652 1251 QCURVE SMOOTH",
"652 1171 OFFCURVE",
"551 1047 OFFCURVE",
"463 971 QCURVE SMOOTH",
"314 845 LINE",
"683 845 LINE",
"683 697 LINE",
"85 697 LINE"
);
}
);
width = 751;
}
);
unicode = 00B2;
},
{
glyphname = threesuperior;
layers = (
{
layerId = "1BFE03A3-C162-48A6-B30A-9589691C03B8";
paths = (
{
closed = 1;
nodes = (
"220 920 LINE",
"220 875 OFFCURVE",
"300 824 OFFCURVE",
"366 824 QCURVE SMOOTH",
"435 824 OFFCURVE",
"499 876 OFFCURVE",
"499 925 QCURVE SMOOTH",
"499 978 OFFCURVE",
"423 1028 OFFCURVE",
"350 1029 QCURVE SMOOTH",
"266 1029 LINE",
"266 1151 LINE",
"350 1151 LINE SMOOTH",
"422 1151 OFFCURVE",
"486 1207 OFFCURVE",
"486 1255 QCURVE SMOOTH",
"486 1299 OFFCURVE",
"432 1347 OFFCURVE",
"363 1347 QCURVE SMOOTH",
"306 1347 OFFCURVE",
"231 1299 OFFCURVE",
"231 1256 QCURVE",
"86 1256 LINE",
"86 1357 OFFCURVE",
"241 1487 OFFCURVE",
"360 1487 QCURVE SMOOTH",
"490 1487 OFFCURVE",
"656 1372 OFFCURVE",
"656 1263 QCURVE SMOOTH",
"656 1212 OFFCURVE",
"593 1120 OFFCURVE",
"533 1098 QCURVE",
"601 1075 OFFCURVE",
"667 983 OFFCURVE",
"667 917 QCURVE SMOOTH",
"667 807 OFFCURVE",
"491 686 OFFCURVE",
"361 686 QCURVE SMOOTH",
"248 686 OFFCURVE",
"75 798 OFFCURVE",
"75 920 QCURVE"
);
}
);
width = 751;
}
);
unicode = 00B3;
},
{
glyphname = acute;
layers = (
{
layerId = "1BFE03A3-C162-48A6-B30A-9589691C03B8";
paths = (
{
closed = 1;
nodes = (
"315.817 1494.286 LINE",
"783.849 1379.294 LINE",
"544.73 1018.008 LINE",
"120.278 1134.937 LINE"
);
}
);
width = 839;
}
);
unicode = 00B4;
},
{
glyphname = paragraph;
layers = (
{
guideLines = (
{
position = "{0, 901}";
},
{
position = "{0, 555}";
}
);
layerId = "1BFE03A3-C162-48A6-B30A-9589691C03B8";
paths = (
{
closed = 1;
nodes = (
"643 -146 LINE",
"643 547 LINE",
"539 547 LINE SMOOTH",
"306 547 OFFCURVE",
"56 805 OFFCURVE",
"56 1002 QCURVE SMOOTH",
"56 1195 OFFCURVE",
"306 1456 OFFCURVE",
"539 1456 QCURVE SMOOTH",
"905 1456 LINE",
"905 -146 LINE"
);
},
{
closed = 1;
nodes = (
"1312 1459 LINE",
"1312 -146 LINE",
"1047 -146 LINE",
"1047 1459 LINE"
);
}
);
width = 1605;
}
);
unicode = 00B6;
userData = {
com.typemytype.robofont.guideline.magnetic.27539Lsr1A = 5;
com.typemytype.robofont.guideline.magnetic.e34wUdCmXR = 5;
};
},
{
glyphname = periodcentered;
layers = (
{
layerId = "1BFE03A3-C162-48A6-B30A-9589691C03B8";
paths = (
{
closed = 1;
nodes = (
"176 798 OFFCURVE",
"240 868 OFFCURVE",
"300 868 QCURVE SMOOTH",
"360 868 OFFCURVE",
"424 798 OFFCURVE",
"424 749 QCURVE SMOOTH",
"424 700 OFFCURVE",
"360 630 OFFCURVE",
"300 630 QCURVE SMOOTH",
"240 630 OFFCURVE",
"176 700 OFFCURVE",
"176 749 QCURVE SMOOTH"
);
}
);
width = 600;
}
);
unicode = 00B7;
},
{
glyphname = cedilla;
layers = (
{
layerId = "1BFE03A3-C162-48A6-B30A-9589691C03B8";
paths = (
{
closed = 1;
nodes = (
"595.857 42 LINE",
"565.214 -56.159 LINE",
"646.595 -67.19 OFFCURVE",
"756.619 -145.833 OFFCURVE",
"756.619 -235.96 QCURVE SMOOTH",
"756.619 -333.151 OFFCURVE",
"586.31 -449.341 OFFCURVE",
"296.429 -449.341 QCURVE",
"285.881 -298.571 LINE",
"365.262 -298.571 OFFCURVE",
"432.579 -270.54 OFFCURVE",
"432.579 -239.476 QCURVE SMOOTH",
"432.579 -211.444 OFFCURVE",
"385.357 -190.413 OFFCURVE",
"325.071 -185.381 QCURVE",
"386.357 42 LINE"
);
}
);
width = 1024;
}
);
unicode = 00B8;
},
{
glyphname = onesuperior;
layers = (
{
layerId = "1BFE03A3-C162-48A6-B30A-9589691C03B8";
paths = (
{
closed = 1;
nodes = (
"123 1370 LINE",
"457 1486 LINE",
"501 1486 LINE",
"501 690 LINE",
"339 690 LINE",
"339 1288 LINE",
"123 1211 LINE"
);
}
);
width = 751;
}
);
unicode = 00B9;
},
{
glyphname = ordmasculine;
layers = (
{
guideLines = (
{
position = "{0, 1975}";
}
);
layerId = "1BFE03A3-C162-48A6-B30A-9589691C03B8";
paths = (
{
closed = 1;
nodes = (
"110 1124 LINE",
"110 1278 OFFCURVE",
"308 1477 OFFCURVE",
"465 1477 QCURVE SMOOTH",
"623 1477 OFFCURVE",
"819 1277.731 OFFCURVE",
"819 1124 QCURVE",
"819 1043 LINE",
"819 889.269 OFFCURVE",
"624 691 OFFCURVE",
"467 691 QCURVE SMOOTH",
"309 691 OFFCURVE",
"110 889 OFFCURVE",
"110 1043 QCURVE"
);
},
{
closed = 1;
nodes = (
"326 1043 LINE",
"326 982.955 OFFCURVE",
"389.209 870 OFFCURVE",
"467 870 QCURVE SMOOTH",
"539.806 870 OFFCURVE",
"605 982.955 OFFCURVE",
"605 1043 QCURVE",
"605 1124 LINE",
"605 1180.806 OFFCURVE",
"539.299 1296 OFFCURVE",
"465 1296 QCURVE SMOOTH",
"390.702 1296 OFFCURVE",
"326 1180.806 OFFCURVE",
"326 1124 QCURVE"
);
}
);
width = 932;
}
);
unicode = 00BA;
userData = {
com.typemytype.robofont.guideline.magnetic.Jnt0R9CyOf = 5;
};
},
{
glyphname = guillemotright;
layers = (
{
guideLines = (
{
position = "{0, 98}";
},
{
position = "{0, 443}";
}
);
layerId = "1BFE03A3-C162-48A6-B30A-9589691C03B8";
paths = (
{
closed = 1;
nodes = (
"314 568 LINE",
"45 983 LINE",
"262 983 LINE",
"591 609 LINE",
"591 528 LINE",
"262 153 LINE",
"45 153 LINE"
);
},
{
closed = 1;
nodes = (
"773 568 LINE",
"504 983 LINE",
"720 983 LINE",
"1050 609 LINE",
"1050 528 LINE",
"720 153 LINE",
"504 153 LINE"
);
}
);
width = 1158;
}
);
leftKerningGroup = guillemotright;
rightKerningGroup = guillemotright;
unicode = 00BB;
userData = {
com.typemytype.robofont.guideline.magnetic.G9bQni2n1K = 5;
com.typemytype.robofont.guideline.magnetic.MTEldNnfdj = 5;
};
},
{
glyphname = questiondown;
layers = (
{
guideLines = (
{
position = "{0, -181}";
},
{
position = "{0, 921}";
}
);
layerId = "1BFE03A3-C162-48A6-B30A-9589691C03B8";
paths = (
{
closed = 1;
nodes = (
"750 958 OFFCURVE",
"664 870 OFFCURVE",
"584 870 QCURVE SMOOTH",
"504 870 OFFCURVE",
"418 958 OFFCURVE",
"418 1020 QCURVE SMOOTH",
"418 1082 OFFCURVE",
"504 1170 OFFCURVE",
"584 1170 QCURVE SMOOTH",
"665 1170 OFFCURVE",
"750 1082 OFFCURVE",
"750 1020 QCURVE SMOOTH"
);
},
{
closed = 1;
nodes = (
"1068 26 LINE SMOOTH",
"1068 -133 OFFCURVE",
"801 -328 OFFCURVE",
"569 -328 QCURVE SMOOTH",
"337 -328 OFFCURVE",
"76 -106 OFFCURVE",
"76 87 QCURVE SMOOTH",
"76 212 OFFCURVE",
"292 462 OFFCURVE",
"352 493 QCURVE SMOOTH",
"440 554 OFFCURVE",
"470 668 OFFCURVE",
"470 733 QCURVE SMOOTH",
"470 743 LINE",
"729 743 LINE",
"729 733 LINE SMOOTH",
"729 597 OFFCURVE",
"678 477 OFFCURVE",
"567 380 QCURVE SMOOTH",
"480 305 OFFCURVE",
"337 174 OFFCURVE",
"337 87 QCURVE SMOOTH",
"337 -5 OFFCURVE",
"452 -97 OFFCURVE",
"570 -97 QCURVE SMOOTH",
"687 -97 OFFCURVE",
"809 -33 OFFCURVE",
"809 26 QCURVE SMOOTH",
"809 44 LINE",
"1068 44 LINE"
);
}
);
width = 1113;
}
);
unicode = 00BF;
userData = {
com.typemytype.robofont.guideline.magnetic.5ZPZZL8Rim = 5;
com.typemytype.robofont.guideline.magnetic.apukwP5ffL = 5;
};
},
{
glyphname = AE;
layers = (
{
layerId = "1BFE03A3-C162-48A6-B30A-9589691C03B8";
paths = (
{
closed = 1;
nodes = (
"469 568 LINE",
"1129 568 LINE",
"1129 313 LINE",
"323 313 LINE"
);
},
{
closed = 1;
nodes = (
"860 1456 LINE",
"2060 1456 LINE",
"2060 1239 LINE",
"1248 1239 LINE",
"1248 859 LINE",
"1974 859 LINE",
"1974 642 LINE",
"1248 642 LINE",
"1248 217 LINE",
"2070 217 LINE",
"2070 0 LINE",
"974 0 LINE",
"974 1170 LINE",
"317 0 LINE",
"-21 0 LINE"
);
}
);
width = 2210;
}
);
leftKerningGroup = AE_UC;
rightKerningGroup = E_UC;
unicode = 00C6;
},
{
glyphname = multiply;
layers = (
{
layerId = "1BFE03A3-C162-48A6-B30A-9589691C03B8";
paths = (
{
closed = 1;
nodes = (
"22 321 LINE",
"839 1172 LINE",
"980 1021 LINE",
"163 172 LINE"
);
},
{
closed = 1;
nodes = (
"28 999 LINE",
"191 1172 LINE",
"986 343 LINE",
"823 172 LINE"
);
}
);
width = 1024;
}
);
unicode = 00D7;
},
{
glyphname = OE;
layers = (
{
layerId = "1BFE03A3-C162-48A6-B30A-9589691C03B8";
paths = (
{
closed = 1;
nodes = (
"775 1477 OFFCURVE",
"926 1464 OFFCURVE",
"993 1456 QCURVE",
"2019 1456 LINE",
"2019 1239 LINE",
"1191 1239 LINE",
"1191 859 LINE",
"1933 859 LINE",
"1933 644 LINE",
"1191 644 LINE",
"1191 215 LINE",
"2029 215 LINE",
"2029 0 LINE",
"993 0 LINE",
"926 -7 OFFCURVE",
"777 -21 OFFCURVE",
"701 -21 QCURVE SMOOTH",
"487 -21 OFFCURVE",
"144 340 OFFCURVE",
"144 682 QCURVE SMOOTH",
"144 772 LINE SMOOTH",
"144 1105 OFFCURVE",
"484 1477 OFFCURVE",
"742 1477 QCURVE SMOOTH"
);
},
{
closed = 1;
nodes = (
"422 417 OFFCURVE",
"613 177 OFFCURVE",
"744 177 QCURVE SMOOTH",
"797 177 OFFCURVE",
"877 186 OFFCURVE",
"915 192 QCURVE",
"915 1258 LINE",
"863 1265 OFFCURVE",
"768 1273 OFFCURVE",
"746 1273 QCURVE SMOOTH",
"606 1273 OFFCURVE",
"422 1023 OFFCURVE",
"422 774 QCURVE SMOOTH",
"422 682 LINE SMOOTH"
);
}
);
width = 2169;
}
);
leftKerningGroup = CG_UC;
rightKerningGroup = E_UC;
unicode = 0152;
},
{
glyphname = Thorn;
layers = (
{
guideLines = (
{
position = "{0, 901}";
},
{
position = "{0, 555}";
}
);
layerId = "1BFE03A3-C162-48A6-B30A-9589691C03B8";
paths = (
{
closed = 1;
nodes = (
"470 1456 LINE",
"470 1163 LINE",
"762 1163 LINE SMOOTH",
"1028 1163 OFFCURVE",
"1333 943 OFFCURVE",
"1333 736 QCURVE SMOOTH",
"1333 529 OFFCURVE",
"1028 313 OFFCURVE",
"762 314 QCURVE SMOOTH",
"470 314 LINE",
"470 0 LINE",
"210 0 LINE",
"210 1456 LINE"
);
},
{
closed = 1;
nodes = (
"470 960 LINE",
"470 517 LINE",
"762 517 LINE SMOOTH",
"920 517 OFFCURVE",
"1074 605 OFFCURVE",
"1074 733 QCURVE SMOOTH",
"1074 860 OFFCURVE",
"920 961 OFFCURVE",
"762 960 QCURVE SMOOTH"
);
}
);
width = 1388;
}
);
leftKerningGroup = StraightRight_UC;
unicode = 00DE;
userData = {
com.typemytype.robofont.guideline.magnetic.T8KKW8oxop = 5;
com.typemytype.robofont.guideline.magnetic.i9jYwjBDP4 = 5;
};
},
{
glyphname = germandbls;
layers = (
{
layerId = "1BFE03A3-C162-48A6-B30A-9589691C03B8";
paths = (
{
closed = 1;
nodes = (
"436 0 LINE",
"178 0 LINE",
"178 1091 LINE SMOOTH",
"178 1294 OFFCURVE",
"433 1532 OFFCURVE",
"653 1532 QCURVE SMOOTH",
"835 1532 OFFCURVE",
"1053 1359 OFFCURVE",
"1053 1214 QCURVE SMOOTH",
"1053 1126 OFFCURVE",
"998 1015 OFFCURVE",
"957 972 QCURVE SMOOTH",
"922 934 OFFCURVE",
"857 877 OFFCURVE",
"857 848 QCURVE SMOOTH",
"857 800 OFFCURVE",
"1019 702 OFFCURVE",
"1109 640 QCURVE SMOOTH",
"1195 581 OFFCURVE",
"1298 418 OFFCURVE",
"1298 282 QCURVE SMOOTH",
"1298 157 OFFCURVE",
"1057 -20 OFFCURVE",
"872 -20 QCURVE SMOOTH",
"691 -20 OFFCURVE",
"482 129 OFFCURVE",
"476 278 QCURVE SMOOTH",
"476 304 LINE",
"696 304 LINE",
"696 295 LINE SMOOTH",
"696 232 OFFCURVE",
"791 184 OFFCURVE",
"874 184 QCURVE SMOOTH",
"963 184 OFFCURVE",
"1056 242 OFFCURVE",
"1056 302 QCURVE SMOOTH",
"1056 378 OFFCURVE",
"947 465 OFFCURVE",
"884 511 QCURVE SMOOTH",
"805 568 OFFCURVE",
"614 705 OFFCURVE",
"614 796 QCURVE SMOOTH",
"614 870 OFFCURVE",
"706 981 OFFCURVE",
"742 1025 QCURVE SMOOTH",
"773 1065 OFFCURVE",
"812 1148 OFFCURVE",
"812 1203 QCURVE SMOOTH",
"812 1269 OFFCURVE",
"707 1328 OFFCURVE",
"648 1328 QCURVE SMOOTH",
"551 1328 OFFCURVE",
"436 1223 OFFCURVE",
"436 1091 QCURVE {name = hr00;}"
);
}
);
width = 1334;
}
);
unicode = 00DF;
},
{
glyphname = ae;
layers = (
{
layerId = "1BFE03A3-C162-48A6-B30A-9589691C03B8";
paths = (
{
closed = 1;
nodes = (
"385 287 OFFCURVE",
"486 171 OFFCURVE",
"607 171 QCURVE SMOOTH",
"720 171 OFFCURVE",
"899 331 OFFCURVE",
"899 410 QCURVE",
"899 573 LINE",
"664 573 LINE SMOOTH",
"532 573 OFFCURVE",
"385 467 OFFCURVE",
"385 379 QCURVE SMOOTH"
);
},
{
closed = 1;
nodes = (
"120 549 OFFCURVE",
"423 746 OFFCURVE",
"643 746 QCURVE SMOOTH",
"899 746 LINE",
"899 795 LINE SMOOTH",
"899 893 OFFCURVE",
"813 1033 OFFCURVE",
"675 1033 QCURVE SMOOTH",
"545 1033 OFFCURVE",
"457 917 OFFCURVE",
"457 867 QCURVE SMOOTH",
"457 881 LINE",
"195 881 LINE",
"195 854 LINE SMOOTH",
"195 1000 OFFCURVE",
"461 1230 OFFCURVE",
"684 1230 QCURVE SMOOTH",
"898 1230 OFFCURVE",
"1089 1043 OFFCURVE",
"1080 963 QCURVE",
"1070 1047 OFFCURVE",
"1251 1230 OFFCURVE",
"1447 1230 QCURVE SMOOTH",
"1702 1230 OFFCURVE",
"1982 899 OFFCURVE",
"1982 633 QCURVE SMOOTH",
"1982 524 LINE",
"1050 524 LINE",
"1050 725 LINE",
"1714 725 LINE",
"1716 769 LINE",
"1714 884 OFFCURVE",
"1569 1025 OFFCURVE",
"1441 1025 QCURVE SMOOTH",
"1305 1025 OFFCURVE",
"1155 771 OFFCURVE",
"1155 610 QCURVE SMOOTH",
"1155 578 LINE SMOOTH",
"1155 417 OFFCURVE",
"1312 166 OFFCURVE",
"1495 166 QCURVE SMOOTH",
"1599 166 OFFCURVE",
"1755 266 OFFCURVE",
"1808 324 QCURVE",
"1974 206 LINE",
"1911 118 OFFCURVE",
"1661 -40 OFFCURVE",
"1493 -40 QCURVE SMOOTH",
"1332 -40 OFFCURVE",
"1051 79 OFFCURVE",
"981 228 QCURVE",
"955 107 OFFCURVE",
"728 -27 OFFCURVE",
"545 -27 QCURVE SMOOTH",
"382 -27 OFFCURVE",
"120 174 OFFCURVE",
"120 342 QCURVE SMOOTH"
);
}
);
width = 2048;
}
);
leftKerningGroup = a_LC;
rightKerningGroup = e_LC;
unicode = 00E6;
},
{
glyphname = eth;
layers = (
{
layerId = "1BFE03A3-C162-48A6-B30A-9589691C03B8";
paths = (
{
closed = 1;
nodes = (
"326 1698 LINE",
"713 1617 OFFCURVE",
"1188 1185 OFFCURVE",
"1188 740 QCURVE",
"1188 626 LINE",
"1188 336 OFFCURVE",
"882 -20 OFFCURVE",
"655 -20 QCURVE SMOOTH",
"414 -20 OFFCURVE",
"114 320 OFFCURVE",
"114 548 QCURVE SMOOTH",
"114 822 OFFCURVE",
"399 1141 OFFCURVE",
"611 1141 QCURVE SMOOTH",
"803 1141 OFFCURVE",
"1038 867 OFFCURVE",
"1038 716 QCURVE",
"949 717 LINE",
"949 768 OFFCURVE",
"850 934 OFFCURVE",
"685 934 QCURVE SMOOTH",
"525 934 OFFCURVE",
"376 732 OFFCURVE",
"376 548 QCURVE SMOOTH",
"376 438 OFFCURVE",
"510 187 OFFCURVE",
"659 187 QCURVE SMOOTH",
"788 187 OFFCURVE",
"923 442 OFFCURVE",
"923 626 QCURVE SMOOTH",
"923 742 LINE SMOOTH",
"923 1139 OFFCURVE",
"524 1395 OFFCURVE",
"241 1464 QCURVE"
);
},
{
closed = 1;
nodes = (
"486 1119 LINE",
"373 1277 LINE",
"982 1669 LINE",
"1095 1512 LINE"
);
}
);
width = 1299;
}
);
unicode = 00F0;
},
{
glyphname = divide;
layers = (
{
layerId = "1BFE03A3-C162-48A6-B30A-9589691C03B8";
paths = (
{
closed = 1;
nodes = (
"271 1175 OFFCURVE",
"355 1267 OFFCURVE",
"438 1267 QCURVE SMOOTH",
"519 1267 OFFCURVE",
"606 1175 OFFCURVE",
"606 1105 QCURVE SMOOTH",
"606 1037 OFFCURVE",
"519 946 OFFCURVE",
"438 946 QCURVE SMOOTH",
"355 946 OFFCURVE",
"271 1037 OFFCURVE",
"271 1105 QCURVE SMOOTH"
);
},
{
closed = 1;
nodes = (
"271 324 OFFCURVE",
"355 418 OFFCURVE",
"438 418 QCURVE SMOOTH",
"519 418 OFFCURVE",
"606 324 OFFCURVE",
"606 256 QCURVE SMOOTH",
"606 188 OFFCURVE",
"519 95 OFFCURVE",
"438 95 QCURVE SMOOTH",
"355 95 OFFCURVE",
"271 188 OFFCURVE",
"271 256 QCURVE SMOOTH"
);
},
{
closed = 1;
nodes = (
"-40 814 LINE",
"918 814 LINE",
"918 550 LINE",
"-40 550 LINE"
);
}
);
width = 878;
}
);
unicode = 00F7;
},
{
glyphname = oe;
layers = (
{
layerId = "1BFE03A3-C162-48A6-B30A-9589691C03B8";
paths = (
{
closed = 1;
nodes = (
"384 578 LINE SMOOTH",
"384 412 OFFCURVE",
"540 166 OFFCURVE",
"699 166 QCURVE SMOOTH",
"856 166 OFFCURVE",
"1012 410 OFFCURVE",
"1012 577 QCURVE SMOOTH",
"1012 611 LINE SMOOTH",
"1012 778 OFFCURVE",
"856 1025 OFFCURVE",
"699 1025 QCURVE SMOOTH",
"540 1025 OFFCURVE",
"384 776 OFFCURVE",
"384 611 QCURVE SMOOTH"
);
},
{
closed = 1;
nodes = (
"1132 1029 OFFCURVE",
"1389 1230 OFFCURVE",
"1632 1230 QCURVE SMOOTH",
"1831 1230 OFFCURVE",
"2111 899 OFFCURVE",
"2111 633 QCURVE SMOOTH",
"2111 524 LINE",
"1179 524 LINE",
"1179 725 LINE",
"1843 725 LINE",
"1845 769 LINE",
"1843 884 OFFCURVE",
"1698 1025 OFFCURVE",
"1592 1025 QCURVE SMOOTH",
"1434 1025 OFFCURVE",
"1284 773 OFFCURVE",
"1284 610 QCURVE SMOOTH",
"1284 578 LINE SMOOTH",
"1284 415 OFFCURVE",
"1421 166 OFFCURVE",
"1604 166 QCURVE SMOOTH",
"1708 166 OFFCURVE",
"1884 266 OFFCURVE",
"1937 324 QCURVE",
"2103 206 LINE",
"2040 118 OFFCURVE",
"1790 -40 OFFCURVE",
"1664 -40 QCURVE SMOOTH",
"1394 -40 OFFCURVE",
"1158 131 OFFCURVE",
"1145 183 QCURVE",
"1134 132 OFFCURVE",
"907 -40 OFFCURVE",
"638 -40 QCURVE SMOOTH",
"432 -40 OFFCURVE",
"114 311 OFFCURVE",
"114 578 QCURVE SMOOTH",
"114 610 LINE SMOOTH",
"114 879 OFFCURVE",
"429 1228 OFFCURVE",
"674 1228 QCURVE SMOOTH",
"925 1228 OFFCURVE",
"1148 1019 OFFCURVE",
"1140 1007 QCURVE"
);
}
);
width = 2168;
}
);
leftKerningGroup = alpha;
rightKerningGroup = e_LC;
unicode = 0153;
},
{
glyphname = thorn;
layers = (
{
layerId = "1BFE03A3-C162-48A6-B30A-9589691C03B8";
paths = (
{
closed = 1;
nodes = (
"178 1536 LINE",
"448 1536 LINE",
"448 1074 LINE",
"502 1140 OFFCURVE",
"650 1210 OFFCURVE",
"771 1210 QCURVE SMOOTH",
"999 1210 OFFCURVE",
"1289 855 OFFCURVE",
"1289 605 QCURVE SMOOTH",
"1289 573 LINE SMOOTH",
"1289 327 OFFCURVE",
"999 -20 OFFCURVE",
"771 -20 QCURVE SMOOTH",
"651 -20 OFFCURVE",
"498 57 OFFCURVE",
"462 114 QCURVE",
"457 114 LINE",
"441 -388 LINE",
"178 -388 LINE"
);
},
{
closed = 1;
nodes = (
"474 301 OFFCURVE",
"618 186 OFFCURVE",
"720 186 QCURVE SMOOTH",
"875 186 OFFCURVE",
"1019 413 OFFCURVE",
"1019 572 QCURVE SMOOTH",
"1019 605 LINE SMOOTH",
"1019 765 OFFCURVE",
"875 1005 OFFCURVE",
"720 1005 QCURVE SMOOTH",
"617 1005 OFFCURVE",
"474 889 OFFCURVE",
"443 817 QCURVE",
"443 372 LINE"
);
}
);
width = 1403;
}
);
rightKerningGroup = b_LC;
unicode = 00FE;
},
{
glyphname = circumflex;
layers = (
{
layerId = "1BFE03A3-C162-48A6-B30A-9589691C03B8";
paths = (
{
closed = 1;
nodes = (
"967.016 979 LINE",
"613.429 979 LINE",
"506 1062.159 LINE",
"398.056 979 LINE",
"48.5 979 LINE",
"427.135 1428.405 LINE",
"583.349 1428.405 LINE"
);
}
);
width = 1024;
}
);
unicode = 02C6;
},
{
glyphname = caron;
layers = (
{
layerId = "1BFE03A3-C162-48A6-B30A-9589691C03B8";
paths = (
{
closed = 1;
nodes = (
"63.976 1423.246 LINE",
"417.564 1423.246 LINE",
"509.516 1340.087 LINE",
"601.984 1423.246 LINE",
"951.54 1423.246 LINE",
"588.381 973.841 LINE",
"432.167 973.841 LINE"
);
}
);
width = 1024;
}
);
unicode = 02C7;
},
{
glyphname = breve;
layers = (
{
layerId = "1BFE03A3-C162-48A6-B30A-9589691C03B8";
paths = (
{
closed = 1;
nodes = (
"946.286 1328.437 LINE",
"900.548 1190.508 OFFCURVE",
"674.857 958.841 OFFCURVE",
"513 958.841 QCURVE SMOOTH",
"367.238 958.841 OFFCURVE",
"134.516 1172.476 OFFCURVE",
"79.714 1330.437 QCURVE",
"328.532 1404.143 LINE",
"357.69 1365.532 OFFCURVE",
"452.683 1300.341 OFFCURVE",
"516 1300.341 QCURVE SMOOTH",
"584.381 1300.341 OFFCURVE",
"679.857 1363.532 OFFCURVE",
"709.532 1404.143 QCURVE"
);
}
);
width = 1022;
}
);
unicode = 02D8;
},
{
glyphname = dotaccent;
layers = (
{
layerId = "1BFE03A3-C162-48A6-B30A-9589691C03B8";
paths = (
{
closed = 1;
nodes = (
"295.302 1273.921 OFFCURVE",
"405.651 1396.302 OFFCURVE",
"512 1396.302 QCURVE SMOOTH",
"617.349 1396.302 OFFCURVE",
"728.698 1273.921 OFFCURVE",
"728.698 1185.151 QCURVE SMOOTH",
"728.698 1101.381 OFFCURVE",
"617.349 981 OFFCURVE",
"512 981 QCURVE SMOOTH",
"405.651 981 OFFCURVE",
"295.302 1101.381 OFFCURVE",
"295.302 1185.151 QCURVE SMOOTH"
);
}
);
width = 1024;
}
);
unicode = 02D9;
},
{
glyphname = ring;
layers = (
{
layerId = "1BFE03A3-C162-48A6-B30A-9589691C03B8";
paths = (
{
closed = 1;
nodes = (
"202.984 1343.786 OFFCURVE",
"381.071 1516.841 OFFCURVE",
"512 1516.841 QCURVE SMOOTH",
"640.929 1516.841 OFFCURVE",
"821.016 1343.786 OFFCURVE",
"821.016 1222.921 QCURVE SMOOTH",
"821.016 1099.024 OFFCURVE",
"640.929 933 OFFCURVE",
"512 933 QCURVE SMOOTH",
"381.071 933 OFFCURVE",
"202.984 1099.024 OFFCURVE",
"202.984 1222.921 QCURVE"
);
},
{
closed = 1;
nodes = (
"422.198 1188.794 OFFCURVE",
"472.873 1135.635 OFFCURVE",
"512 1135.635 QCURVE SMOOTH",
"551.127 1135.635 OFFCURVE",
"601.802 1187.794 OFFCURVE",
"601.802 1223.921 QCURVE SMOOTH",
"601.802 1258.532 OFFCURVE",
"551.127 1312.69 OFFCURVE",
"512 1312.69 QCURVE SMOOTH",
"472.873 1312.69 OFFCURVE",
"422.198 1258.532 OFFCURVE",
"422.198 1223.921 QCURVE"
);
}
);
width = 1024;
}
);
unicode = 02DA;
},
{
glyphname = ogonek;
layers = (
{
layerId = "1BFE03A3-C162-48A6-B30A-9589691C03B8";
paths = (
{
closed = 1;
nodes = (
"674.302 0.357 LINE",
"632.079 -26.706 OFFCURVE",
"559.183 -89.833 OFFCURVE",
"559.183 -127.897 QCURVE SMOOTH",
"559.183 -145.929 OFFCURVE",
"583.31 -168.992 OFFCURVE",
"610.468 -168.992 QCURVE SMOOTH",
"632.595 -168.992 OFFCURVE",
"668.27 -157.96 OFFCURVE",
"678.333 -152.96 QCURVE",
"700.46 -401.468 LINE",
"662.238 -417.984 OFFCURVE",
"544.119 -447.048 OFFCURVE",
"454.127 -447.048 QCURVE SMOOTH",
"331.46 -447.048 OFFCURVE",
"161.54 -345.857 OFFCURVE",
"161.54 -250.151 QCURVE SMOOTH",
"161.54 -168.992 OFFCURVE",
"349.556 -6.643 OFFCURVE",
"490.317 57.968 QCURVE"
);
}
);
width = 1024;
}
);
unicode = 02DB;
},
{
glyphname = tilde;
layers = (
{
layerId = "1BFE03A3-C162-48A6-B30A-9589691C03B8";
paths = (
{
closed = 1;
nodes = (
"94.349 1271.897 OFFCURVE",
"260.984 1438.635 OFFCURVE",
"347.333 1438.635 QCURVE SMOOTH",
"398.524 1438.635 OFFCURVE",
"491.389 1414.603 OFFCURVE",
"536.063 1393.056 QCURVE SMOOTH",
"578.222 1372.54 OFFCURVE",
"674.603 1330.476 OFFCURVE",
"722.278 1330.476 QCURVE SMOOTH",
"771.984 1330.476 OFFCURVE",
"858.333 1379.056 OFFCURVE",
"886.429 1413.603 QCURVE",
"985.81 1225.833 LINE",
"940.651 1107.675 OFFCURVE",
"791.563 981 OFFCURVE",
"704.73 981 QCURVE SMOOTH",
"643.476 981 OFFCURVE",
"528.032 1024.063 OFFCURVE",
"489.389 1040.579 QCURVE SMOOTH",
"447.23 1059.095 OFFCURVE",
"362.881 1094.159 OFFCURVE",
"327.238 1094.159 QCURVE SMOOTH",
"269.532 1094.159 OFFCURVE",
"169.635 1022.063 OFFCURVE",
"147.056 994.516 QCURVE",
"53.19 1162.254 LINE"
);
}
);
width = 1024;
}
);
unicode = 02DC;
},
{
glyphname = hungarumlaut;
layers = (
{
layerId = "1BFE03A3-C162-48A6-B30A-9589691C03B8";
paths = (
{
closed = 1;
nodes = (
"230.04 1485.603 LINE",
"546.825 1282.381 LINE",
"246.587 952 LINE",
"-24.492 1114.19 LINE"
);
},
{
closed = 1;
nodes = (
"734.587 1485.603 LINE",
"1050.857 1282.381 LINE",
"750.651 952 LINE",
"478.54 1114.19 LINE"
);
}
);
width = 1024;
}
);
unicode = 02DD;
},
{
glyphname = quoteleft;
layers = (
{
layerId = "1BFE03A3-C162-48A6-B30A-9589691C03B8";
paths = (
{
closed = 1;
nodes = (
"25.476 1042 LINE SMOOTH",
"25.476 1203 OFFCURVE",
"184.635 1454 OFFCURVE",
"367.635 1574 QCURVE",
"662.349 1368.373 LINE",
"624.413 1320.952 OFFCURVE",
"590.476 1185.341 OFFCURVE",
"590.476 1081.667 QCURVE SMOOTH",
"590.476 864 LINE",
"25.476 864 LINE"
);
}
);
width = 647;
}
);
leftKerningGroup = minute;
rightKerningGroup = minute;
unicode = 2018;
},
{
glyphname = quoteright;
layers = (
{
layerId = "1BFE03A3-C162-48A6-B30A-9589691C03B8";
paths = (
{
closed = 1;
nodes = (
"621.714 1278.968 LINE SMOOTH",
"621.714 1117.968 OFFCURVE",
"462.556 866.968 OFFCURVE",
"279.556 746.968 QCURVE",
"-15.159 952.595 LINE",
"22.778 1000.016 OFFCURVE",
"56.714 1135.627 OFFCURVE",
"56.714 1239.302 QCURVE SMOOTH",
"56.714 1456.968 LINE",
"621.714 1456.968 LINE"
);
}
);
width = 647;
}
);
leftKerningGroup = minute;
rightKerningGroup = minute;
unicode = 2019;
},
{
glyphname = minus;
layers = (
{
layerId = "1BFE03A3-C162-48A6-B30A-9589691C03B8";
paths = (
{
closed = 1;
nodes = (
"57 768 LINE",
"967 768 LINE",
"967 588 LINE",
"57 588 LINE"
);
}
);
width = 1024;
}
);
unicode = 2212;
},
{
glyphname = Schwa;
layers = (
{
layerId = "1BFE03A3-C162-48A6-B30A-9589691C03B8";
paths = (
{
closed = 1;
nodes = (
"115 1399 OFFCURVE",
"445 1579 OFFCURVE",
"725 1579 QCURVE SMOOTH",
"1101 1579 OFFCURVE",
"1517 1092 OFFCURVE",
"1517 820 QCURVE SMOOTH",
"1517 512 OFFCURVE",
"1051 -30 OFFCURVE",
"751 -30 QCURVE SMOOTH",
"433 -30 OFFCURVE",
"56 289 OFFCURVE",
"56 601 QCURVE SMOOTH",
"56 714 LINE",
"1336 714 LINE",
"1336 546 LINE",
"721 554 LINE",
"350 548 LINE",
"350 471 LINE SMOOTH",
"350 343 OFFCURVE",
"554 127 OFFCURVE",
"761 127 QCURVE SMOOTH",
"958 127 OFFCURVE",
"1247 519 OFFCURVE",
"1245 778 QCURVE SMOOTH",
"1242 1065 OFFCURVE",
"880 1388 OFFCURVE",
"706 1388 QCURVE SMOOTH",
"472 1388 OFFCURVE",
"176 1231 OFFCURVE",
"116 1131 QCURVE",
"-1 1220 LINE"
);
}
);
width = 1446;
}
);
rightKerningGroup = D_UC;
unicode = 018F;
},
{
glyphname = Germandbls;
layers = (
{
layerId = "1BFE03A3-C162-48A6-B30A-9589691C03B8";
paths = (
{
closed = 1;
nodes = (
"168 1254 OFFCURVE",
"439 1510 OFFCURVE",
"704 1510 QCURVE SMOOTH",
"1010 1510 OFFCURVE",
"1216 1322 OFFCURVE",
"1216 1244 QCURVE SMOOTH",
"1216 1116 OFFCURVE",
"1075 966 OFFCURVE",
"1042 955 QCURVE SMOOTH",
"983 918 OFFCURVE",
"923 882 OFFCURVE",
"923 867 QCURVE SMOOTH",
"923 858 OFFCURVE",
"957 846 OFFCURVE",
"1210 763 QCURVE SMOOTH",
"1415 701 OFFCURVE",
"1620 508 OFFCURVE",
"1620 352 QCURVE SMOOTH",
"1620 220 OFFCURVE",
"1311 -30 OFFCURVE",
"1104 -30 QCURVE SMOOTH",
"782 -30 OFFCURVE",
"482 154 OFFCURVE",
"482 358 QCURVE SMOOTH",
"482 370 LINE",
"782 370 LINE",
"782 358 LINE SMOOTH",
"782 279 OFFCURVE",
"922 203 OFFCURVE",
"1092 203 QCURVE SMOOTH",
"1184 203 OFFCURVE",
"1334 279 OFFCURVE",
"1334 346 QCURVE SMOOTH",
"1334 434 OFFCURVE",
"1178 495 OFFCURVE",
"980 558 QCURVE SMOOTH",
"693 653 OFFCURVE",
"585 742 OFFCURVE",
"585 816 QCURVE SMOOTH",
"585 911 OFFCURVE",
"672 991 OFFCURVE",
"779 1056 QCURVE SMOOTH",
"855 1102 OFFCURVE",
"931 1160 OFFCURVE",
"931 1229 QCURVE SMOOTH",
"931 1250 OFFCURVE",
"828 1283 OFFCURVE",
"711 1283 QCURVE SMOOTH",
"577 1283 OFFCURVE",
"442 1178 OFFCURVE",
"442 1036 QCURVE SMOOTH",
"442 355 LINE SMOOTH",
"442 184 OFFCURVE",
"233 -16 OFFCURVE",
"77 -16 QCURVE SMOOTH",
"62 -16 OFFCURVE",
"30 -14 OFFCURVE",
"15 -12 QCURVE",
"13 258 LINE",
"23 255 OFFCURVE",
"45 253 OFFCURVE",
"56 253 QCURVE SMOOTH",
"107 253 OFFCURVE",
"168 305 OFFCURVE",
"168 355 QCURVE SMOOTH",
"168 1066 LINE SMOOTH"
);
}
);
width = 1700;
}
);
unicode = 1E9E;
},
{
glyphname = micro;
layers = (
{
layerId = "1BFE03A3-C162-48A6-B30A-9589691C03B8";
paths = (
{
closed = 1;
nodes = (
"504 1190 LINE",
"369 489 LINE SMOOTH",
"341 351 OFFCURVE",
"425 232 OFFCURVE",
"539 232 QCURVE SMOOTH",
"636 232 OFFCURVE",
"791 337 OFFCURVE",
"849 420 QCURVE",
"997 1190 LINE",
"1261 1190 LINE",
"1038 39 LINE",
"794 39 LINE",
"814 187 LINE",
"807 187 LINE",
"729 108 OFFCURVE",
"546 17 OFFCURVE",
"426 17 QCURVE SMOOTH",
"387 17 OFFCURVE",
"322 56 OFFCURVE",
"288 74 QCURVE",
"194 -416 LINE",
"-72 -416 LINE",
"239 1190 LINE"
);
}
);
width = 1310;
}
);
unicode = 00B5;
},
{
glyphname = kgreenlandic;
layers = (
{
layerId = "1BFE03A3-C162-48A6-B30A-9589691C03B8";
paths = (
{
closed = 1;
nodes = (
"455 0 LINE",
"192 0 LINE",
"192 1250 LINE",
"455 1250 LINE"
);
},
{
closed = 1;
nodes = (
"680 507 LINE",
"327 507 LINE",
"327 734 LINE",
"544 734 LINE",
"991 1250 LINE",
"1321 1250 LINE"
);
},
{
closed = 1;
nodes = (
"532 539 LINE",
"697 741 LINE",
"1341 0 LINE",
"1006 0 LINE"
);
}
);
width = 1358;
}
);
leftKerningGroup = mnpr_LC;
rightKerningGroup = k_LC;
unicode = 0138;
},
{
glyphname = schwa;
layers = (
{
layerId = "1BFE03A3-C162-48A6-B30A-9589691C03B8";
paths = (
{
closed = 1;
nodes = (
"1159 580 LINE SMOOTH",
"1159 311 OFFCURVE",
"849 -40 OFFCURVE",
"593 -40 QCURVE SMOOTH",
"338 -40 OFFCURVE",
"58 291 OFFCURVE",
"58 557 QCURVE SMOOTH",
"58 666 LINE",
"990 666 LINE",
"990 465 LINE",
"326 465 LINE",
"324 421 LINE",
"326 306 OFFCURVE",
"471 165 OFFCURVE",
"577 165 QCURVE SMOOTH",
"735 165 OFFCURVE",
"885 419 OFFCURVE",
"885 580 QCURVE SMOOTH",
"885 612 LINE SMOOTH",
"885 773 OFFCURVE",
"728 1024 OFFCURVE",
"545 1024 QCURVE SMOOTH",
"441 1024 OFFCURVE",
"285 924 OFFCURVE",
"232 866 QCURVE",
"66 984 LINE",
"129 1072 OFFCURVE",
"379 1230 OFFCURVE",
"547 1230 QCURVE SMOOTH",
"846 1230 OFFCURVE",
"1159 877 OFFCURVE",
"1159 612 QCURVE SMOOTH"
);
}
);
width = 1273;
}
);
rightKerningGroup = o_LC;
unicode = 0259;
},
{
glyphname = primemod;
layers = (
{
layerId = "1BFE03A3-C162-48A6-B30A-9589691C03B8";
paths = (
{
closed = 1;
nodes = (
"470 1502 LINE",
"341 947 LINE",
"172 952 LINE",
"228 1502 LINE"
);
}
);
width = 664;
}
);
unicode = 02B9;
},
{
glyphname = doubleprimemod;
layers = (
{
layerId = "1BFE03A3-C162-48A6-B30A-9589691C03B8";
paths = (
{
closed = 1;
nodes = (
"470 1502 LINE",
"343 973 LINE",
"174 978 LINE",
"228 1502 LINE"
);
},
{
closed = 1;
nodes = (
"770 1502 LINE",
"643 973 LINE",
"474 978 LINE",
"528 1502 LINE"
);
}
);
width = 740;
}
);
unicode = 02BA;
},
{
glyphname = apostrophemod;
layers = (
{
layerId = "1BFE03A3-C162-48A6-B30A-9589691C03B8";
paths = (
{
closed = 1;
nodes = (
"206 1008 OFFCURVE",
"340 1148 OFFCURVE",
"359 1227 QCURVE",
"268 1227 OFFCURVE",
"165 1316 OFFCURVE",
"165 1386 QCURVE SMOOTH",
"165 1455 OFFCURVE",
"269 1546 OFFCURVE",
"350 1546 QCURVE SMOOTH",
"426 1546 OFFCURVE",
"550 1432 OFFCURVE",
"550 1341 QCURVE SMOOTH",
"550 1196 OFFCURVE",
"345 973 OFFCURVE",
"210 914 QCURVE",
"155 972 LINE"
);
}
);
width = 600;
}
);
leftKerningGroup = minute;
rightKerningGroup = minute;
unicode = 02BC;
},
{
glyphname = hookabovecomb;
layers = (
{
layerId = "1BFE03A3-C162-48A6-B30A-9589691C03B8";
paths = (
{
closed = 1;
nodes = (
"322.825 997.095 LINE SMOOTH",
"322.825 1081.77 OFFCURVE",
"414.849 1161.929 OFFCURVE",
"482.23 1166.444 QCURVE SMOOTH",
"529 1170.96 OFFCURVE",
"553.643 1183.476 OFFCURVE",
"553.643 1202.024 QCURVE SMOOTH",
"553.643 1218.056 OFFCURVE",
"514.421 1234.087 OFFCURVE",
"468.167 1234.087 QCURVE SMOOTH",
"414.333 1234.087 OFFCURVE",
"298.183 1207.024 OFFCURVE",
"288.119 1203.024 QCURVE",
"217.222 1379.889 LINE",
"253.929 1399.437 OFFCURVE",
"432.46 1441.532 OFFCURVE",
"532.032 1441.532 QCURVE SMOOTH",
"677.341 1441.532 OFFCURVE",
"839.778 1324.278 OFFCURVE",
"839.778 1225.571 QCURVE SMOOTH",
"839.778 1122.349 OFFCURVE",
"718.079 1000.095 OFFCURVE",
"530 989.063 QCURVE",
"530 957 LINE",
"322.825 957 LINE"
);
}
);
width = 1024;
}
);
unicode = 0309;
},
{
glyphname = breveinvertedcomb;
layers = (
{
layerId = "1BFE03A3-C162-48A6-B30A-9589691C03B8";
paths = (
{
closed = 1;
nodes = (
"100.349 1038.159 LINE",
"144.024 1172.476 OFFCURVE",
"358.881 1398.984 OFFCURVE",
"513 1398.984 QCURVE SMOOTH",
"652.056 1398.984 OFFCURVE",
"873.429 1190.508 OFFCURVE",
"925.651 1036.159 QCURVE",
"688.698 964 LINE",
"661.087 1001.579 OFFCURVE",
"570.222 1065.222 OFFCURVE",
"510 1065.222 QCURVE SMOOTH",
"445.23 1065.222 OFFCURVE",
"353.881 1003.579 OFFCURVE",
"325.754 964 QCURVE"
);
}
);
width = 1024;
}
);
unicode = 030F;
},
{
glyphname = horncomb;
layers = (
{
layerId = "1BFE03A3-C162-48A6-B30A-9589691C03B8";
paths = (
{
closed = 1;
nodes = (
"69.897 914 LINE SMOOTH",
"110.119 914 OFFCURVE",
"170.984 950 OFFCURVE",
"170.984 1006 QCURVE SMOOTH",
"170.984 1056 OFFCURVE",
"159.921 1132 OFFCURVE",
"151.373 1169 QCURVE",
"421.929 1169 LINE",
"447.571 1135 OFFCURVE",
"490.31 1028 OFFCURVE",
"490.31 947 QCURVE SMOOTH",
"490.31 833 OFFCURVE",
"309.778 725 OFFCURVE",
"186.563 725 QCURVE SMOOTH",
"126.73 725 OFFCURVE",
"34.19 740 OFFCURVE",
"0 752 QCURVE",
"0 914 LINE"
);
}
);
width = 1024;
}
);
unicode = 031B;
},
{
glyphname = dotbelowcomb;
layers = (
{
layerId = "1BFE03A3-C162-48A6-B30A-9589691C03B8";
paths = (
{
closed = 1;
nodes = (
"295.302 -286.381 OFFCURVE",
"405.651 -164 OFFCURVE",
"512 -164 QCURVE SMOOTH",
"617.349 -164 OFFCURVE",
"728.698 -286.381 OFFCURVE",
"728.698 -375.151 QCURVE SMOOTH",
"728.698 -458.921 OFFCURVE",
"617.349 -579.302 OFFCURVE",
"512 -579.302 QCURVE SMOOTH",
"405.651 -579.302 OFFCURVE",
"295.302 -458.921 OFFCURVE",
"295.302 -375.151 QCURVE SMOOTH"
);
}
);
width = 1024;
}
);
unicode = 0323;
},
{
glyphname = dieresisbelowcomb;
layers = (
{
layerId = "1BFE03A3-C162-48A6-B30A-9589691C03B8";
paths = (
{
closed = 1;
nodes = (
"166 -273 OFFCURVE",
"226 -214 OFFCURVE",
"282 -214 QCURVE SMOOTH",
"335 -214 OFFCURVE",
"398 -277 OFFCURVE",
"398 -328 QCURVE SMOOTH",
"398 -382 OFFCURVE",
"339 -441 OFFCURVE",
"282 -441 QCURVE SMOOTH",
"229 -441 OFFCURVE",
"166 -379 OFFCURVE",
"166 -328 QCURVE SMOOTH"
);
},
{
closed = 1;
nodes = (
"626 -273 OFFCURVE",
"686 -214 OFFCURVE",
"742 -214 QCURVE SMOOTH",
"795 -214 OFFCURVE",
"858 -277 OFFCURVE",
"858 -328 QCURVE SMOOTH",
"858 -382 OFFCURVE",
"799 -441 OFFCURVE",
"742 -441 QCURVE SMOOTH",
"689 -441 OFFCURVE",
"626 -379 OFFCURVE",
"626 -328 QCURVE SMOOTH"
);
}
);
width = 1024;
}
);
unicode = 0324;
},
{
glyphname = commaaccentcomb;
layers = (
{
layerId = "1BFE03A3-C162-48A6-B30A-9589691C03B8";
paths = (
{
closed = 1;
nodes = (
"233.563 -432.77 OFFCURVE",
"272.143 -288.127 OFFCURVE",
"296.69 -156 QCURVE",
"837.5 -154 LINE",
"701.214 -543.381 LINE",
"202.5 -540.381 LINE"
);
}
);
width = 1024;
}
);
unicode = 0326;
},
{
glyphname = brevebelowcomb;
layers = (
{
layerId = "1BFE03A3-C162-48A6-B30A-9589691C03B8";
paths = (
{
closed = 1;
nodes = (
"896 -197 LINE",
"857 -296 OFFCURVE",
"656 -463 OFFCURVE",
"512 -463 QCURVE SMOOTH",
"384 -463 OFFCURVE",
"177 -310 OFFCURVE",
"129 -196 QCURVE",
"229 -127 LINE",
"272 -190 OFFCURVE",
"417 -294 OFFCURVE",
"512 -294 QCURVE SMOOTH",
"614 -294 OFFCURVE",
"760 -195 OFFCURVE",
"803 -127 QCURVE"
);
}
);
width = 1024;
}
);
unicode = 032E;
},
{
glyphname = macronbelowcomb;
layers = (
{
layerId = "1BFE03A3-C162-48A6-B30A-9589691C03B8";
paths = (
{
closed = 1;
nodes = (
"216 -103 LINE",
"808 -103 LINE",
"808 -259 LINE",
"216 -259 LINE"
);
}
);
width = 1024;
}
);
unicode = 0331;
},
{
glyphname = foursuperior;
layers = (
{
layerId = "1BFE03A3-C162-48A6-B30A-9589691C03B8";
paths = (
{
closed = 1;
nodes = (
"54 982 LINE",
"432 1496 LINE",
"556 1496 LINE",
"399 1270 LINE",
"212 1010 LINE",
"700 1010 LINE",
"700 880 LINE",
"61 880 LINE"
);
},
{
closed = 1;
nodes = (
"592 697 LINE",
"435 697 LINE",
"435 1496 LINE",
"592 1496 LINE"
);
}
);
width = 751;
}
);
unicode = 2074;
},
{
glyphname = endash;
layers = (
{
layerId = "1BFE03A3-C162-48A6-B30A-9589691C03B8";
paths = (
{
closed = 1;
nodes = (
"0 714 LINE",
"1224 714 LINE",
"1224 470 LINE",
"0 470 LINE"
);
}
);
width = 1224;
}
);
leftKerningGroup = emdash;
rightKerningGroup = emdash;
unicode = 2013;
},
{
glyphname = emdash;
layers = (
{
layerId = "1BFE03A3-C162-48A6-B30A-9589691C03B8";
paths = (
{
closed = 1;
nodes = (
"360 714 LINE",
"2088 714 LINE",
"2088 470 LINE",
"360 470 LINE"
);
}
);
width = 2448;
}
);
leftKerningGroup = emdash;
rightKerningGroup = emdash;
unicode = 2014;
},
{
glyphname = horizontalbar;
layers = (
{
layerId = "1BFE03A3-C162-48A6-B30A-9589691C03B8";
paths = (
{
closed = 1;
nodes = (
"-32.222 792 LINE",
"680.611 792 LINE",
"680.611 626 LINE",
"-32.222 626 LINE"
);
}
);
width = 656;
}
);
leftKerningGroup = emdash;
rightKerningGroup = emdash;
unicode = 2015;
},
{
glyphname = leftanglebracket;
layers = (
{
layerId = "1BFE03A3-C162-48A6-B30A-9589691C03B8";
paths = (
{
closed = 1;
nodes = (
"-16 695 LINE",
"586 1499 LINE",
"747 1377 LINE",
"265 604 LINE",
"745 -184 LINE",
"586 -304 LINE",
"-16 506 LINE"
);
}
);
width = 749;
}
);
rightKerningGroup = parens;
unicode = 27E8;
},
{
glyphname = rightanglebracket;
layers = (
{
layerId = "1BFE03A3-C162-48A6-B30A-9589691C03B8";
paths = (
{
closed = 1;
nodes = (
"450 591 LINE",
"-30 1379 LINE",
"129 1499 LINE",
"731 689 LINE",
"731 500 LINE",
"129 -304 LINE",
"-32 -182 LINE"
);
}
);
width = 749;
}
);
leftKerningGroup = parens;
unicode = 27E9;
},
{
glyphname = quotedblleft;
layers = (
{
layerId = "1BFE03A3-C162-48A6-B30A-9589691C03B8";
paths = (
{
closed = 1;
nodes = (
"25.476 1053.135 LINE SMOOTH",
"25.476 1210.746 OFFCURVE",
"181.246 1456.421 OFFCURVE",
"360.373 1574 QCURVE",
"650.246 1371.762 LINE",
"612.794 1325.794 OFFCURVE",
"579.825 1192.603 OFFCURVE",
"579.825 1090.865 QCURVE SMOOTH",
"579.825 879.008 LINE",
"25.476 879.008 LINE"
);
},
{
closed = 1;
nodes = (
"627.683 1053.135 LINE SMOOTH",
"627.683 1210.746 OFFCURVE",
"783.452 1456.421 OFFCURVE",
"962.579 1574 QCURVE",
"1252.452 1371.762 LINE",
"1215 1325.794 OFFCURVE",
"1182.032 1192.603 OFFCURVE",
"1182.032 1090.865 QCURVE SMOOTH",
"1182.032 879.008 LINE",
"627.683 879.008 LINE"
);
}
);
width = 1258;
}
);
leftKerningGroup = minute;
rightKerningGroup = minute;
unicode = 201C;
},
{
glyphname = quotedblright;
layers = (
{
layerId = "1BFE03A3-C162-48A6-B30A-9589691C03B8";
paths = (
{
closed = 1;
nodes = (
"640.563 1283.873 LINE SMOOTH",
"640.563 1126.262 OFFCURVE",
"484.794 880.587 OFFCURVE",
"305.667 763.008 QCURVE",
"15.794 965.246 LINE",
"53.246 1011.214 OFFCURVE",
"86.214 1144.405 OFFCURVE",
"86.214 1246.143 QCURVE SMOOTH",
"86.214 1458 LINE",
"640.563 1458 LINE"
);
},
{
closed = 1;
nodes = (
"1242.77 1283.873 LINE SMOOTH",
"1242.77 1126.262 OFFCURVE",
"1087 880.587 OFFCURVE",
"907.873 763.008 QCURVE",
"618 965.246 LINE",
"655.452 1011.214 OFFCURVE",
"688.421 1144.405 OFFCURVE",
"688.421 1246.143 QCURVE SMOOTH",
"688.421 1458 LINE",
"1242.77 1458 LINE"
);
}
);
width = 1258;
}
);
leftKerningGroup = minute;
rightKerningGroup = minute;
unicode = 201D;
},
{
glyphname = quotesinglbase;
layers = (
{
layerId = "1BFE03A3-C162-48A6-B30A-9589691C03B8";
paths = (
{
closed = 1;
nodes = (
"640.563 45.873 LINE SMOOTH",
"640.563 -111.738 OFFCURVE",
"484.794 -357.413 OFFCURVE",
"305.667 -474.992 QCURVE",
"15.794 -272.754 LINE",
"53.246 -226.786 OFFCURVE",
"86.214 -93.595 OFFCURVE",
"86.214 8.143 QCURVE SMOOTH",
"86.214 220 LINE",
"640.563 220 LINE"
);
}
);
width = 656;
}
);
leftKerningGroup = comma;
rightKerningGroup = comma;
unicode = 201A;
},
{
glyphname = quotedblbase;
layers = (
{
layerId = "1BFE03A3-C162-48A6-B30A-9589691C03B8";
paths = (
{
closed = 1;
nodes = (
"640.563 45.873 LINE SMOOTH",
"640.563 -111.738 OFFCURVE",
"484.794 -357.413 OFFCURVE",
"305.667 -474.992 QCURVE",
"15.794 -272.754 LINE",
"53.246 -226.786 OFFCURVE",
"86.214 -93.595 OFFCURVE",
"86.214 8.143 QCURVE SMOOTH",
"86.214 220 LINE",
"640.563 220 LINE"
);
},
{
closed = 1;
nodes = (
"1242.77 45.873 LINE SMOOTH",
"1242.77 -111.738 OFFCURVE",
"1087 -357.413 OFFCURVE",
"907.873 -474.992 QCURVE",
"618 -272.754 LINE",
"655.452 -226.786 OFFCURVE",
"688.421 -93.595 OFFCURVE",
"688.421 8.143 QCURVE SMOOTH",
"688.421 220 LINE",
"1242.77 220 LINE"
);
}
);
width = 1258;
}
);
leftKerningGroup = comma;
rightKerningGroup = comma;
unicode = 201E;
},
{
glyphname = guilsinglleft;
layers = (
{
guideLines = (
{
position = "{0, 901}";
},
{
position = "{0, 555}";
}
);
layerId = "1BFE03A3-C162-48A6-B30A-9589691C03B8";
paths = (
{
closed = 1;
nodes = (
"108 609 LINE",
"438 983 LINE",
"654 983 LINE",
"385 568 LINE",
"654 153 LINE",
"438 153 LINE",
"108 528 LINE"
);
}
);
width = 699;
}
);
leftKerningGroup = guillemotleft;
rightKerningGroup = guillemotleft;
unicode = 2039;
userData = {
com.typemytype.robofont.guideline.magnetic.Amp5Ormvx4 = 5;
com.typemytype.robofont.guideline.magnetic.JDX5vz3jKp = 5;
};
},
{
glyphname = guilsinglright;
layers = (
{
guideLines = (
{
position = "{0, 901}";
},
{
position = "{0, 555}";
}
);
layerId = "1BFE03A3-C162-48A6-B30A-9589691C03B8";
paths = (
{
closed = 1;
nodes = (
"314 568 LINE",
"45 983 LINE",
"262 983 LINE",
"591 609 LINE",
"591 528 LINE",
"262 153 LINE",
"45 153 LINE"
);
}
);
width = 699;
}
);
leftKerningGroup = guillemotright;
rightKerningGroup = guillemotright;
unicode = 203A;
userData = {
com.typemytype.robofont.guideline.magnetic.Amp5Ormvx4 = 5;
com.typemytype.robofont.guideline.magnetic.JDX5vz3jKp = 5;
};
},
{
glyphname = dagger;
layers = (
{
layerId = "1BFE03A3-C162-48A6-B30A-9589691C03B8";
paths = (
{
closed = 1;
nodes = (
"462 8 LINE",
"483 748 LINE",
"483 812 LINE",
"72 812 LINE",
"72 1065 LINE",
"479 1065 LINE",
"466 1558 LINE",
"737 1558 LINE",
"724 1065 LINE",
"1131 1065 LINE",
"1131 812 LINE",
"720 812 LINE",
"720 748 LINE",
"741 8 LINE",
"737 -274 LINE",
"638 -470 OFFCURVE",
"566 -472 OFFCURVE",
"466 -274 QCURVE"
);
}
);
width = 1213;
}
);
unicode = 2020;
},
{
glyphname = daggerdbl;
layers = (
{
layerId = "1BFE03A3-C162-48A6-B30A-9589691C03B8";
paths = (
{
closed = 1;
nodes = (
"82 240 LINE",
"479 240 LINE",
"459 534 LINE",
"474 818 LINE",
"82 818 LINE",
"82 1059 LINE",
"460 1059 LINE",
"457 1508 LINE",
"746 1508 LINE",
"743 1059 LINE",
"1121 1059 LINE",
"1121 818 LINE",
"729 818 LINE",
"744 534 LINE",
"724 240 LINE",
"1121 240 LINE",
"1121 1 LINE",
"738 1 LINE",
"741 -452 LINE",
"462 -452 LINE",
"465 1 LINE",
"82 1 LINE"
);
}
);
width = 1008;
}
);
unicode = 2021;
},
{
glyphname = fraction;
layers = (
{
guideLines = (
{
position = "{0, 901}";
},
{
position = "{0, 555}";
}
);
layerId = "1BFE03A3-C162-48A6-B30A-9589691C03B8";
paths = (
{
closed = 1;
nodes = (
"-192 -33 LINE",
"-455 155 LINE",
"520 1489 LINE",
"790 1309 LINE"
);
}
);
width = 342;
}
);
unicode = 2044;
userData = {
com.typemytype.robofont.guideline.magnetic.0lx51aIE0d = 5;
com.typemytype.robofont.guideline.magnetic.tcCoNUQTdD = 5;
};
},
{
glyphname = numero;
layers = (
{
layerId = "1BFE03A3-C162-48A6-B30A-9589691C03B8";
paths = (
{
closed = 1;
nodes = (
"210 1456 LINE",
"475 1456 LINE",
"1066 545 LINE SMOOTH",
"1085 517 OFFCURVE",
"1132 461 OFFCURVE",
"1147 442 QCURVE",
"1162 442 LINE",
"1156 468 OFFCURVE",
"1153 545 OFFCURVE",
"1153 571 QCURVE SMOOTH",
"1153 1456 LINE",
"1406 1456 LINE",
"1406 0 LINE",
"1133 0 LINE",
"530 879 LINE SMOOTH",
"508 911 OFFCURVE",
"482 963 OFFCURVE",
"477 986 QCURVE",
"462 986 LINE",
"468 960 OFFCURVE",
"469 888 OFFCURVE",
"469 863 QCURVE SMOOTH",
"469 0 LINE",
"210 0 LINE"
);
},
{
closed = 1;
nodes = (
"1516 1015 LINE SMOOTH",
"1516 1212 OFFCURVE",
"1773 1473 OFFCURVE",
"1980 1473 QCURVE SMOOTH",
"2186 1473 OFFCURVE",
"2446 1212 OFFCURVE",
"2446 1015 QCURVE SMOOTH",
"2446 992 LINE SMOOTH",
"2446 797 OFFCURVE",
"2210 539 OFFCURVE",
"1980 539 QCURVE SMOOTH",
"1750 539 OFFCURVE",
"1516 797 OFFCURVE",
"1516 992 QCURVE SMOOTH"
);
},
{
closed = 1;
nodes = (
"1802 990 LINE SMOOTH",
"1802 893 OFFCURVE",
"1884 761 OFFCURVE",
"1981 761 QCURVE SMOOTH",
"2076 761 OFFCURVE",
"2160 893 OFFCURVE",
"2160 989 QCURVE SMOOTH",
"2160 1010 LINE SMOOTH",
"2160 1106 OFFCURVE",
"2074 1242 OFFCURVE",
"1981 1242 QCURVE SMOOTH",
"1886 1242 OFFCURVE",
"1802 1106 OFFCURVE",
"1802 1010 QCURVE SMOOTH"
);
},
{
closed = 1;
nodes = (
"1583 491 LINE",
"2376 491 LINE",
"2376 232 LINE",
"1583 232 LINE"
);
}
);
width = 2574;
}
);
unicode = 2116;
},
{
glyphname = bullet;
layers = (
{
layerId = "1BFE03A3-C162-48A6-B30A-9589691C03B8";
paths = (
{
closed = 1;
nodes = (
"28 936 OFFCURVE",
"256 1178 OFFCURVE",
"434 1178 QCURVE SMOOTH",
"612 1178 OFFCURVE",
"840 936 OFFCURVE",
"840 773 QCURVE SMOOTH",
"840 612 OFFCURVE",
"612 370 OFFCURVE",
"434 370 QCURVE SMOOTH",
"256 370 OFFCURVE",
"28 612 OFFCURVE",
"28 773 QCURVE SMOOTH"
);
}
);
width = 868;
}
);
unicode = 2022;
},
{
glyphname = minute;
layers = (
{
layerId = "1BFE03A3-C162-48A6-B30A-9589691C03B8";
paths = (
{
closed = 1;
nodes = (
"395 1559 LINE",
"662 1411 LINE",
"293 846 LINE",
"100 964 LINE"
);
}
);
width = 694;
}
);
leftKerningGroup = minute;
rightKerningGroup = minute;
unicode = 2032;
},
{
glyphname = second;
layers = (
{
layerId = "1BFE03A3-C162-48A6-B30A-9589691C03B8";
paths = (
{
closed = 1;
nodes = (
"395 1559 LINE",
"662 1411 LINE",
"293 846 LINE",
"100 964 LINE"
);
},
{
closed = 1;
nodes = (
"795 1559 LINE",
"1062 1411 LINE",
"693 846 LINE",
"500 964 LINE"
);
}
);
width = 1094;
}
);
leftKerningGroup = minute;
rightKerningGroup = minute;
unicode = 2033;
},
{
glyphname = lessequal;
layers = (
{
layerId = "1BFE03A3-C162-48A6-B30A-9589691C03B8";
paths = (
{
closed = 1;
nodes = (
"25 572 LINE",
"25 776 LINE",
"860 1088 LINE",
"860 801 LINE",
"357 684 LINE",
"860 567 LINE",
"860 260 LINE"
);
},
{
closed = 1;
nodes = (
"-16 242 LINE",
"914 242 LINE",
"914 1 LINE",
"-16 1 LINE"
);
}
);
width = 909;
}
);
unicode = 2264;
},
{
glyphname = greaterequal;
layers = (
{
layerId = "1BFE03A3-C162-48A6-B30A-9589691C03B8";
paths = (
{
closed = 1;
nodes = (
"49 567 LINE",
"552 684 LINE",
"49 801 LINE",
"49 1088 LINE",
"884 776 LINE",
"884 572 LINE",
"49 260 LINE"
);
},
{
closed = 1;
nodes = (
"-6 1 LINE",
"-6 242 LINE",
"924 242 LINE",
"924 1 LINE"
);
}
);
width = 909;
}
);
unicode = 2265;
},
{
glyphname = approxequal;
layers = (
{
layerId = "1BFE03A3-C162-48A6-B30A-9589691C03B8";
paths = (
{
closed = 1;
nodes = (
"46 936 LINE",
"93 987 OFFCURVE",
"225 1045 OFFCURVE",
"290 1046 QCURVE SMOOTH",
"369 1047 OFFCURVE",
"461 1004 OFFCURVE",
"524 973 QCURVE SMOOTH",
"583 943 OFFCURVE",
"668 903 OFFCURVE",
"742 903 QCURVE SMOOTH",
"807 903 OFFCURVE",
"932 971 OFFCURVE",
"979 1031 QCURVE",
"979 762 LINE",
"932 711 OFFCURVE",
"808 653 OFFCURVE",
"743 653 QCURVE SMOOTH",
"669 653 OFFCURVE",
"584 692 OFFCURVE",
"525 722 QCURVE SMOOTH",
"462 753 OFFCURVE",
"369 795 OFFCURVE",
"290 795 QCURVE SMOOTH",
"225 795 OFFCURVE",
"93 727 OFFCURVE",
"46 667 QCURVE"
);
},
{
closed = 1;
nodes = (
"45 519 LINE",
"92 570 OFFCURVE",
"224 627 OFFCURVE",
"289 628 QCURVE SMOOTH",
"368 629 OFFCURVE",
"460 586 OFFCURVE",
"523 555 QCURVE SMOOTH",
"582 525 OFFCURVE",
"667 486 OFFCURVE",
"741 486 QCURVE SMOOTH",
"806 486 OFFCURVE",
"931 554 OFFCURVE",
"978 614 QCURVE",
"978 344 LINE",
"931 293 OFFCURVE",
"807 235 OFFCURVE",
"742 235 QCURVE SMOOTH",
"668 235 OFFCURVE",
"583 274 OFFCURVE",
"524 304 QCURVE SMOOTH",
"461 335 OFFCURVE",
"368 377 OFFCURVE",
"289 377 QCURVE SMOOTH",
"224 377 OFFCURVE",
"92 310 OFFCURVE",
"45 250 QCURVE"
);
}
);
width = 1024;
}
);
unicode = 2248;
},
{
glyphname = notequal;
layers = (
{
layerId = "1BFE03A3-C162-48A6-B30A-9589691C03B8";
paths = (
{
closed = 1;
nodes = (
"689 861 LINE",
"652 832 LINE",
"438 461 LINE",
"444 437 LINE",
"210 31 LINE",
"5 151 LINE",
"175 447 LINE",
"208 469 LINE",
"415 828 LINE",
"416 864 LINE",
"689 1344 LINE",
"894 1224 LINE"
);
},
{
closed = 1;
nodes = (
"-84 582 LINE",
"994 582 LINE",
"994 327 LINE",
"-84 327 LINE"
);
},
{
closed = 1;
nodes = (
"-84 977 LINE",
"994 977 LINE",
"994 722 LINE",
"-84 722 LINE"
);
}
);
width = 912;
}
);
unicode = 2260;
},
{
glyphname = commercialMinusSign;
layers = (
{
layerId = "1BFE03A3-C162-48A6-B30A-9589691C03B8";
paths = (
{
closed = 1;
nodes = (
"647 1501 LINE",
"882 1441 LINE",
"297 -62 LINE",
"62 -2 LINE"
);
},
{
closed = 1;
nodes = (
"516 293 OFFCURVE",
"639 424 OFFCURVE",
"735 424 QCURVE SMOOTH",
"831 424 OFFCURVE",
"954 293 OFFCURVE",
"954 205 QCURVE SMOOTH",
"954 118 OFFCURVE",
"831 -13 OFFCURVE",
"735 -13 QCURVE SMOOTH",
"639 -13 OFFCURVE",
"516 118 OFFCURVE",
"516 205 QCURVE SMOOTH"
);
},
{
closed = 1;
nodes = (
"4 1335 OFFCURVE",
"127 1466 OFFCURVE",
"223 1466 QCURVE SMOOTH",
"319 1466 OFFCURVE",
"442 1335 OFFCURVE",
"442 1247 QCURVE SMOOTH",
"442 1160 OFFCURVE",
"319 1029 OFFCURVE",
"223 1029 QCURVE SMOOTH",
"127 1029 OFFCURVE",
"4 1160 OFFCURVE",
"4 1247 QCURVE SMOOTH"
);
}
);
width = 972;
}
);
unicode = 2052;
},
{
glyphname = divisionslash;
layers = (
{
layerId = "1BFE03A3-C162-48A6-B30A-9589691C03B8";
paths = (
{
closed = 1;
nodes = (
"554 1555 LINE",
"734 1500 LINE",
"118 -173 LINE",
"-62 -118 LINE"
);
}
);
width = 695;
}
);
unicode = 2215;
},
{
glyphname = bulletoperator;
layers = (
{
layerId = "1BFE03A3-C162-48A6-B30A-9589691C03B8";
paths = (
{
closed = 1;
nodes = (
"436 746 OFFCURVE",
"537 853 OFFCURVE",
"615 853 QCURVE SMOOTH",
"693 853 OFFCURVE",
"794 746 OFFCURVE",
"794 674 QCURVE SMOOTH",
"794 603 OFFCURVE",
"693 496 OFFCURVE",
"615 496 QCURVE SMOOTH",
"537 496 OFFCURVE",
"436 603 OFFCURVE",
"436 674 QCURVE SMOOTH"
);
}
);
width = 1230;
}
);
unicode = 2219;
},
{
glyphname = coloncurrency;
layers = (
{
guideLines = (
{
position = "{0, 1570}";
}
);
layerId = "1BFE03A3-C162-48A6-B30A-9589691C03B8";
paths = (
{
closed = 1;
nodes = (
"1009 1324 LINE",
"986 1301 LINE",
"814 68 LINE",
"830 43 LINE",
"806 -125 LINE",
"575 -125 LINE",
"598 40 LINE",
"622 66 LINE",
"807 1361 LINE",
"790 1381 LINE",
"818 1570 LINE",
"1048 1570 LINE"
);
},
{
closed = 1;
nodes = (
"720 1395 LINE",
"697 1374 LINE",
"510 66 LINE",
"526 39 LINE",
"503 -125 LINE",
"272 -125 LINE",
"307 122 LINE",
"331 148 LINE",
"507 1376 LINE",
"490 1399 LINE",
"515 1570 LINE",
"745 1570 LINE"
);
},
{
closed = 1;
nodes = (
"84 921 LINE SMOOTH",
"84 1167 OFFCURVE",
"407 1496 OFFCURVE",
"655 1496 QCURVE SMOOTH",
"904 1496 OFFCURVE",
"1209 1232 OFFCURVE",
"1209 1066 QCURVE SMOOTH",
"1209 996 LINE",
"958 996 LINE",
"958 1068 LINE SMOOTH",
"958 1127 OFFCURVE",
"812 1287 OFFCURVE",
"655 1287 QCURVE SMOOTH",
"518 1287 OFFCURVE",
"344 1091 OFFCURVE",
"344 921 QCURVE SMOOTH",
"344 495 LINE SMOOTH",
"344 358 OFFCURVE",
"529 148 OFFCURVE",
"669 148 QCURVE SMOOTH",
"832 148 OFFCURVE",
"968 327 OFFCURVE",
"968 382 QCURVE SMOOTH",
"968 460 LINE",
"1229 460 LINE",
"1229 420 LINE SMOOTH",
"1229 258 OFFCURVE",
"921 -41 OFFCURVE",
"677 -41 QCURVE SMOOTH",
"440 -41 OFFCURVE",
"84 294 OFFCURVE",
"84 535 QCURVE SMOOTH"
);
}
);
width = 1223;
}
);
unicode = 20A1;
userData = {
com.typemytype.robofont.guideline.magnetic.0DwZ2nfhdf = 5;
};
},
{
glyphname = franc;
layers = (
{
layerId = "1BFE03A3-C162-48A6-B30A-9589691C03B8";
paths = (
{
closed = 1;
nodes = (
"230 1456 LINE",
"1221 1456 LINE",
"1221 1239 LINE",
"504 1239 LINE",
"504 891 LINE",
"1108 891 LINE",
"1108 673 LINE",
"504 673 LINE",
"504 0 LINE",
"230 0 LINE"
);
},
{
closed = 1;
nodes = (
"20 516 LINE",
"925 516 LINE",
"925 296 LINE",
"20 296 LINE"
);
}
);
width = 1251;
}
);
unicode = 20A3;
},
{
glyphname = lira;
layers = (
{
layerId = "1BFE03A3-C162-48A6-B30A-9589691C03B8";
paths = (
{
closed = 1;
nodes = (
"36 0 LINE",
"36 222 LINE",
"101 222 LINE SMOOTH",
"207 222 OFFCURVE",
"286 324 OFFCURVE",
"270 467 QCURVE SMOOTH",
"206 1039 LINE SMOOTH",
"187 1206 OFFCURVE",
"429 1476 OFFCURVE",
"667 1476 QCURVE SMOOTH",
"884 1476 OFFCURVE",
"1135 1257 OFFCURVE",
"1135 1103 QCURVE SMOOTH",
"1135 1087 LINE",
"861 1087 LINE",
"861 1103 LINE SMOOTH",
"847 1201 OFFCURVE",
"744 1260 OFFCURVE",
"669 1260 QCURVE SMOOTH",
"576 1260 OFFCURVE",
"453 1122 OFFCURVE",
"462 1039 QCURVE SMOOTH",
"521 458 LINE SMOOTH",
"532 356 OFFCURVE",
"488 262 OFFCURVE",
"417 228 QCURVE",
"1185 228 LINE",
"1185 0 LINE"
);
},
{
closed = 1;
nodes = (
"35 395 LINE",
"35 587 LINE",
"908 587 LINE",
"908 395 LINE"
);
},
{
closed = 1;
nodes = (
"35 755 LINE",
"35 947 LINE",
"908 947 LINE",
"908 755 LINE"
);
}
);
width = 1157;
}
);
unicode = 20A4;
},
{
glyphname = naira;
layers = (
{
layerId = "1BFE03A3-C162-48A6-B30A-9589691C03B8";
paths = (
{
closed = 1;
nodes = (
"-21 1009 LINE",
"210 1009 LINE",
"210 994 LINE",
"907 994 LINE",
"907 1009 LINE",
"1148 1011 LINE",
"1148 832 LINE",
"907 830 LINE",
"907 838 LINE",
"210 838 LINE",
"210 830 LINE",
"-21 830 LINE"
);
},
{
closed = 1;
nodes = (
"-21 697 LINE",
"210 697 LINE",
"210 689 LINE",
"907 689 LINE",
"907 697 LINE",
"1148 699 LINE",
"1148 520 LINE",
"907 518 LINE",
"907 533 LINE",
"210 533 LINE",
"210 518 LINE",
"-21 518 LINE"
);
},
{
closed = 1;
nodes = (
"1035 0 LINE",
"774 0 LINE",
"303 1142 LINE",
"281 1253 LINE",
"269 1253 LINE",
"282 1125 LINE",
"282 0 LINE",
"83 0 LINE",
"83 1456 LINE",
"349 1456 LINE",
"803 347 LINE",
"832 227 LINE",
"846 230 LINE",
"836 351 LINE",
"836 1456 LINE",
"1035 1456 LINE"
);
}
);
width = 1024;
}
);
unicode = 20A6;
},
{
glyphname = peseta;
layers = (
{
layerId = "1BFE03A3-C162-48A6-B30A-9589691C03B8";
paths = (
{
closed = 1;
nodes = (
"436 528 LINE",
"436 733 LINE",
"586 733 LINE",
"770.269 733 OFFCURVE",
"848 904.104 OFFCURVE",
"848 989 QCURVE",
"848 1075.881 OFFCURVE",
"770.269 1252 OFFCURVE",
"586 1251 QCURVE",
"464 1251 LINE",
"464 0 LINE",
"204 0 LINE",
"204 1456 LINE",
"586 1456 LINE",
"874.537 1456 OFFCURVE",
"1109 1187.09 OFFCURVE",
"1109 992 QCURVE",
"1109 795.418 OFFCURVE",
"874.537 528 OFFCURVE",
"586 528 QCURVE"
);
},
{
closed = 1;
nodes = (
"1699 864 LINE",
"1077 864 LINE",
"1077 1050 LINE",
"1699 1050 LINE"
);
},
{
closed = 1;
nodes = (
"1481 1345 LINE",
"1481 284 LINE",
"1481 229.328 OFFCURVE",
"1565.463 200 OFFCURVE",
"1593 200 QCURVE SMOOTH",
"1616.269 200 OFFCURVE",
"1712 196 OFFCURVE",
"1810 230 QCURVE",
"1810 27 LINE",
"1730 -2 OFFCURVE",
"1568.015 -20 OFFCURVE",
"1504 -20 QCURVE SMOOTH",
"1399.522 -20 OFFCURVE",
"1218 118.119 OFFCURVE",
"1218 286 QCURVE",
"1218 1345 LINE"
);
}
);
width = 1934;
}
);
unicode = 20A7;
},
{
glyphname = won;
layers = (
{
layerId = "1BFE03A3-C162-48A6-B30A-9589691C03B8";
paths = (
{
closed = 1;
nodes = (
"48 1037 LINE",
"398 1037 LINE",
"398 1022 LINE",
"1557 1022 LINE",
"1557 1037 LINE",
"1863 1039 LINE",
"1863 864 LINE",
"1557 862 LINE",
"1557 870 LINE",
"398 870 LINE",
"398 862 LINE",
"48 862 LINE"
);
},
{
closed = 1;
nodes = (
"79 675 LINE",
"489 675 LINE",
"489 667 LINE",
"1478 667 LINE",
"1478 675 LINE",
"1824 677 LINE",
"1824 507 LINE",
"1478 505 LINE",
"1478 515 LINE",
"489 515 LINE",
"489 500 LINE",
"79 500 LINE"
);
},
{
closed = 1;
nodes = (
"115 1456 LINE",
"351 1456 LINE",
"573 494 LINE",
"591 366 LINE",
"597 366 LINE",
"615 494 LINE SMOOTH",
"809 1456 LINE",
"1111 1456 LINE",
"1332 493 LINE",
"1350 365 LINE",
"1356 365 LINE",
"1374 493 LINE SMOOTH",
"1570 1456 LINE",
"1782 1456 LINE",
"1464 -10 LINE",
"1233 -10 LINE",
"987 1100 LINE",
"966 1228 LINE",
"960 1228 LINE",
"939 1100 LINE SMOOTH",
"713 -10 LINE",
"473 -10 LINE"
);
}
);
width = 1911;
}
);
unicode = 20A9;
},
{
glyphname = dong;
layers = (
{
layerId = "1BFE03A3-C162-48A6-B30A-9589691C03B8";
paths = (
{
closed = 1;
nodes = (
"-26 520 LINE SMOOTH",
"-26 764 OFFCURVE",
"213 1070 OFFCURVE",
"404 1070 QCURVE SMOOTH",
"521 1070 OFFCURVE",
"666 1004 OFFCURVE",
"720 946 QCURVE",
"720 1485 LINE",
"965 1485 LINE",
"965 0 LINE",
"751 0 LINE",
"736 141 LINE",
"725 141 LINE",
"685 74 OFFCURVE",
"522 -20 OFFCURVE",
"442 -20 QCURVE SMOOTH",
"218 -20 OFFCURVE",
"-26 270 OFFCURVE",
"-26 528 QCURVE SMOOTH"
);
},
{
closed = 1;
nodes = (
"244 348 OFFCURVE",
"347 186 OFFCURVE",
"442 186 QCURVE SMOOTH",
"565 186 OFFCURVE",
"688 299 OFFCURVE",
"720 370 QCURVE",
"720 706 LINE",
"687 778 OFFCURVE",
"565 865 OFFCURVE",
"462 865 QCURVE SMOOTH",
"348 865 OFFCURVE",
"244 721 OFFCURVE",
"244 520 QCURVE SMOOTH",
"244 528 LINE SMOOTH"
);
},
{
closed = 1;
nodes = (
"325 1156 LINE",
"325 1353 LINE",
"1061 1353 LINE",
"1061 1156 LINE"
);
},
{
closed = 1;
nodes = (
"67 -307 LINE",
"67 -128 LINE",
"1011 -128 LINE",
"1011 -307 LINE"
);
}
);
width = 1111;
}
);
unicode = 20AB;
},
{
glyphname = Euro;
layers = (
{
layerId = "1BFE03A3-C162-48A6-B30A-9589691C03B8";
paths = (
{
closed = 1;
nodes = (
"906 804 LINE",
"22 804 LINE",
"22 1027 LINE",
"903 1027 LINE"
);
},
{
closed = 1;
nodes = (
"906 459 LINE",
"22 459 LINE",
"22 681 LINE",
"906 681 LINE"
);
},
{
closed = 1;
nodes = (
"233 903 LINE SMOOTH",
"233 1275 OFFCURVE",
"575 1484 OFFCURVE",
"729 1484 QCURVE SMOOTH",
"923 1484 OFFCURVE",
"1068 1388 OFFCURVE",
"1117 1337 QCURVE",
"954 1145 LINE",
"943 1156 OFFCURVE",
"859 1226 OFFCURVE",
"755 1226 QCURVE SMOOTH",
"684 1226 OFFCURVE",
"481 1125 OFFCURVE",
"481 906 QCURVE SMOOTH",
"481 541 LINE SMOOTH",
"481 333 OFFCURVE",
"708 223 OFFCURVE",
"793 223 QCURVE SMOOTH",
"892 223 OFFCURVE",
"972 289 OFFCURVE",
"982 296 QCURVE",
"1130 126 LINE",
"1093 72 OFFCURVE",
"934 -30 OFFCURVE",
"730 -30 QCURVE SMOOTH",
"598 -30 OFFCURVE",
"233 243 OFFCURVE",
"233 544 QCURVE SMOOTH"
);
}
);
width = 1062;
}
);
unicode = 20AC;
},
{
glyphname = florin;
layers = (
{
layerId = "1BFE03A3-C162-48A6-B30A-9589691C03B8";
paths = (
{
closed = 1;
nodes = (
"1061 717 LINE",
"639 717 LINE",
"639 111 LINE SMOOTH",
"639 -193 OFFCURVE",
"413 -437 OFFCURVE",
"93 -437 QCURVE SMOOTH",
"62 -437 OFFCURVE",
"9 -430 OFFCURVE",
"-19 -420 QCURVE",
"-5 -215 LINE",
"10 -221 OFFCURVE",
"79 -228 OFFCURVE",
"93 -228 QCURVE SMOOTH",
"214 -228 OFFCURVE",
"376 -122 OFFCURVE",
"376 111 QCURVE SMOOTH",
"376 717 LINE",
"61 717 LINE",
"61 903 LINE",
"376 903 LINE",
"376 1130 LINE SMOOTH",
"376 1305 OFFCURVE",
"584 1496 OFFCURVE",
"764 1496 QCURVE SMOOTH",
"883 1496 OFFCURVE",
"1049 1417 OFFCURVE",
"1079 1387 QCURVE",
"965 1182 LINE",
"917 1221 OFFCURVE",
"817 1260 OFFCURVE",
"769 1260 QCURVE SMOOTH",
"717 1260 OFFCURVE",
"639 1187 OFFCURVE",
"639 1130 QCURVE SMOOTH",
"639 903 LINE",
"1061 903 LINE"
);
}
);
width = 1117;
}
);
unicode = 0192;
},
{
glyphname = uni20AD;
layers = (
{
layerId = "1BFE03A3-C162-48A6-B30A-9589691C03B8";
paths = (
{
closed = 1;
nodes = (
"130 1456 LINE",
"317 1456 LINE",
"317 769 LINE",
"835 1456 LINE",
"1037 1456 LINE",
"317 500 LINE",
"317 0 LINE",
"130 0 LINE"
);
},
{
closed = 1;
nodes = (
"441 756 LINE",
"557 901 LINE",
"1061 0 LINE",
"845 0 LINE"
);
},
{
closed = 1;
nodes = (
"-9 661 LINE",
"-9 809 LINE",
"267 809 LINE",
"267 661 LINE"
);
},
{
closed = 1;
nodes = (
"1021 661 LINE",
"590 661 LINE",
"590 809 LINE",
"1021 809 LINE"
);
}
);
width = 1024;
}
);
unicode = 20AD;
},
{
glyphname = uni20B1;
layers = (
{
layerId = "1BFE03A3-C162-48A6-B30A-9589691C03B8";
paths = (
{
closed = 1;
nodes = (
"188 420 LINE",
"188 633 LINE",
"430 633 LINE SMOOTH",
"597 633 OFFCURVE",
"670 780 OFFCURVE",
"670 951 QCURVE SMOOTH",
"670 1123 OFFCURVE",
"597 1243 OFFCURVE",
"430 1243 QCURVE SMOOTH",
"314 1243 LINE",
"314 0 LINE",
"48 0 LINE",
"48 1456 LINE",
"436 1456 LINE SMOOTH",
"712 1456 OFFCURVE",
"931 1217 OFFCURVE",
"931 970 QCURVE SMOOTH",
"931 754 OFFCURVE",
"710 420 OFFCURVE",
"434 420 QCURVE SMOOTH"
);
},
{
closed = 1;
nodes = (
"-1 1178 LINE",
"201 1178 LINE",
"201 1133 LINE",
"817 1133 LINE",
"817 1178 LINE",
"1069 1180 LINE",
"1069 972 LINE",
"857 970 LINE",
"857 995 LINE",
"201 995 LINE",
"201 970 LINE",
"-1 970 LINE"
);
},
{
closed = 1;
nodes = (
"-1 898 LINE",
"201 898 LINE",
"201 873 LINE",
"857 873 LINE",
"857 898 LINE",
"1069 900 LINE",
"1069 692 LINE",
"777 690 LINE",
"777 734 LINE",
"201 734 LINE",
"201 690 LINE",
"-1 690 LINE"
);
}
);
width = 1064;
}
);
unicode = 20B1;
},
{
glyphname = uni20B2;
layers = (
{
layerId = "1BFE03A3-C162-48A6-B30A-9589691C03B8";
paths = (
{
closed = 1;
nodes = (
"450 57 LINE",
"485 71 LINE",
"485 708 LINE",
"639 708 LINE",
"639 70 LINE",
"682 60 LINE",
"682 -190 LINE",
"450 -190 LINE"
);
},
{
closed = 1;
nodes = (
"485 1252 LINE",
"456 1262 LINE",
"456 1582 LINE",
"668 1582 LINE",
"668 1262 LINE",
"639 1249 LINE",
"639 708 LINE",
"485 708 LINE"
);
},
{
closed = 1;
nodes = (
"1063 452 LINE SMOOTH",
"1063 286 OFFCURVE",
"765 -5 OFFCURVE",
"571 -5 QCURVE SMOOTH",
"316 -5 OFFCURVE",
"5 298 OFFCURVE",
"5 542 QCURVE SMOOTH",
"5 897 LINE SMOOTH",
"5 1212 OFFCURVE",
"327 1485 OFFCURVE",
"549 1485 QCURVE SMOOTH",
"790 1485 OFFCURVE",
"1027 1297 OFFCURVE",
"1060 1242 QCURVE",
"896 1043 LINE",
"847 1109 OFFCURVE",
"712 1232 OFFCURVE",
"563 1232 QCURVE SMOOTH",
"423 1232 OFFCURVE",
"283 1090 OFFCURVE",
"283 899 QCURVE SMOOTH",
"283 544 LINE SMOOTH",
"283 391 OFFCURVE",
"428 191 OFFCURVE",
"589 191 QCURVE SMOOTH",
"650 191 OFFCURVE",
"830 329 OFFCURVE",
"829 433 QCURVE SMOOTH",
"829 510 LINE",
"702 510 LINE",
"702 725 LINE",
"1063 725 LINE"
);
}
);
width = 1062;
}
);
unicode = 20B2;
},
{
glyphname = uni20B5;
layers = (
{
guideLines = (
{
position = "{0, -125}";
}
);
layerId = "1BFE03A3-C162-48A6-B30A-9589691C03B8";
paths = (
{
closed = 1;
nodes = (
"438 37 LINE",
"463 51 LINE",
"463 708 LINE",
"647 708 LINE",
"647 50 LINE",
"670 40 LINE",
"670 -190 LINE",
"438 -190 LINE"
);
},
{
closed = 1;
nodes = (
"463 1304 LINE",
"444 1314 LINE",
"444 1582 LINE",
"656 1582 LINE",
"656 1314 LINE",
"647 1301 LINE",
"647 708 LINE",
"463 708 LINE"
);
},
{
closed = 1;
nodes = (
"821 460 LINE",
"1093 458 LINE",
"1092 436 LINE SMOOTH",
"1068 274 OFFCURVE",
"829 -25 OFFCURVE",
"565 -25 QCURVE SMOOTH",
"307 -25 OFFCURVE",
"21 247 OFFCURVE",
"21 462 QCURVE SMOOTH",
"21 1002 LINE SMOOTH",
"21 1197 OFFCURVE",
"308 1485 OFFCURVE",
"563 1485 QCURVE SMOOTH",
"831 1485 OFFCURVE",
"1083 1223 OFFCURVE",
"1092 1030 QCURVE SMOOTH",
"1093 1008 LINE",
"816 1006 LINE",
"816 1030 LINE SMOOTH",
"814 1068 OFFCURVE",
"744 1271 OFFCURVE",
"566 1271 QCURVE SMOOTH",
"404 1271 OFFCURVE",
"300 1111 OFFCURVE",
"300 1004 QCURVE SMOOTH",
"300 464 LINE SMOOTH",
"300 347 OFFCURVE",
"417 172 OFFCURVE",
"579 172 QCURVE SMOOTH",
"698 172 OFFCURVE",
"821 343 OFFCURVE",
"821 436 QCURVE SMOOTH"
);
}
);
width = 1024;
}
);
unicode = 20B5;
userData = {
com.typemytype.robofont.guideline.magnetic.1Am3eQoiKr = 5;
};
},
{
glyphname = rupeeIndian;
layers = (
{
layerId = "1BFE03A3-C162-48A6-B30A-9589691C03B8";
paths = (
{
closed = 1;
nodes = (
"19 1119 LINE",
"1107 1119 LINE",
"1107 904 LINE",
"19 904 LINE"
);
},
{
closed = 1;
nodes = (
"685 267 LINE SMOOTH",
"580 439 OFFCURVE",
"359 524 OFFCURVE",
"146 535 QCURVE SMOOTH",
"19 542 LINE",
"19 759 LINE",
"342 759 LINE SMOOTH",
"552 759 OFFCURVE",
"678 902 OFFCURVE",
"678 1019 QCURVE SMOOTH",
"678 1107 OFFCURVE",
"534 1239 OFFCURVE",
"357 1239 QCURVE SMOOTH",
"19 1239 LINE",
"19 1456 LINE",
"1117 1456 LINE",
"1117 1240 LINE",
"924 1240 LINE",
"838 1251 LINE",
"840 1240 LINE",
"857 1219 OFFCURVE",
"937 1076 OFFCURVE",
"937 1019 QCURVE SMOOTH",
"937 808 OFFCURVE",
"764 662 OFFCURVE",
"560 631 QCURVE",
"665 599 OFFCURVE",
"852 461 OFFCURVE",
"938 317 QCURVE SMOOTH",
"1129 0 LINE",
"849 0 LINE"
);
}
);
width = 1144;
}
);
unicode = 20B9;
},
{
glyphname = liraTurkish;
layers = (
{
layerId = "1BFE03A3-C162-48A6-B30A-9589691C03B8";
paths = (
{
closed = 1;
nodes = (
"6 506 LINE",
"988 938 LINE",
"982 712 LINE",
"6 279 LINE"
);
},
{
closed = 1;
nodes = (
"180 1456 LINE",
"434 1456 LINE",
"434 207 LINE",
"511 207 LINE SMOOTH",
"739 207 OFFCURVE",
"955 456 OFFCURVE",
"947 581 QCURVE SMOOTH",
"947 618 LINE",
"1197 618 LINE",
"1197 583 LINE SMOOTH",
"1197 381 OFFCURVE",
"859 -5 OFFCURVE",
"474 -2 QCURVE SMOOTH",
"180 0 LINE"
);
},
{
closed = 1;
nodes = (
"6 885 LINE",
"988 1317 LINE",
"982 1091 LINE",
"6 658 LINE"
);
}
);
width = 1165;
}
);
unicode = 20BA;
},
{
glyphname = manat;
layers = (
{
layerId = "1BFE03A3-C162-48A6-B30A-9589691C03B8";
paths = (
{
closed = 1;
nodes = (
"1220 0 LINE",
"968 0 LINE",
"968 916 LINE SMOOTH",
"964 1062 OFFCURVE",
"764 1186 OFFCURVE",
"623 1186 QCURVE SMOOTH",
"485 1186 OFFCURVE",
"280 1062 OFFCURVE",
"278 916 QCURVE SMOOTH",
"278 0 LINE",
"26 0 LINE",
"26 916 LINE SMOOTH",
"32 1175 OFFCURVE",
"396 1416 OFFCURVE",
"623 1416 QCURVE SMOOTH",
"855 1416 OFFCURVE",
"1223 1175 OFFCURVE",
"1220 916 QCURVE SMOOTH"
);
},
{
closed = 1;
nodes = (
"518 0 LINE",
"518 1582 LINE",
"728 1582 LINE",
"728 0 LINE"
);
}
);
width = 1246;
}
);
unicode = 20BC;
},
{
glyphname = ruble;
layers = (
{
layerId = "1BFE03A3-C162-48A6-B30A-9589691C03B8";
paths = (
{
closed = 1;
nodes = (
"35 611 LINE",
"35 826 LINE",
"506 826 LINE SMOOTH",
"670 826 OFFCURVE",
"846 928 OFFCURVE",
"846 1032 QCURVE SMOOTH",
"846 1105 OFFCURVE",
"682 1239 OFFCURVE",
"506 1239 QCURVE SMOOTH",
"440 1239 LINE",
"440 0 LINE",
"192 0 LINE",
"192 1456 LINE",
"506 1456 LINE SMOOTH",
"794 1456 OFFCURVE",
"1119 1212 OFFCURVE",
"1119 1035 QCURVE SMOOTH",
"1119 822 OFFCURVE",
"794 611 OFFCURVE",
"506 611 QCURVE SMOOTH"
);
},
{
closed = 1;
nodes = (
"826 229 LINE",
"34 229 LINE",
"34 448 LINE",
"826 448 LINE"
);
}
);
width = 1064;
}
);
unicode = 20BD;
},
{
glyphname = trademark;
layers = (
{
layerId = "1BFE03A3-C162-48A6-B30A-9589691C03B8";
paths = (
{
closed = 1;
nodes = (
"24 1446 LINE",
"732 1446 LINE",
"732 1228 LINE",
"495 1228 LINE",
"495 690 LINE",
"261 690 LINE",
"261 1228 LINE",
"24 1228 LINE"
);
},
{
closed = 1;
nodes = (
"824 1446 LINE",
"1030 1446 LINE",
"1270 897 LINE",
"1284 897 LINE",
"1533 1446 LINE",
"1742 1446 LINE",
"1742 690 LINE",
"1553 690 LINE",
"1553 1071 LINE",
"1532 1071 LINE",
"1368 690 LINE",
"1189 690 LINE",
"1047 1071 LINE",
"1025 1071 LINE",
"1025 690 LINE",
"824 690 LINE"
);
}
);
width = 1881;
}
);
unicode = 2122;
},
{
glyphname = diagonalbarL;
layers = (
{
layerId = "1BFE03A3-C162-48A6-B30A-9589691C03B8";
paths = (
{
closed = 1;
nodes = (
"0 584 LINE",
"664 995 LINE",
"745 860 LINE",
"80 446 LINE"
);
}
);
width = 741;
}
);
},
{
glyphname = diagonalbarO;
layers = (
{
layerId = "1BFE03A3-C162-48A6-B30A-9589691C03B8";
paths = (
{
closed = 1;
nodes = (
"57 86 LINE",
"99.206 81 LINE",
"305.206 871 LINE",
"364.794 803 LINE",
"171.794 54 LINE",
"216 50 LINE",
"173 -109 LINE",
"3 -109 LINE"
);
},
{
closed = 1;
nodes = (
"623 1618 LINE",
"570 1424 LINE",
"524.794 1428 LINE",
"364.794 803 LINE",
"305.206 871 LINE",
"453.206 1455 LINE",
"409 1460 LINE",
"452 1618 LINE"
);
}
);
width = 623;
}
);
},
{
glyphname = diagonalbarl;
layers = (
{
layerId = "1BFE03A3-C162-48A6-B30A-9589691C03B8";
paths = (
{
closed = 1;
nodes = (
"-188 498 LINE",
"245 807 LINE",
"691 1172 LINE",
"798 989 LINE",
"347 649 LINE",
"-77 312 LINE"
);
}
);
width = 629;
}
);
},
{
glyphname = diagonalbaro;
layers = (
{
layerId = "1BFE03A3-C162-48A6-B30A-9589691C03B8";
paths = (
{
closed = 1;
nodes = (
"-4 89 LINE",
"41.595 84 LINE",
"242.595 584 LINE",
"289.794 514 LINE",
"106.794 55 LINE",
"151 51 LINE",
"77 -123 LINE",
"-88 -118 LINE"
);
},
{
closed = 1;
nodes = (
"589 1141 LINE",
"511 948 LINE",
"465.794 953 LINE",
"289.794 514 LINE",
"242.595 584 LINE",
"398.69 972.77 LINE",
"354 987 LINE",
"418 1144 LINE"
);
}
);
width = 512;
}
);
},
{
glyphname = engtail;
layers = (
{
layerId = "1BFE03A3-C162-48A6-B30A-9589691C03B8";
paths = (
{
closed = 1;
nodes = (
"551 190 LINE",
"551 -195 LINE SMOOTH",
"551 -276 OFFCURVE",
"425 -443 OFFCURVE",
"269 -443 QCURVE SMOOTH",
"197 -443 OFFCURVE",
"67 -381 OFFCURVE",
"27 -329 QCURVE",
"100 -242 LINE",
"142 -283 OFFCURVE",
"207 -304 OFFCURVE",
"248 -304 QCURVE SMOOTH",
"270 -304 OFFCURVE",
"326 -278 OFFCURVE",
"326 -165 QCURVE",
"326 -86 OFFCURVE",
"326 150 OFFCURVE",
"326 150 QCURVE",
"389 190 LINE"
);
}
);
width = 629;
}
);
},
{
glyphname = horizontalbarH;
layers = (
{
layerId = "1BFE03A3-C162-48A6-B30A-9589691C03B8";
paths = (
{
closed = 1;
nodes = (
"1287.619 1025 LINE",
"1287.619 1162 LINE",
"1519.619 1164 LINE",
"1509.619 1027 LINE"
);
},
{
closed = 1;
nodes = (
"-61.619 1162 LINE",
"177.381 1162 LINE",
"177.381 1025 LINE",
"-52.619 1025 LINE"
);
},
{
closed = 1;
nodes = (
"177.381 1152 LINE",
"1287.619 1152 LINE",
"1287.619 1035 LINE",
"177.381 1035 LINE"
);
}
);
width = 1458;
}
);
},
{
glyphname = horizontalbarlc;
layers = (
{
layerId = "1BFE03A3-C162-48A6-B30A-9589691C03B8";
paths = (
{
closed = 1;
nodes = (
"-22.587 656 LINE",
"-11.587 802 LINE",
"351 802 LINE",
"687.587 802 LINE",
"687.587 656 LINE",
"311 656 LINE"
);
}
);
width = 636;
}
);
},
{
glyphname = idotless;
layers = (
{
layerId = "1BFE03A3-C162-48A6-B30A-9589691C03B8";
paths = (
{
closed = 1;
nodes = (
"83 914 LINE",
"618 914 LINE",
"457 0 LINE",
"-78 0 LINE"
);
}
);
width = 631;
}
);
leftKerningGroup = mnpr_LC;
rightKerningGroup = u_LC;
},
{
glyphname = jdotless;
layers = (
{
layerId = "1BFE03A3-C162-48A6-B30A-9589691C03B8";
paths = (
{
closed = 1;
nodes = (
"-359 -39 LINE",
"-334 -45 OFFCURVE",
"-263 -51 OFFCURVE",
"-211 -51 QCURVE SMOOTH",
"-136 -51 OFFCURVE",
"-57 29 OFFCURVE",
"-37 143 QCURVE SMOOTH",
"99 914 LINE",
"632 914 LINE",
"481 54 LINE SMOOTH",
"438 -192 OFFCURVE",
"109 -440 OFFCURVE",
"-153 -440 QCURVE SMOOTH",
"-251 -440 OFFCURVE",
"-372 -427 OFFCURVE",
"-417 -418 QCURVE"
);
}
);
width = 665;
}
);
rightKerningGroup = j_LC;
},
{
glyphname = zerosuperior;
layers = (
{
layerId = "1BFE03A3-C162-48A6-B30A-9589691C03B8";
paths = (
{
closed = 1;
nodes = (
"57.706 1169.532 LINE",
"79.286 1320.833 OFFCURVE",
"328.159 1485.682 OFFCURVE",
"487.683 1485.682 QCURVE SMOOTH",
"647.754 1485.167 OFFCURVE",
"843.889 1318.254 OFFCURVE",
"822.31 1172.627 QCURVE",
"793.23 1004.865 LINE",
"770.198 838.595 OFFCURVE",
"521.325 666.23 OFFCURVE",
"361.77 666.23 QCURVE SMOOTH",
"201.73 666.746 OFFCURVE",
"5.595 829.825 OFFCURVE",
"28.627 996.611 QCURVE"
);
},
{
closed = 1;
nodes = (
"342.952 924.984 OFFCURVE",
"363.913 900.96 OFFCURVE",
"390 900.96 QCURVE SMOOTH",
"415.635 900.444 OFFCURVE",
"445.302 923.952 OFFCURVE",
"454.881 974.429 QCURVE SMOOTH",
"489.762 1171.841 LINE SMOOTH",
"498.341 1220.802 OFFCURVE",
"479.929 1251.437 OFFCURVE",
"452.23 1251.437 QCURVE SMOOTH",
"424.595 1251.952 OFFCURVE",
"395.992 1221.833 OFFCURVE",
"386.897 1171.841 QCURVE SMOOTH",
"352.016 974.429 LINE SMOOTH"
);
}
);
width = 786;
}
);
},
{
glyphname = gravecomb.case;
layers = (
{
layerId = "1BFE03A3-C162-48A6-B30A-9589691C03B8";
paths = (
{
closed = 1;
nodes = (
"65.532 1871.31 LINE",
"543.437 2090.849 LINE",
"854.675 1699.897 LINE",
"410.897 1545 LINE"
);
}
);
width = 1024;
}
);
},
{
glyphname = acutecomb.case;
layers = (
{
layerId = "1BFE03A3-C162-48A6-B30A-9589691C03B8";
paths = (
{
closed = 1;
nodes = (
"544.048 2090.849 LINE",
"1021.952 1871.31 LINE",
"676.587 1545 LINE",
"232.81 1699.897 LINE"
);
}
);
width = 1024;
}
);
},
{
glyphname = circumflexcomb.case;
layers = (
{
layerId = "1BFE03A3-C162-48A6-B30A-9589691C03B8";
paths = (
{
closed = 1;
nodes = (
"984.881 1579 LINE",
"597.468 1579 LINE",
"503 1664.063 LINE",
"409.016 1579 LINE",
"25.119 1579 LINE",
"416.944 2040.381 LINE",
"588.024 2040.381 LINE"
);
}
);
width = 1024;
}
);
},
{
glyphname = tildecomb.case;
layers = (
{
layerId = "1BFE03A3-C162-48A6-B30A-9589691C03B8";
paths = (
{
closed = 1;
nodes = (
"69.548 1883.698 OFFCURVE",
"242.825 2059.722 OFFCURVE",
"332.722 2059.722 QCURVE SMOOTH",
"385.944 2059.722 OFFCURVE",
"481.873 2033.627 OFFCURVE",
"529.579 2011.079 QCURVE SMOOTH",
"573.254 1989.5 OFFCURVE",
"672.698 1945.889 OFFCURVE",
"722.437 1945.889 QCURVE SMOOTH",
"774.659 1945.889 OFFCURVE",
"864.556 1996.532 OFFCURVE",
"892.683 2032.627 QCURVE",
"996.643 1836.571 LINE",
"949.937 1712.19 OFFCURVE",
"794.754 1579.294 OFFCURVE",
"704.857 1579.294 QCURVE SMOOTH",
"640.571 1579.294 OFFCURVE",
"520.032 1624.937 OFFCURVE",
"480.357 1642 QCURVE SMOOTH",
"436.167 1661.032 OFFCURVE",
"348.27 1698.675 OFFCURVE",
"311.627 1698.675 QCURVE SMOOTH",
"252.373 1698.675 OFFCURVE",
"147.897 1622.937 OFFCURVE",
"123.802 1593.841 QCURVE",
"26.357 1769.349 LINE"
);
}
);
width = 1024;
}
);
},
{
glyphname = macroncomb.case;
layers = (
{
layerId = "1BFE03A3-C162-48A6-B30A-9589691C03B8";
paths = (
{
closed = 1;
nodes = (
"136.317 1977.079 LINE",
"887.683 1977.079 LINE",
"887.683 1618.516 LINE",
"136.317 1618.516 LINE"
);
}
);
width = 1024;
}
);
},
{
glyphname = brevecomb.case;
layers = (
{
layerId = "1BFE03A3-C162-48A6-B30A-9589691C03B8";
paths = (
{
closed = 1;
nodes = (
"987.008 1936.73 LINE",
"937.849 1797.96 OFFCURVE",
"690.571 1563.516 OFFCURVE",
"513 1563.516 QCURVE SMOOTH",
"353.492 1563.516 OFFCURVE",
"98.183 1778.929 OFFCURVE",
"38.992 1938.73 QCURVE",
"310.849 2013.857 LINE",
"342.46 1974.278 OFFCURVE",
"447.294 1908.667 OFFCURVE",
"516 1908.667 QCURVE SMOOTH",
"590.254 1908.667 OFFCURVE",
"696.087 1972.278 OFFCURVE",
"728.183 2013.857 QCURVE"
);
}
);
width = 1024;
}
);
},
{
glyphname = dotaccentcomb.case;
layers = (
{
layerId = "1BFE03A3-C162-48A6-B30A-9589691C03B8";
paths = (
{
closed = 1;
nodes = (
"283.048 1911.405 OFFCURVE",
"399.524 2035.786 OFFCURVE",
"512 2035.786 QCURVE SMOOTH",
"623.476 2035.786 OFFCURVE",
"740.468 1911.405 OFFCURVE",
"740.468 1821.635 QCURVE SMOOTH",
"740.468 1736.381 OFFCURVE",
"623.476 1614 OFFCURVE",
"512 1614 QCURVE SMOOTH",
"399.524 1614 OFFCURVE",
"283.048 1736.381 OFFCURVE",
"283.048 1821.635 QCURVE SMOOTH"
);
}
);
width = 1024;
}
);
},
{
glyphname = dieresiscomb.case;
layers = (
{
layerId = "1BFE03A3-C162-48A6-B30A-9589691C03B8";
paths = (
{
closed = 1;
nodes = (
"-10.738 1912.373 OFFCURVE",
"112.802 2039.238 OFFCURVE",
"233.31 2039.238 QCURVE SMOOTH",
"350.817 2039.238 OFFCURVE",
"475.357 1912.373 OFFCURVE",
"475.357 1820.119 QCURVE SMOOTH",
"475.357 1732.865 OFFCURVE",
"350.817 1608 OFFCURVE",
"233.31 1608 QCURVE SMOOTH",
"112.802 1608 OFFCURVE",
"-10.738 1732.865 OFFCURVE",
"-10.738 1820.119 QCURVE SMOOTH"
);
},
{
closed = 1;
nodes = (
"548.159 1909.857 OFFCURVE",
"669.667 2037.238 OFFCURVE",
"789.69 2037.238 QCURVE SMOOTH",
"905.683 2037.238 OFFCURVE",
"1033.738 1909.857 OFFCURVE",
"1033.738 1818.119 QCURVE SMOOTH",
"1033.738 1731.349 OFFCURVE",
"905.683 1606 OFFCURVE",
"789.69 1606 QCURVE SMOOTH",
"669.667 1606 OFFCURVE",
"548.159 1731.349 OFFCURVE",
"548.159 1818.119 QCURVE SMOOTH"
);
}
);
width = 1024;
}
);
},
{
glyphname = hookabovecomb.case;
layers = (
{
layerId = "1BFE03A3-C162-48A6-B30A-9589691C03B8";
paths = (
{
closed = 1;
nodes = (
"324.5 1602.159 LINE SMOOTH",
"324.5 1679.318 OFFCURVE",
"421.913 1752.992 OFFCURVE",
"491.198 1756.508 QCURVE SMOOTH",
"538.905 1760.508 OFFCURVE",
"564.516 1772.54 OFFCURVE",
"564.516 1789.571 QCURVE SMOOTH",
"564.516 1802.603 OFFCURVE",
"524.841 1819.151 OFFCURVE",
"476.135 1819.151 QCURVE SMOOTH",
"420.913 1819.151 OFFCURVE",
"299.889 1794.087 OFFCURVE",
"288.341 1791.087 QCURVE",
"208.508 1974.5 LINE",
"250.183 1994.532 OFFCURVE",
"451.04 2038.659 OFFCURVE",
"562 2038.659 QCURVE SMOOTH",
"725.698 2038.659 OFFCURVE",
"908.976 1917.373 OFFCURVE",
"908.976 1814.635 QCURVE SMOOTH",
"908.976 1707.381 OFFCURVE",
"771.373 1582.095 OFFCURVE",
"560.484 1571.063 QCURVE",
"560.484 1537 LINE",
"324.5 1537 LINE"
);
}
);
width = 1024;
}
);
},
{
glyphname = ringcomb.case;
layers = (
{
layerId = "1BFE03A3-C162-48A6-B30A-9589691C03B8";
paths = (
{
closed = 1;
nodes = (
"179.246 1959.143 OFFCURVE",
"370.46 2138.135 OFFCURVE",
"512 2138.135 QCURVE SMOOTH",
"651.024 2138.135 OFFCURVE",
"844.754 1959.143 OFFCURVE",
"844.754 1833.31 QCURVE SMOOTH",
"844.754 1704.96 OFFCURVE",
"651.024 1533 OFFCURVE",
"512 1533 QCURVE",
"370.46 1533 OFFCURVE",
"179.246 1704.96 OFFCURVE",
"179.246 1833.31 QCURVE SMOOTH"
);
},
{
closed = 1;
nodes = (
"415.135 1798.73 OFFCURVE",
"469.841 1743.571 OFFCURVE",
"512 1743.571 QCURVE SMOOTH",
"554.159 1743.571 OFFCURVE",
"608.865 1797.698 OFFCURVE",
"608.865 1834.31 QCURVE SMOOTH",
"608.865 1870.405 OFFCURVE",
"554.159 1926.563 OFFCURVE",
"512 1926.563 QCURVE SMOOTH",
"469.841 1926.563 OFFCURVE",
"415.135 1870.405 OFFCURVE",
"415.135 1834.31 QCURVE SMOOTH"
);
}
);
width = 1024;
}
);
},
{
glyphname = caroncomb.case;
layers = (
{
layerId = "1BFE03A3-C162-48A6-B30A-9589691C03B8";
paths = (
{
closed = 1;
nodes = (
"25.119 2040.381 LINE",
"412.532 2040.381 LINE",
"507 1955.318 LINE",
"600.984 2040.381 LINE",
"984.881 2040.381 LINE",
"593.056 1579 LINE",
"421.976 1579 LINE"
);
}
);
width = 1024;
}
);
},
{
glyphname = breveinvertedcomb.case;
layers = (
{
layerId = "1BFE03A3-C162-48A6-B30A-9589691C03B8";
paths = (
{
closed = 1;
nodes = (
"38.992 1649.611 LINE",
"88.151 1788.381 OFFCURVE",
"335.429 2022.825 OFFCURVE",
"513 2022.825 QCURVE SMOOTH",
"672.508 2022.825 OFFCURVE",
"927.817 1807.413 OFFCURVE",
"987.008 1647.611 QCURVE",
"715.151 1572.484 LINE",
"683.54 1612.063 OFFCURVE",
"578.706 1677.675 OFFCURVE",
"510 1677.675 QCURVE SMOOTH",
"435.746 1677.675 OFFCURVE",
"329.913 1614.063 OFFCURVE",
"297.817 1572.484 QCURVE"
);
}
);
width = 1024;
}
);
},
{
glyphname = horncomb.case;
layers = (
{
layerId = "1BFE03A3-C162-48A6-B30A-9589691C03B8";
paths = (
{
closed = 1;
nodes = (
"77.413 1456 LINE SMOOTH",
"122.667 1456 OFFCURVE",
"189.532 1493 OFFCURVE",
"189.532 1547 QCURVE SMOOTH",
"189.532 1595 OFFCURVE",
"177.468 1673 OFFCURVE",
"167.921 1711 QCURVE",
"469.056 1711 LINE",
"496.214 1676 OFFCURVE",
"542.952 1566 OFFCURVE",
"542.952 1478 QCURVE SMOOTH",
"542.952 1355 OFFCURVE",
"342.873 1239 OFFCURVE",
"206.111 1239 QCURVE SMOOTH",
"140.278 1239 OFFCURVE",
"37.19 1254 OFFCURVE",
"0 1267 QCURVE",
"0 1456 LINE"
);
}
);
width = 1024;
}
);
},
{
glyphname = commaaccentcomb.case;
layers = (
{
layerId = "1BFE03A3-C162-48A6-B30A-9589691C03B8";
paths = (
{
closed = 1;
nodes = (
"191.698 -545 OFFCURVE",
"246.857 -363 OFFCURVE",
"271.921 -235 QCURVE",
"809.04 -233 LINE",
"654.627 -652 LINE",
"160.119 -649 LINE"
);
}
);
width = 1024;
}
);
},
{
glyphname = cedillacomb.case;
layers = (
{
layerId = "1BFE03A3-C162-48A6-B30A-9589691C03B8";
paths = (
{
closed = 1;
nodes = (
"649.476 42 LINE",
"611.286 -69.254 LINE",
"713.794 -81.77 OFFCURVE",
"855.008 -169.96 OFFCURVE",
"855.008 -272.183 QCURVE SMOOTH",
"855.008 -381.921 OFFCURVE",
"637.413 -514.206 OFFCURVE",
"266.056 -514.206 QCURVE",
"252.992 -343.341 LINE",
"355.5 -343.341 OFFCURVE",
"440.944 -310.762 OFFCURVE",
"440.944 -277.183 QCURVE SMOOTH",
"440.944 -244.119 OFFCURVE",
"379.627 -220.571 OFFCURVE",
"302.73 -215.056 QCURVE",
"381.143 42 LINE"
);
}
);
width = 1024;
}
);
},
{
glyphname = ogonekcomb.case;
layers = (
{
layerId = "1BFE03A3-C162-48A6-B30A-9589691C03B8";
paths = (
{
closed = 1;
nodes = (
"158.643 -192.667 OFFCURVE",
"321.048 -14.19 OFFCURVE",
"529.675 57 QCURVE",
"746.365 -3.579 LINE",
"703.143 -33.675 OFFCURVE",
"631.246 -104.897 OFFCURVE",
"631.246 -146.54 QCURVE SMOOTH",
"631.246 -167.603 OFFCURVE",
"667.437 -192.667 OFFCURVE",
"707.143 -192.667 QCURVE SMOOTH",
"740.849 -192.667 OFFCURVE",
"793.619 -180.635 OFFCURVE",
"807.198 -174.119 QCURVE",
"834.357 -448.365 LINE",
"786.587 -465.913 OFFCURVE",
"638.278 -498.492 OFFCURVE",
"525.159 -498.492 QCURVE SMOOTH",
"370.817 -498.492 OFFCURVE",
"158.643 -387.69 OFFCURVE",
"158.643 -281.921 QCURVE SMOOTH"
);
}
);
width = 1024;
}
);
},
{
glyphname = acutecombstack.case;
layers = (
{
layerId = "1BFE03A3-C162-48A6-B30A-9589691C03B8";
paths = (
{
closed = 1;
nodes = (
"503.905 2141.492 LINE",
"918.302 1880.278 LINE",
"569.127 1585 LINE",
"145.698 1773.508 LINE"
);
}
);
width = 1024;
}
);
},
{
glyphname = brevecombstack.case;
layers = (
{
layerId = "1BFE03A3-C162-48A6-B30A-9589691C03B8";
paths = (
{
closed = 1;
nodes = (
"955.524 1879.341 LINE",
"909.849 1762.54 OFFCURVE",
"677.571 1564 OFFCURVE",
"510 1564 QCURVE SMOOTH",
"359.492 1564 OFFCURVE",
"119.183 1745.992 OFFCURVE",
"63.476 1880.341 QCURVE",
"319.849 1943.5 LINE",
"348.46 1910.921 OFFCURVE",
"448.294 1855.278 OFFCURVE",
"513 1855.278 QCURVE SMOOTH",
"582.738 1855.278 OFFCURVE",
"681.087 1908.921 OFFCURVE",
"712.183 1943.5 QCURVE"
);
}
);
width = 1024;
}
);
},
{
glyphname = circumflexcombstack.case;
layers = (
{
layerId = "1BFE03A3-C162-48A6-B30A-9589691C03B8";
paths = (
{
closed = 1;
nodes = (
"954.103 1579 LINE",
"579.77 1579 LINE",
"503 1648.19 LINE",
"426.714 1579 LINE",
"55.897 1579 LINE",
"419.683 1948.5 LINE",
"585.286 1948.5 LINE"
);
}
);
width = 1024;
}
);
},
{
glyphname = dieresiscombstack.case;
layers = (
{
layerId = "1BFE03A3-C162-48A6-B30A-9589691C03B8";
paths = (
{
closed = 1;
nodes = (
"56.508 1872.825 OFFCURVE",
"163.857 1981.659 OFFCURVE",
"269.206 1981.659 QCURVE SMOOTH",
"372.04 1981.659 OFFCURVE",
"479.905 1872.825 OFFCURVE",
"479.905 1794.571 QCURVE SMOOTH",
"479.905 1720.349 OFFCURVE",
"372.04 1614 OFFCURVE",
"269.206 1614 QCURVE SMOOTH",
"163.857 1614 OFFCURVE",
"56.508 1720.349 OFFCURVE",
"56.508 1794.571 QCURVE SMOOTH"
);
},
{
closed = 1;
nodes = (
"544.095 1871.31 OFFCURVE",
"649.96 1979.659 OFFCURVE",
"753.794 1979.659 QCURVE SMOOTH",
"854.627 1979.659 OFFCURVE",
"965.976 1871.31 OFFCURVE",
"965.976 1792.571 QCURVE SMOOTH",
"965.976 1718.833 OFFCURVE",
"854.627 1612 OFFCURVE",
"753.794 1612 QCURVE SMOOTH",
"649.96 1612 OFFCURVE",
"544.095 1718.833 OFFCURVE",
"544.095 1792.571 QCURVE SMOOTH"
);
}
);
width = 1024;
}
);
},
{
glyphname = dotaccentcombstack.case;
layers = (
{
layerId = "1BFE03A3-C162-48A6-B30A-9589691C03B8";
paths = (
{
closed = 1;
nodes = (
"305.627 1871.373 OFFCURVE",
"410.071 1979.238 OFFCURVE",
"512 1979.238 QCURVE SMOOTH",
"611.929 1979.238 OFFCURVE",
"717.373 1871.373 OFFCURVE",
"717.373 1793.603 QCURVE SMOOTH",
"717.373 1719.865 OFFCURVE",
"611.929 1614 OFFCURVE",
"512 1614 QCURVE SMOOTH",
"410.071 1614 OFFCURVE",
"305.627 1719.865 OFFCURVE",
"305.627 1793.603 QCURVE SMOOTH"
);
}
);
width = 1024;
}
);
},
{
glyphname = gravecombstack.case;
layers = (
{
layerId = "1BFE03A3-C162-48A6-B30A-9589691C03B8";
paths = (
{
closed = 1;
nodes = (
"145.698 1880.278 LINE",
"560.095 2141.492 LINE",
"918.302 1773.508 LINE",
"494.873 1585 LINE"
);
}
);
width = 1024;
}
);
},
{
glyphname = hookabovecombstack.case;
layers = (
{
layerId = "1BFE03A3-C162-48A6-B30A-9589691C03B8";
paths = (
{
closed = 1;
nodes = (
"316.754 1602.643 LINE SMOOTH",
"316.754 1679.349 OFFCURVE",
"403.071 1753.024 OFFCURVE",
"464.778 1756.024 QCURVE SMOOTH",
"506.421 1760.54 OFFCURVE",
"529.516 1772.571 OFFCURVE",
"529.516 1790.603 QCURVE SMOOTH",
"529.516 1802.151 OFFCURVE",
"493.389 1819.182 OFFCURVE",
"450.746 1819.182 QCURVE SMOOTH",
"402.071 1819.182 OFFCURVE",
"294.69 1794.119 OFFCURVE",
"284.659 1791.603 QCURVE",
"214.405 1975.048 LINE",
"250.532 1995.111 OFFCURVE",
"428.651 2038.722 OFFCURVE",
"527 2038.722 QCURVE SMOOTH",
"672.508 2038.722 OFFCURVE",
"833.079 1916.921 OFFCURVE",
"833.079 1814.667 QCURVE SMOOTH",
"833.079 1706.929 OFFCURVE",
"712.151 1582.095 OFFCURVE",
"525 1570.579 QCURVE",
"525 1537 LINE",
"316.754 1537 LINE"
);
}
);
width = 1024;
}
);
},
{
glyphname = macroncombstack.case;
layers = (
{
layerId = "1BFE03A3-C162-48A6-B30A-9589691C03B8";
paths = (
{
closed = 1;
nodes = (
"157.373 1916.143 LINE",
"866.627 1916.143 LINE",
"866.627 1619 LINE",
"157.373 1619 LINE"
);
}
);
width = 1024;
}
);
},
{
glyphname = tildecombstack.case;
layers = (
{
layerId = "1BFE03A3-C162-48A6-B30A-9589691C03B8";
paths = (
{
closed = 1;
nodes = (
"89.571 1849.079 OFFCURVE",
"254.627 2000.198 OFFCURVE",
"341.429 2000.198 QCURVE SMOOTH",
"392.587 2000.198 OFFCURVE",
"483.905 1978.619 OFFCURVE",
"530.063 1958.524 QCURVE SMOOTH",
"570.706 1940.46 OFFCURVE",
"666.54 1901.302 OFFCURVE",
"713.183 1901.302 QCURVE SMOOTH",
"763.857 1901.302 OFFCURVE",
"850.143 1946.492 OFFCURVE",
"877.238 1977.619 QCURVE",
"975.587 1807.921 LINE",
"931.429 1700.476 OFFCURVE",
"782.921 1586 OFFCURVE",
"697.635 1586 QCURVE SMOOTH",
"635.413 1586 OFFCURVE",
"520.032 1625.159 OFFCURVE",
"481.905 1640.222 QCURVE SMOOTH",
"440.262 1656.286 OFFCURVE",
"356.46 1688.929 OFFCURVE",
"320.849 1688.929 QCURVE SMOOTH",
"264.659 1688.929 OFFCURVE",
"163.825 1623.159 OFFCURVE",
"142.246 1597.548 QCURVE",
"48.413 1750.182 LINE"
);
}
);
width = 1024;
}
);
},
{
glyphname = caroncomb.alt;
layers = (
{
layerId = "1BFE03A3-C162-48A6-B30A-9589691C03B8";
paths = (
{
closed = 1;
nodes = (
"364.262 1522 LINE",
"863.714 1412.357 LINE",
"584.119 932.238 LINE",
"190.079 1016.849 LINE"
);
}
);
width = 1024;
}
);
},
{
glyphname = dollar.rvrn;
layers = (
{
layerId = "1BFE03A3-C162-48A6-B30A-9589691C03B8";
paths = (
{
closed = 1;
nodes = (
"-17 473 LINE",
"422 473 LINE",
"418 439 LINE SMOOTH",
"410 372 OFFCURVE",
"471 307 OFFCURVE",
"541 307 QCURVE SMOOTH",
"609 307 OFFCURVE",
"692 352 OFFCURVE",
"701 399 QCURVE SMOOTH",
"710 444 OFFCURVE",
"670 507 OFFCURVE",
"499 558 QCURVE SMOOTH",
"267 631 OFFCURVE",
"86 865 OFFCURVE",
"116 1066 QCURVE SMOOTH",
"147 1267 OFFCURVE",
"485 1463 OFFCURVE",
"741 1463 QCURVE SMOOTH",
"1000 1463 OFFCURVE",
"1272 1277 OFFCURVE",
"1246 1073 QCURVE SMOOTH",
"1240 1010 LINE",
"804 1010 LINE",
"806 1030 LINE SMOOTH",
"813 1085 OFFCURVE",
"765 1130 OFFCURVE",
"694 1130 QCURVE SMOOTH",
"619 1130 OFFCURVE",
"573 1106 OFFCURVE",
"566 1068 QCURVE SMOOTH",
"558 1029 OFFCURVE",
"602 981 OFFCURVE",
"799 923 QCURVE SMOOTH",
"998 863 OFFCURVE",
"1188 633 OFFCURVE",
"1156 419 QCURVE SMOOTH",
"1126 214 OFFCURVE",
"772 -9 OFFCURVE",
"509 -9 QCURVE SMOOTH",
"254 -9 OFFCURVE",
"-45 183 OFFCURVE",
"-23 396 QCURVE SMOOTH"
);
},
{
closed = 1;
nodes = (
"364 246 LINE",
"736 246 LINE",
"710 89 LINE",
"713 79 LINE",
"672 -151 LINE",
"283 -151 LINE"
);
},
{
closed = 1;
nodes = (
"564 1364 LINE",
"560 1374 LINE",
"596 1606 LINE",
"985 1606 LINE",
"902 1176 LINE",
"530 1176 LINE"
);
}
);
width = 1240;
}
);
},
{
glyphname = zero.prop;
layers = (
{
layerId = "1BFE03A3-C162-48A6-B30A-9589691C03B8";
paths = (
{
closed = 1;
nodes = (
"142 963 LINE SMOOTH",
"142 1182 OFFCURVE",
"442 1496 OFFCURVE",
"707 1496 QCURVE SMOOTH",
"968 1496 OFFCURVE",
"1270 1182 OFFCURVE",
"1270 963 QCURVE SMOOTH",
"1270 493 LINE SMOOTH",
"1270 274 OFFCURVE",
"968 -38 OFFCURVE",
"707 -40 QCURVE SMOOTH",
"442 -42 OFFCURVE",
"142 274 OFFCURVE",
"142 493 QCURVE SMOOTH"
);
},
{
closed = 1;
nodes = (
"420 369 OFFCURVE",
"556 178 OFFCURVE",
"707 178 QCURVE SMOOTH",
"857 178 OFFCURVE",
"992 369 OFFCURVE",
"992 483 QCURVE SMOOTH",
"992 973 LINE SMOOTH",
"992 1087 OFFCURVE",
"857 1279 OFFCURVE",
"707 1279 QCURVE SMOOTH",
"556 1279 OFFCURVE",
"420 1087 OFFCURVE",
"420 973 QCURVE SMOOTH",
"420 483 LINE SMOOTH"
);
}
);
width = 1412;
}
);
},
{
glyphname = one.prop;
layers = (
{
layerId = "1BFE03A3-C162-48A6-B30A-9589691C03B8";
paths = (
{
closed = 1;
nodes = (
"385 1137 LINE",
"-5 952 LINE",
"-5 1220 LINE",
"656 1476 LINE",
"657 1476 LINE",
"657 0 LINE",
"385 0 LINE"
);
}
);
width = 802;
}
);
},
{
glyphname = two.prop;
layers = (
{
layerId = "1BFE03A3-C162-48A6-B30A-9589691C03B8";
paths = (
{
closed = 1;
nodes = (
"-7 196 LINE",
"579 711 LINE SMOOTH",
"706 823 OFFCURVE",
"795 948 OFFCURVE",
"795 1047 QCURVE SMOOTH",
"795 1110 OFFCURVE",
"679 1278 OFFCURVE",
"551 1278 QCURVE SMOOTH",
"427 1278 OFFCURVE",
"261 1095 OFFCURVE",
"261 985 QCURVE SMOOTH",
"261 985 LINE",
"-9 985 LINE",
"-9 985 LINE SMOOTH",
"-9 1187 OFFCURVE",
"316 1496 OFFCURVE",
"548 1496 QCURVE SMOOTH",
"786 1496 OFFCURVE",
"1065 1215 OFFCURVE",
"1065 1057 QCURVE SMOOTH",
"1065 894 OFFCURVE",
"859 639 OFFCURVE",
"742 547 QCURVE SMOOTH",
"321 214 LINE",
"1111 214 LINE",
"1111 0 LINE",
"-7 0 LINE"
);
}
);
width = 1096;
}
);
},
{
glyphname = three.prop;
layers = (
{
layerId = "1BFE03A3-C162-48A6-B30A-9589691C03B8";
paths = (
{
closed = 1;
nodes = (
"1 385 LINE",
"263 385 LINE",
"263 385 LINE SMOOTH",
"263 294 OFFCURVE",
"409 178 OFFCURVE",
"549 178 QCURVE SMOOTH",
"678 178 OFFCURVE",
"831 290 OFFCURVE",
"831 409 QCURVE SMOOTH",
"831 525 OFFCURVE",
"667 653 OFFCURVE",
"511 653 QCURVE SMOOTH",
"433 653 LINE",
"433 866 LINE",
"499 866 LINE SMOOTH",
"647 866 OFFCURVE",
"780 998 OFFCURVE",
"780 1071 QCURVE SMOOTH",
"780 1175 OFFCURVE",
"654 1279 OFFCURVE",
"549 1279 QCURVE SMOOTH",
"455 1279 OFFCURVE",
"306 1184 OFFCURVE",
"306 1095 QCURVE SMOOTH",
"306 1095 LINE",
"44 1095 LINE",
"44 1095 LINE SMOOTH",
"44 1234 OFFCURVE",
"319 1496 OFFCURVE",
"549 1496 QCURVE SMOOTH",
"776 1496 OFFCURVE",
"1054 1249 OFFCURVE",
"1054 1086 QCURVE SMOOTH",
"1054 1034 OFFCURVE",
"948 831 OFFCURVE",
"812 765 QCURVE",
"812 761 LINE",
"957 721 OFFCURVE",
"1109 526 OFFCURVE",
"1109 414 QCURVE SMOOTH",
"1109 199 OFFCURVE",
"784 -40 OFFCURVE",
"549 -40 QCURVE SMOOTH",
"310 -40 OFFCURVE",
"1 207 OFFCURVE",
"1 385 QCURVE SMOOTH"
);
}
);
width = 1217;
}
);
},
{
glyphname = four.prop;
layers = (
{
layerId = "1BFE03A3-C162-48A6-B30A-9589691C03B8";
paths = (
{
closed = 1;
nodes = (
"680 405 LINE",
"680 495 LINE",
"680 1054 LINE",
"662 1054 LINE",
"288 550 LINE",
"754 550 LINE",
"883 550 LINE",
"1166 550 LINE",
"1166 335 LINE",
"-35 335 LINE",
"-35 484 LINE",
"692 1456 LINE",
"931 1456 LINE",
"931 0 LINE",
"680 0 LINE"
);
}
);
width = 1141;
}
);
},
{
glyphname = five.prop;
layers = (
{
layerId = "1BFE03A3-C162-48A6-B30A-9589691C03B8";
paths = (
{
closed = 1;
nodes = (
"83 360 LINE",
"341 360 LINE",
"341 360 LINE SMOOTH",
"341 286 OFFCURVE",
"497 178 OFFCURVE",
"619 178 QCURVE SMOOTH",
"741 178 OFFCURVE",
"909 345 OFFCURVE",
"909 465 QCURVE SMOOTH",
"909 585 OFFCURVE",
"735 766 OFFCURVE",
"596 766 QCURVE SMOOTH",
"511 766 OFFCURVE",
"389 714 OFFCURVE",
"305 646 QCURVE",
"132 743 LINE",
"208 1456 LINE",
"1092 1456 LINE",
"1092 1212 LINE",
"426 1212 LINE",
"392 938 LINE",
"451 953 OFFCURVE",
"564 984 OFFCURVE",
"634 984 QCURVE SMOOTH",
"867 984 OFFCURVE",
"1177 683 OFFCURVE",
"1177 465 QCURVE SMOOTH",
"1177 247 OFFCURVE",
"856 -40 OFFCURVE",
"619 -40 QCURVE SMOOTH",
"382 -40 OFFCURVE",
"83 209 OFFCURVE",
"83 360 QCURVE SMOOTH"
);
}
);
width = 1259;
}
);
},
{
glyphname = six.prop;
layers = (
{
layerId = "1BFE03A3-C162-48A6-B30A-9589691C03B8";
paths = (
{
closed = 1;
nodes = (
"104 644 LINE SMOOTH",
"104 1010 OFFCURVE",
"589 1496 OFFCURVE",
"1063 1496 QCURVE SMOOTH",
"1084 1496 LINE",
"1084 1276 LINE",
"1063 1276 LINE SMOOTH",
"741 1276 OFFCURVE",
"371 1002 OFFCURVE",
"371 674 QCURVE SMOOTH",
"371 594 LINE SMOOTH",
"371 366 OFFCURVE",
"575 178 OFFCURVE",
"719 178 QCURVE SMOOTH",
"876 178 OFFCURVE",
"1030 347 OFFCURVE",
"1030 473 QCURVE SMOOTH",
"1030 614 OFFCURVE",
"868 787 OFFCURVE",
"720 787 QCURVE SMOOTH",
"582 787 OFFCURVE",
"358 628 OFFCURVE",
"358 463 QCURVE",
"284 463 LINE",
"284 703 OFFCURVE",
"540 1004 OFFCURVE",
"780 1004 QCURVE SMOOTH",
"1004 1004 OFFCURVE",
"1298 701 OFFCURVE",
"1298 473 QCURVE SMOOTH",
"1298 253 OFFCURVE",
"967 -40 OFFCURVE",
"723 -40 QCURVE SMOOTH",
"493 -40 OFFCURVE",
"104 271 OFFCURVE",
"104 614 QCURVE SMOOTH"
);
}
);
width = 1372;
}
);
},
{
glyphname = seven.prop;
layers = (
{
layerId = "1BFE03A3-C162-48A6-B30A-9589691C03B8";
paths = (
{
closed = 1;
nodes = (
"644 1242 LINE",
"-26 1242 LINE",
"-26 1456 LINE",
"921 1456 LINE",
"921 1332 LINE",
"475 0 LINE",
"201 0 LINE"
);
}
);
width = 929;
}
);
},
{
glyphname = eight.prop;
layers = (
{
layerId = "1BFE03A3-C162-48A6-B30A-9589691C03B8";
paths = (
{
closed = 1;
nodes = (
"171 507 OFFCURVE",
"299 674 OFFCURVE",
"432 739 QCURVE",
"432 743 LINE",
"341 798 OFFCURVE",
"220 983 OFFCURVE",
"220 1078 QCURVE SMOOTH",
"220 1258 OFFCURVE",
"518 1496 OFFCURVE",
"713 1496 QCURVE SMOOTH",
"908 1496 OFFCURVE",
"1208 1268 OFFCURVE",
"1208 1078 QCURVE SMOOTH",
"1208 991 OFFCURVE",
"1098 800 OFFCURVE",
"1005 741 QCURVE",
"1005 737 LINE",
"1131 671 OFFCURVE",
"1257 504 OFFCURVE",
"1257 395 QCURVE SMOOTH",
"1257 193 OFFCURVE",
"942 -40 OFFCURVE",
"713 -40 QCURVE SMOOTH",
"484 -40 OFFCURVE",
"171 193 OFFCURVE",
"171 395 QCURVE SMOOTH"
);
},
{
closed = 1;
nodes = (
"438 309 OFFCURVE",
"591 178 OFFCURVE",
"714 178 QCURVE SMOOTH",
"837 178 OFFCURVE",
"992 308 OFFCURVE",
"992 403 QCURVE SMOOTH",
"992 489 OFFCURVE",
"851 636 OFFCURVE",
"714 636 QCURVE SMOOTH",
"577 636 OFFCURVE",
"438 489 OFFCURVE",
"438 402 QCURVE SMOOTH"
);
},
{
closed = 1;
nodes = (
"479 973 OFFCURVE",
"598 854 OFFCURVE",
"714 854 QCURVE SMOOTH",
"830 854 OFFCURVE",
"949 973 OFFCURVE",
"949 1060 QCURVE SMOOTH",
"949 1145 OFFCURVE",
"809 1279 OFFCURVE",
"714 1279 QCURVE SMOOTH",
"619 1279 OFFCURVE",
"479 1137 OFFCURVE",
"479 1060 QCURVE SMOOTH"
);
}
);
width = 1432;
}
);
},
{
glyphname = nine.prop;
layers = (
{
layerId = "1BFE03A3-C162-48A6-B30A-9589691C03B8";
paths = (
{
closed = 1;
nodes = (
"64 1215 OFFCURVE",
"395 1496 OFFCURVE",
"639 1496 QCURVE SMOOTH",
"869 1496 OFFCURVE",
"1258 1185 OFFCURVE",
"1258 842 QCURVE SMOOTH",
"1258 812 LINE SMOOTH",
"1258 446 OFFCURVE",
"773 -40 OFFCURVE",
"299 -40 QCURVE SMOOTH",
"278 -40 LINE",
"278 178 LINE",
"299 178 LINE SMOOTH",
"621 178 OFFCURVE",
"991 454 OFFCURVE",
"991 782 QCURVE SMOOTH",
"991 862 LINE SMOOTH",
"991 1090 OFFCURVE",
"787 1279 OFFCURVE",
"643 1279 QCURVE SMOOTH",
"486 1279 OFFCURVE",
"332 1119 OFFCURVE",
"332 1003 QCURVE SMOOTH",
"332 872 OFFCURVE",
"494 704 OFFCURVE",
"642 704 QCURVE SMOOTH",
"780 704 OFFCURVE",
"1004 858 OFFCURVE",
"1004 1013 QCURVE",
"1078 1013 LINE",
"1078 781 OFFCURVE",
"822 486 OFFCURVE",
"582 486 QCURVE SMOOTH",
"360 486 OFFCURVE",
"64 783 OFFCURVE",
"64 1003 QCURVE SMOOTH"
);
}
);
width = 1372;
}
);
},
{
glyphname = .notdef;
layers = (
{
layerId = "1BFE03A3-C162-48A6-B30A-9589691C03B8";
paths = (
{
closed = 1;
nodes = (
"127 1456 LINE",
"127 1402 LINE",
"777 1402 LINE",
"777 1456 LINE"
);
},
{
closed = 1;
nodes = (
"100 1456 LINE",
"100 0 LINE",
"154 0 LINE",
"154 1456 LINE"
);
},
{
closed = 1;
nodes = (
"808 0 LINE",
"754 0 LINE",
"754 1456 LINE",
"808 1456 LINE"
);
},
{
closed = 1;
nodes = (
"127 54 LINE",
"127 0 LINE",
"777 0 LINE",
"777 54 LINE"
);
},
{
closed = 1;
nodes = (
"184 30 LINE",
"126 30 LINE",
"719 1426 LINE",
"777 1426 LINE"
);
},
{
closed = 1;
nodes = (
"777 30 LINE",
"184 1426 LINE",
"126 1426 LINE",
"719 30 LINE"
);
}
